%TF.GenerationSoftware,KiCad,Pcbnew,8.0.4*%
%TF.CreationDate,2024-09-04T10:49:16-04:00*%
%TF.ProjectId,3leaf_left,336c6561-665f-46c6-9566-742e6b696361,rev?*%
%TF.SameCoordinates,Original*%
%TF.FileFunction,Legend,Top*%
%TF.FilePolarity,Positive*%
%FSLAX46Y46*%
G04 Gerber Fmt 4.6, Leading zero omitted, Abs format (unit mm)*
G04 Created by KiCad (PCBNEW 8.0.4) date 2024-09-04 10:49:16*
%MOMM*%
%LPD*%
G01*
G04 APERTURE LIST*
%ADD10C,0.200000*%
%ADD11C,0.150000*%
%ADD12C,0.152400*%
G04 APERTURE END LIST*
D10*
X229651101Y-54222219D02*
X229317768Y-53746028D01*
X229079673Y-54222219D02*
X229079673Y-53222219D01*
X229079673Y-53222219D02*
X229460625Y-53222219D01*
X229460625Y-53222219D02*
X229555863Y-53269838D01*
X229555863Y-53269838D02*
X229603482Y-53317457D01*
X229603482Y-53317457D02*
X229651101Y-53412695D01*
X229651101Y-53412695D02*
X229651101Y-53555552D01*
X229651101Y-53555552D02*
X229603482Y-53650790D01*
X229603482Y-53650790D02*
X229555863Y-53698409D01*
X229555863Y-53698409D02*
X229460625Y-53746028D01*
X229460625Y-53746028D02*
X229079673Y-53746028D01*
X230032054Y-54174600D02*
X230174911Y-54222219D01*
X230174911Y-54222219D02*
X230413006Y-54222219D01*
X230413006Y-54222219D02*
X230508244Y-54174600D01*
X230508244Y-54174600D02*
X230555863Y-54126980D01*
X230555863Y-54126980D02*
X230603482Y-54031742D01*
X230603482Y-54031742D02*
X230603482Y-53936504D01*
X230603482Y-53936504D02*
X230555863Y-53841266D01*
X230555863Y-53841266D02*
X230508244Y-53793647D01*
X230508244Y-53793647D02*
X230413006Y-53746028D01*
X230413006Y-53746028D02*
X230222530Y-53698409D01*
X230222530Y-53698409D02*
X230127292Y-53650790D01*
X230127292Y-53650790D02*
X230079673Y-53603171D01*
X230079673Y-53603171D02*
X230032054Y-53507933D01*
X230032054Y-53507933D02*
X230032054Y-53412695D01*
X230032054Y-53412695D02*
X230079673Y-53317457D01*
X230079673Y-53317457D02*
X230127292Y-53269838D01*
X230127292Y-53269838D02*
X230222530Y-53222219D01*
X230222530Y-53222219D02*
X230460625Y-53222219D01*
X230460625Y-53222219D02*
X230603482Y-53269838D01*
X230889197Y-53222219D02*
X231460625Y-53222219D01*
X231174911Y-54222219D02*
X231174911Y-53222219D01*
X229603482Y-69462219D02*
X229032054Y-69462219D01*
X229317768Y-69462219D02*
X229317768Y-68462219D01*
X229317768Y-68462219D02*
X229222530Y-68605076D01*
X229222530Y-68605076D02*
X229127292Y-68700314D01*
X229127292Y-68700314D02*
X229032054Y-68747933D01*
X230508244Y-68462219D02*
X230032054Y-68462219D01*
X230032054Y-68462219D02*
X229984435Y-68938409D01*
X229984435Y-68938409D02*
X230032054Y-68890790D01*
X230032054Y-68890790D02*
X230127292Y-68843171D01*
X230127292Y-68843171D02*
X230365387Y-68843171D01*
X230365387Y-68843171D02*
X230460625Y-68890790D01*
X230460625Y-68890790D02*
X230508244Y-68938409D01*
X230508244Y-68938409D02*
X230555863Y-69033647D01*
X230555863Y-69033647D02*
X230555863Y-69271742D01*
X230555863Y-69271742D02*
X230508244Y-69366980D01*
X230508244Y-69366980D02*
X230460625Y-69414600D01*
X230460625Y-69414600D02*
X230365387Y-69462219D01*
X230365387Y-69462219D02*
X230127292Y-69462219D01*
X230127292Y-69462219D02*
X230032054Y-69414600D01*
X230032054Y-69414600D02*
X229984435Y-69366980D01*
X228984435Y-55762219D02*
X229603482Y-55762219D01*
X229603482Y-55762219D02*
X229270149Y-56143171D01*
X229270149Y-56143171D02*
X229413006Y-56143171D01*
X229413006Y-56143171D02*
X229508244Y-56190790D01*
X229508244Y-56190790D02*
X229555863Y-56238409D01*
X229555863Y-56238409D02*
X229603482Y-56333647D01*
X229603482Y-56333647D02*
X229603482Y-56571742D01*
X229603482Y-56571742D02*
X229555863Y-56666980D01*
X229555863Y-56666980D02*
X229508244Y-56714600D01*
X229508244Y-56714600D02*
X229413006Y-56762219D01*
X229413006Y-56762219D02*
X229127292Y-56762219D01*
X229127292Y-56762219D02*
X229032054Y-56714600D01*
X229032054Y-56714600D02*
X228984435Y-56666980D01*
X230032054Y-56666980D02*
X230079673Y-56714600D01*
X230079673Y-56714600D02*
X230032054Y-56762219D01*
X230032054Y-56762219D02*
X229984435Y-56714600D01*
X229984435Y-56714600D02*
X230032054Y-56666980D01*
X230032054Y-56666980D02*
X230032054Y-56762219D01*
X230413006Y-55762219D02*
X231032053Y-55762219D01*
X231032053Y-55762219D02*
X230698720Y-56143171D01*
X230698720Y-56143171D02*
X230841577Y-56143171D01*
X230841577Y-56143171D02*
X230936815Y-56190790D01*
X230936815Y-56190790D02*
X230984434Y-56238409D01*
X230984434Y-56238409D02*
X231032053Y-56333647D01*
X231032053Y-56333647D02*
X231032053Y-56571742D01*
X231032053Y-56571742D02*
X230984434Y-56666980D01*
X230984434Y-56666980D02*
X230936815Y-56714600D01*
X230936815Y-56714600D02*
X230841577Y-56762219D01*
X230841577Y-56762219D02*
X230555863Y-56762219D01*
X230555863Y-56762219D02*
X230460625Y-56714600D01*
X230460625Y-56714600D02*
X230413006Y-56666980D01*
X231365387Y-56095552D02*
X231603482Y-56762219D01*
X231603482Y-56762219D02*
X231841577Y-56095552D01*
X215724286Y-73637457D02*
X215771905Y-73589838D01*
X215771905Y-73589838D02*
X215867143Y-73542219D01*
X215867143Y-73542219D02*
X216105238Y-73542219D01*
X216105238Y-73542219D02*
X216200476Y-73589838D01*
X216200476Y-73589838D02*
X216248095Y-73637457D01*
X216248095Y-73637457D02*
X216295714Y-73732695D01*
X216295714Y-73732695D02*
X216295714Y-73827933D01*
X216295714Y-73827933D02*
X216248095Y-73970790D01*
X216248095Y-73970790D02*
X215676667Y-74542219D01*
X215676667Y-74542219D02*
X216295714Y-74542219D01*
X229032054Y-58397457D02*
X229079673Y-58349838D01*
X229079673Y-58349838D02*
X229174911Y-58302219D01*
X229174911Y-58302219D02*
X229413006Y-58302219D01*
X229413006Y-58302219D02*
X229508244Y-58349838D01*
X229508244Y-58349838D02*
X229555863Y-58397457D01*
X229555863Y-58397457D02*
X229603482Y-58492695D01*
X229603482Y-58492695D02*
X229603482Y-58587933D01*
X229603482Y-58587933D02*
X229555863Y-58730790D01*
X229555863Y-58730790D02*
X228984435Y-59302219D01*
X228984435Y-59302219D02*
X229603482Y-59302219D01*
X230555863Y-59302219D02*
X229984435Y-59302219D01*
X230270149Y-59302219D02*
X230270149Y-58302219D01*
X230270149Y-58302219D02*
X230174911Y-58445076D01*
X230174911Y-58445076D02*
X230079673Y-58540314D01*
X230079673Y-58540314D02*
X229984435Y-58587933D01*
X208067945Y-49142219D02*
X207496517Y-49142219D01*
X207782231Y-49142219D02*
X207782231Y-48142219D01*
X207782231Y-48142219D02*
X207686993Y-48285076D01*
X207686993Y-48285076D02*
X207591755Y-48380314D01*
X207591755Y-48380314D02*
X207496517Y-48427933D01*
X208020326Y-65922219D02*
X207544136Y-65922219D01*
X207544136Y-65922219D02*
X207496517Y-66398409D01*
X207496517Y-66398409D02*
X207544136Y-66350790D01*
X207544136Y-66350790D02*
X207639374Y-66303171D01*
X207639374Y-66303171D02*
X207877469Y-66303171D01*
X207877469Y-66303171D02*
X207972707Y-66350790D01*
X207972707Y-66350790D02*
X208020326Y-66398409D01*
X208020326Y-66398409D02*
X208067945Y-66493647D01*
X208067945Y-66493647D02*
X208067945Y-66731742D01*
X208067945Y-66731742D02*
X208020326Y-66826980D01*
X208020326Y-66826980D02*
X207972707Y-66874600D01*
X207972707Y-66874600D02*
X207877469Y-66922219D01*
X207877469Y-66922219D02*
X207639374Y-66922219D01*
X207639374Y-66922219D02*
X207544136Y-66874600D01*
X207544136Y-66874600D02*
X207496517Y-66826980D01*
X229603482Y-77082219D02*
X229032054Y-77082219D01*
X229317768Y-77082219D02*
X229317768Y-76082219D01*
X229317768Y-76082219D02*
X229222530Y-76225076D01*
X229222530Y-76225076D02*
X229127292Y-76320314D01*
X229127292Y-76320314D02*
X229032054Y-76367933D01*
X230222530Y-76082219D02*
X230317768Y-76082219D01*
X230317768Y-76082219D02*
X230413006Y-76129838D01*
X230413006Y-76129838D02*
X230460625Y-76177457D01*
X230460625Y-76177457D02*
X230508244Y-76272695D01*
X230508244Y-76272695D02*
X230555863Y-76463171D01*
X230555863Y-76463171D02*
X230555863Y-76701266D01*
X230555863Y-76701266D02*
X230508244Y-76891742D01*
X230508244Y-76891742D02*
X230460625Y-76986980D01*
X230460625Y-76986980D02*
X230413006Y-77034600D01*
X230413006Y-77034600D02*
X230317768Y-77082219D01*
X230317768Y-77082219D02*
X230222530Y-77082219D01*
X230222530Y-77082219D02*
X230127292Y-77034600D01*
X230127292Y-77034600D02*
X230079673Y-76986980D01*
X230079673Y-76986980D02*
X230032054Y-76891742D01*
X230032054Y-76891742D02*
X229984435Y-76701266D01*
X229984435Y-76701266D02*
X229984435Y-76463171D01*
X229984435Y-76463171D02*
X230032054Y-76272695D01*
X230032054Y-76272695D02*
X230079673Y-76177457D01*
X230079673Y-76177457D02*
X230127292Y-76129838D01*
X230127292Y-76129838D02*
X230222530Y-76082219D01*
X218216667Y-73542217D02*
X218883333Y-73542217D01*
X218883333Y-73542217D02*
X218454762Y-74542217D01*
X207972707Y-68462219D02*
X207782231Y-68462219D01*
X207782231Y-68462219D02*
X207686993Y-68509838D01*
X207686993Y-68509838D02*
X207639374Y-68557457D01*
X207639374Y-68557457D02*
X207544136Y-68700314D01*
X207544136Y-68700314D02*
X207496517Y-68890790D01*
X207496517Y-68890790D02*
X207496517Y-69271742D01*
X207496517Y-69271742D02*
X207544136Y-69366980D01*
X207544136Y-69366980D02*
X207591755Y-69414600D01*
X207591755Y-69414600D02*
X207686993Y-69462219D01*
X207686993Y-69462219D02*
X207877469Y-69462219D01*
X207877469Y-69462219D02*
X207972707Y-69414600D01*
X207972707Y-69414600D02*
X208020326Y-69366980D01*
X208020326Y-69366980D02*
X208067945Y-69271742D01*
X208067945Y-69271742D02*
X208067945Y-69033647D01*
X208067945Y-69033647D02*
X208020326Y-68938409D01*
X208020326Y-68938409D02*
X207972707Y-68890790D01*
X207972707Y-68890790D02*
X207877469Y-68843171D01*
X207877469Y-68843171D02*
X207686993Y-68843171D01*
X207686993Y-68843171D02*
X207591755Y-68890790D01*
X207591755Y-68890790D02*
X207544136Y-68938409D01*
X207544136Y-68938409D02*
X207496517Y-69033647D01*
X207448898Y-60842219D02*
X208067945Y-60842219D01*
X208067945Y-60842219D02*
X207734612Y-61223171D01*
X207734612Y-61223171D02*
X207877469Y-61223171D01*
X207877469Y-61223171D02*
X207972707Y-61270790D01*
X207972707Y-61270790D02*
X208020326Y-61318409D01*
X208020326Y-61318409D02*
X208067945Y-61413647D01*
X208067945Y-61413647D02*
X208067945Y-61651742D01*
X208067945Y-61651742D02*
X208020326Y-61746980D01*
X208020326Y-61746980D02*
X207972707Y-61794600D01*
X207972707Y-61794600D02*
X207877469Y-61842219D01*
X207877469Y-61842219D02*
X207591755Y-61842219D01*
X207591755Y-61842219D02*
X207496517Y-61794600D01*
X207496517Y-61794600D02*
X207448898Y-61746980D01*
X205972707Y-55809838D02*
X205877469Y-55762219D01*
X205877469Y-55762219D02*
X205734612Y-55762219D01*
X205734612Y-55762219D02*
X205591755Y-55809838D01*
X205591755Y-55809838D02*
X205496517Y-55905076D01*
X205496517Y-55905076D02*
X205448898Y-56000314D01*
X205448898Y-56000314D02*
X205401279Y-56190790D01*
X205401279Y-56190790D02*
X205401279Y-56333647D01*
X205401279Y-56333647D02*
X205448898Y-56524123D01*
X205448898Y-56524123D02*
X205496517Y-56619361D01*
X205496517Y-56619361D02*
X205591755Y-56714600D01*
X205591755Y-56714600D02*
X205734612Y-56762219D01*
X205734612Y-56762219D02*
X205829850Y-56762219D01*
X205829850Y-56762219D02*
X205972707Y-56714600D01*
X205972707Y-56714600D02*
X206020326Y-56666980D01*
X206020326Y-56666980D02*
X206020326Y-56333647D01*
X206020326Y-56333647D02*
X205829850Y-56333647D01*
X206448898Y-56762219D02*
X206448898Y-55762219D01*
X206448898Y-55762219D02*
X207020326Y-56762219D01*
X207020326Y-56762219D02*
X207020326Y-55762219D01*
X207496517Y-56762219D02*
X207496517Y-55762219D01*
X207496517Y-55762219D02*
X207734612Y-55762219D01*
X207734612Y-55762219D02*
X207877469Y-55809838D01*
X207877469Y-55809838D02*
X207972707Y-55905076D01*
X207972707Y-55905076D02*
X208020326Y-56000314D01*
X208020326Y-56000314D02*
X208067945Y-56190790D01*
X208067945Y-56190790D02*
X208067945Y-56333647D01*
X208067945Y-56333647D02*
X208020326Y-56524123D01*
X208020326Y-56524123D02*
X207972707Y-56619361D01*
X207972707Y-56619361D02*
X207877469Y-56714600D01*
X207877469Y-56714600D02*
X207734612Y-56762219D01*
X207734612Y-56762219D02*
X207496517Y-56762219D01*
X207734612Y-50682219D02*
X207829850Y-50682219D01*
X207829850Y-50682219D02*
X207925088Y-50729838D01*
X207925088Y-50729838D02*
X207972707Y-50777457D01*
X207972707Y-50777457D02*
X208020326Y-50872695D01*
X208020326Y-50872695D02*
X208067945Y-51063171D01*
X208067945Y-51063171D02*
X208067945Y-51301266D01*
X208067945Y-51301266D02*
X208020326Y-51491742D01*
X208020326Y-51491742D02*
X207972707Y-51586980D01*
X207972707Y-51586980D02*
X207925088Y-51634600D01*
X207925088Y-51634600D02*
X207829850Y-51682219D01*
X207829850Y-51682219D02*
X207734612Y-51682219D01*
X207734612Y-51682219D02*
X207639374Y-51634600D01*
X207639374Y-51634600D02*
X207591755Y-51586980D01*
X207591755Y-51586980D02*
X207544136Y-51491742D01*
X207544136Y-51491742D02*
X207496517Y-51301266D01*
X207496517Y-51301266D02*
X207496517Y-51063171D01*
X207496517Y-51063171D02*
X207544136Y-50872695D01*
X207544136Y-50872695D02*
X207591755Y-50777457D01*
X207591755Y-50777457D02*
X207639374Y-50729838D01*
X207639374Y-50729838D02*
X207734612Y-50682219D01*
X229603482Y-64382219D02*
X229032054Y-64382219D01*
X229317768Y-64382219D02*
X229317768Y-63382219D01*
X229317768Y-63382219D02*
X229222530Y-63525076D01*
X229222530Y-63525076D02*
X229127292Y-63620314D01*
X229127292Y-63620314D02*
X229032054Y-63667933D01*
X230079673Y-64382219D02*
X230270149Y-64382219D01*
X230270149Y-64382219D02*
X230365387Y-64334600D01*
X230365387Y-64334600D02*
X230413006Y-64286980D01*
X230413006Y-64286980D02*
X230508244Y-64144123D01*
X230508244Y-64144123D02*
X230555863Y-63953647D01*
X230555863Y-63953647D02*
X230555863Y-63572695D01*
X230555863Y-63572695D02*
X230508244Y-63477457D01*
X230508244Y-63477457D02*
X230460625Y-63429838D01*
X230460625Y-63429838D02*
X230365387Y-63382219D01*
X230365387Y-63382219D02*
X230174911Y-63382219D01*
X230174911Y-63382219D02*
X230079673Y-63429838D01*
X230079673Y-63429838D02*
X230032054Y-63477457D01*
X230032054Y-63477457D02*
X229984435Y-63572695D01*
X229984435Y-63572695D02*
X229984435Y-63810790D01*
X229984435Y-63810790D02*
X230032054Y-63906028D01*
X230032054Y-63906028D02*
X230079673Y-63953647D01*
X230079673Y-63953647D02*
X230174911Y-64001266D01*
X230174911Y-64001266D02*
X230365387Y-64001266D01*
X230365387Y-64001266D02*
X230460625Y-63953647D01*
X230460625Y-63953647D02*
X230508244Y-63906028D01*
X230508244Y-63906028D02*
X230555863Y-63810790D01*
X229603482Y-72002219D02*
X229032054Y-72002219D01*
X229317768Y-72002219D02*
X229317768Y-71002219D01*
X229317768Y-71002219D02*
X229222530Y-71145076D01*
X229222530Y-71145076D02*
X229127292Y-71240314D01*
X229127292Y-71240314D02*
X229032054Y-71287933D01*
X230460625Y-71335552D02*
X230460625Y-72002219D01*
X230222530Y-70954600D02*
X229984435Y-71668885D01*
X229984435Y-71668885D02*
X230603482Y-71668885D01*
X229603482Y-74542219D02*
X229032054Y-74542219D01*
X229317768Y-74542219D02*
X229317768Y-73542219D01*
X229317768Y-73542219D02*
X229222530Y-73685076D01*
X229222530Y-73685076D02*
X229127292Y-73780314D01*
X229127292Y-73780314D02*
X229032054Y-73827933D01*
X230460625Y-73542219D02*
X230270149Y-73542219D01*
X230270149Y-73542219D02*
X230174911Y-73589838D01*
X230174911Y-73589838D02*
X230127292Y-73637457D01*
X230127292Y-73637457D02*
X230032054Y-73780314D01*
X230032054Y-73780314D02*
X229984435Y-73970790D01*
X229984435Y-73970790D02*
X229984435Y-74351742D01*
X229984435Y-74351742D02*
X230032054Y-74446980D01*
X230032054Y-74446980D02*
X230079673Y-74494600D01*
X230079673Y-74494600D02*
X230174911Y-74542219D01*
X230174911Y-74542219D02*
X230365387Y-74542219D01*
X230365387Y-74542219D02*
X230460625Y-74494600D01*
X230460625Y-74494600D02*
X230508244Y-74446980D01*
X230508244Y-74446980D02*
X230555863Y-74351742D01*
X230555863Y-74351742D02*
X230555863Y-74113647D01*
X230555863Y-74113647D02*
X230508244Y-74018409D01*
X230508244Y-74018409D02*
X230460625Y-73970790D01*
X230460625Y-73970790D02*
X230365387Y-73923171D01*
X230365387Y-73923171D02*
X230174911Y-73923171D01*
X230174911Y-73923171D02*
X230079673Y-73970790D01*
X230079673Y-73970790D02*
X230032054Y-74018409D01*
X230032054Y-74018409D02*
X229984435Y-74113647D01*
X207591755Y-77082219D02*
X207782231Y-77082219D01*
X207782231Y-77082219D02*
X207877469Y-77034600D01*
X207877469Y-77034600D02*
X207925088Y-76986980D01*
X207925088Y-76986980D02*
X208020326Y-76844123D01*
X208020326Y-76844123D02*
X208067945Y-76653647D01*
X208067945Y-76653647D02*
X208067945Y-76272695D01*
X208067945Y-76272695D02*
X208020326Y-76177457D01*
X208020326Y-76177457D02*
X207972707Y-76129838D01*
X207972707Y-76129838D02*
X207877469Y-76082219D01*
X207877469Y-76082219D02*
X207686993Y-76082219D01*
X207686993Y-76082219D02*
X207591755Y-76129838D01*
X207591755Y-76129838D02*
X207544136Y-76177457D01*
X207544136Y-76177457D02*
X207496517Y-76272695D01*
X207496517Y-76272695D02*
X207496517Y-76510790D01*
X207496517Y-76510790D02*
X207544136Y-76606028D01*
X207544136Y-76606028D02*
X207591755Y-76653647D01*
X207591755Y-76653647D02*
X207686993Y-76701266D01*
X207686993Y-76701266D02*
X207877469Y-76701266D01*
X207877469Y-76701266D02*
X207972707Y-76653647D01*
X207972707Y-76653647D02*
X208020326Y-76606028D01*
X208020326Y-76606028D02*
X208067945Y-76510790D01*
X207972707Y-63715552D02*
X207972707Y-64382219D01*
X207734612Y-63334600D02*
X207496517Y-64048885D01*
X207496517Y-64048885D02*
X208115564Y-64048885D01*
X229603482Y-66922219D02*
X229032054Y-66922219D01*
X229317768Y-66922219D02*
X229317768Y-65922219D01*
X229317768Y-65922219D02*
X229222530Y-66065076D01*
X229222530Y-66065076D02*
X229127292Y-66160314D01*
X229127292Y-66160314D02*
X229032054Y-66207933D01*
X230174911Y-66350790D02*
X230079673Y-66303171D01*
X230079673Y-66303171D02*
X230032054Y-66255552D01*
X230032054Y-66255552D02*
X229984435Y-66160314D01*
X229984435Y-66160314D02*
X229984435Y-66112695D01*
X229984435Y-66112695D02*
X230032054Y-66017457D01*
X230032054Y-66017457D02*
X230079673Y-65969838D01*
X230079673Y-65969838D02*
X230174911Y-65922219D01*
X230174911Y-65922219D02*
X230365387Y-65922219D01*
X230365387Y-65922219D02*
X230460625Y-65969838D01*
X230460625Y-65969838D02*
X230508244Y-66017457D01*
X230508244Y-66017457D02*
X230555863Y-66112695D01*
X230555863Y-66112695D02*
X230555863Y-66160314D01*
X230555863Y-66160314D02*
X230508244Y-66255552D01*
X230508244Y-66255552D02*
X230460625Y-66303171D01*
X230460625Y-66303171D02*
X230365387Y-66350790D01*
X230365387Y-66350790D02*
X230174911Y-66350790D01*
X230174911Y-66350790D02*
X230079673Y-66398409D01*
X230079673Y-66398409D02*
X230032054Y-66446028D01*
X230032054Y-66446028D02*
X229984435Y-66541266D01*
X229984435Y-66541266D02*
X229984435Y-66731742D01*
X229984435Y-66731742D02*
X230032054Y-66826980D01*
X230032054Y-66826980D02*
X230079673Y-66874600D01*
X230079673Y-66874600D02*
X230174911Y-66922219D01*
X230174911Y-66922219D02*
X230365387Y-66922219D01*
X230365387Y-66922219D02*
X230460625Y-66874600D01*
X230460625Y-66874600D02*
X230508244Y-66826980D01*
X230508244Y-66826980D02*
X230555863Y-66731742D01*
X230555863Y-66731742D02*
X230555863Y-66541266D01*
X230555863Y-66541266D02*
X230508244Y-66446028D01*
X230508244Y-66446028D02*
X230460625Y-66398409D01*
X230460625Y-66398409D02*
X230365387Y-66350790D01*
X207448898Y-71002219D02*
X208115564Y-71002219D01*
X208115564Y-71002219D02*
X207686993Y-72002219D01*
X207686993Y-73970790D02*
X207591755Y-73923171D01*
X207591755Y-73923171D02*
X207544136Y-73875552D01*
X207544136Y-73875552D02*
X207496517Y-73780314D01*
X207496517Y-73780314D02*
X207496517Y-73732695D01*
X207496517Y-73732695D02*
X207544136Y-73637457D01*
X207544136Y-73637457D02*
X207591755Y-73589838D01*
X207591755Y-73589838D02*
X207686993Y-73542219D01*
X207686993Y-73542219D02*
X207877469Y-73542219D01*
X207877469Y-73542219D02*
X207972707Y-73589838D01*
X207972707Y-73589838D02*
X208020326Y-73637457D01*
X208020326Y-73637457D02*
X208067945Y-73732695D01*
X208067945Y-73732695D02*
X208067945Y-73780314D01*
X208067945Y-73780314D02*
X208020326Y-73875552D01*
X208020326Y-73875552D02*
X207972707Y-73923171D01*
X207972707Y-73923171D02*
X207877469Y-73970790D01*
X207877469Y-73970790D02*
X207686993Y-73970790D01*
X207686993Y-73970790D02*
X207591755Y-74018409D01*
X207591755Y-74018409D02*
X207544136Y-74066028D01*
X207544136Y-74066028D02*
X207496517Y-74161266D01*
X207496517Y-74161266D02*
X207496517Y-74351742D01*
X207496517Y-74351742D02*
X207544136Y-74446980D01*
X207544136Y-74446980D02*
X207591755Y-74494600D01*
X207591755Y-74494600D02*
X207686993Y-74542219D01*
X207686993Y-74542219D02*
X207877469Y-74542219D01*
X207877469Y-74542219D02*
X207972707Y-74494600D01*
X207972707Y-74494600D02*
X208020326Y-74446980D01*
X208020326Y-74446980D02*
X208067945Y-74351742D01*
X208067945Y-74351742D02*
X208067945Y-74161266D01*
X208067945Y-74161266D02*
X208020326Y-74066028D01*
X208020326Y-74066028D02*
X207972707Y-74018409D01*
X207972707Y-74018409D02*
X207877469Y-73970790D01*
X229603482Y-50729838D02*
X229508244Y-50682219D01*
X229508244Y-50682219D02*
X229365387Y-50682219D01*
X229365387Y-50682219D02*
X229222530Y-50729838D01*
X229222530Y-50729838D02*
X229127292Y-50825076D01*
X229127292Y-50825076D02*
X229079673Y-50920314D01*
X229079673Y-50920314D02*
X229032054Y-51110790D01*
X229032054Y-51110790D02*
X229032054Y-51253647D01*
X229032054Y-51253647D02*
X229079673Y-51444123D01*
X229079673Y-51444123D02*
X229127292Y-51539361D01*
X229127292Y-51539361D02*
X229222530Y-51634600D01*
X229222530Y-51634600D02*
X229365387Y-51682219D01*
X229365387Y-51682219D02*
X229460625Y-51682219D01*
X229460625Y-51682219D02*
X229603482Y-51634600D01*
X229603482Y-51634600D02*
X229651101Y-51586980D01*
X229651101Y-51586980D02*
X229651101Y-51253647D01*
X229651101Y-51253647D02*
X229460625Y-51253647D01*
X230079673Y-51682219D02*
X230079673Y-50682219D01*
X230079673Y-50682219D02*
X230651101Y-51682219D01*
X230651101Y-51682219D02*
X230651101Y-50682219D01*
X231127292Y-51682219D02*
X231127292Y-50682219D01*
X231127292Y-50682219D02*
X231365387Y-50682219D01*
X231365387Y-50682219D02*
X231508244Y-50729838D01*
X231508244Y-50729838D02*
X231603482Y-50825076D01*
X231603482Y-50825076D02*
X231651101Y-50920314D01*
X231651101Y-50920314D02*
X231698720Y-51110790D01*
X231698720Y-51110790D02*
X231698720Y-51253647D01*
X231698720Y-51253647D02*
X231651101Y-51444123D01*
X231651101Y-51444123D02*
X231603482Y-51539361D01*
X231603482Y-51539361D02*
X231508244Y-51634600D01*
X231508244Y-51634600D02*
X231365387Y-51682219D01*
X231365387Y-51682219D02*
X231127292Y-51682219D01*
X229032054Y-60937457D02*
X229079673Y-60889838D01*
X229079673Y-60889838D02*
X229174911Y-60842219D01*
X229174911Y-60842219D02*
X229413006Y-60842219D01*
X229413006Y-60842219D02*
X229508244Y-60889838D01*
X229508244Y-60889838D02*
X229555863Y-60937457D01*
X229555863Y-60937457D02*
X229603482Y-61032695D01*
X229603482Y-61032695D02*
X229603482Y-61127933D01*
X229603482Y-61127933D02*
X229555863Y-61270790D01*
X229555863Y-61270790D02*
X228984435Y-61842219D01*
X228984435Y-61842219D02*
X229603482Y-61842219D01*
X230222530Y-60842219D02*
X230317768Y-60842219D01*
X230317768Y-60842219D02*
X230413006Y-60889838D01*
X230413006Y-60889838D02*
X230460625Y-60937457D01*
X230460625Y-60937457D02*
X230508244Y-61032695D01*
X230508244Y-61032695D02*
X230555863Y-61223171D01*
X230555863Y-61223171D02*
X230555863Y-61461266D01*
X230555863Y-61461266D02*
X230508244Y-61651742D01*
X230508244Y-61651742D02*
X230460625Y-61746980D01*
X230460625Y-61746980D02*
X230413006Y-61794600D01*
X230413006Y-61794600D02*
X230317768Y-61842219D01*
X230317768Y-61842219D02*
X230222530Y-61842219D01*
X230222530Y-61842219D02*
X230127292Y-61794600D01*
X230127292Y-61794600D02*
X230079673Y-61746980D01*
X230079673Y-61746980D02*
X230032054Y-61651742D01*
X230032054Y-61651742D02*
X229984435Y-61461266D01*
X229984435Y-61461266D02*
X229984435Y-61223171D01*
X229984435Y-61223171D02*
X230032054Y-61032695D01*
X230032054Y-61032695D02*
X230079673Y-60937457D01*
X230079673Y-60937457D02*
X230127292Y-60889838D01*
X230127292Y-60889838D02*
X230222530Y-60842219D01*
X228653006Y-48578409D02*
X228795863Y-48626028D01*
X228795863Y-48626028D02*
X228843482Y-48673647D01*
X228843482Y-48673647D02*
X228891101Y-48768885D01*
X228891101Y-48768885D02*
X228891101Y-48911742D01*
X228891101Y-48911742D02*
X228843482Y-49006980D01*
X228843482Y-49006980D02*
X228795863Y-49054600D01*
X228795863Y-49054600D02*
X228700625Y-49102219D01*
X228700625Y-49102219D02*
X228319673Y-49102219D01*
X228319673Y-49102219D02*
X228319673Y-48102219D01*
X228319673Y-48102219D02*
X228653006Y-48102219D01*
X228653006Y-48102219D02*
X228748244Y-48149838D01*
X228748244Y-48149838D02*
X228795863Y-48197457D01*
X228795863Y-48197457D02*
X228843482Y-48292695D01*
X228843482Y-48292695D02*
X228843482Y-48387933D01*
X228843482Y-48387933D02*
X228795863Y-48483171D01*
X228795863Y-48483171D02*
X228748244Y-48530790D01*
X228748244Y-48530790D02*
X228653006Y-48578409D01*
X228653006Y-48578409D02*
X228319673Y-48578409D01*
X229319673Y-48721266D02*
X230081578Y-48721266D01*
X229700625Y-49102219D02*
X229700625Y-48340314D01*
X207496517Y-58397457D02*
X207544136Y-58349838D01*
X207544136Y-58349838D02*
X207639374Y-58302219D01*
X207639374Y-58302219D02*
X207877469Y-58302219D01*
X207877469Y-58302219D02*
X207972707Y-58349838D01*
X207972707Y-58349838D02*
X208020326Y-58397457D01*
X208020326Y-58397457D02*
X208067945Y-58492695D01*
X208067945Y-58492695D02*
X208067945Y-58587933D01*
X208067945Y-58587933D02*
X208020326Y-58730790D01*
X208020326Y-58730790D02*
X207448898Y-59302219D01*
X207448898Y-59302219D02*
X208067945Y-59302219D01*
X213755714Y-74542219D02*
X213184286Y-74542219D01*
X213470000Y-74542219D02*
X213470000Y-73542219D01*
X213470000Y-73542219D02*
X213374762Y-73685076D01*
X213374762Y-73685076D02*
X213279524Y-73780314D01*
X213279524Y-73780314D02*
X213184286Y-73827933D01*
X205972707Y-53269838D02*
X205877469Y-53222219D01*
X205877469Y-53222219D02*
X205734612Y-53222219D01*
X205734612Y-53222219D02*
X205591755Y-53269838D01*
X205591755Y-53269838D02*
X205496517Y-53365076D01*
X205496517Y-53365076D02*
X205448898Y-53460314D01*
X205448898Y-53460314D02*
X205401279Y-53650790D01*
X205401279Y-53650790D02*
X205401279Y-53793647D01*
X205401279Y-53793647D02*
X205448898Y-53984123D01*
X205448898Y-53984123D02*
X205496517Y-54079361D01*
X205496517Y-54079361D02*
X205591755Y-54174600D01*
X205591755Y-54174600D02*
X205734612Y-54222219D01*
X205734612Y-54222219D02*
X205829850Y-54222219D01*
X205829850Y-54222219D02*
X205972707Y-54174600D01*
X205972707Y-54174600D02*
X206020326Y-54126980D01*
X206020326Y-54126980D02*
X206020326Y-53793647D01*
X206020326Y-53793647D02*
X205829850Y-53793647D01*
X206448898Y-54222219D02*
X206448898Y-53222219D01*
X206448898Y-53222219D02*
X207020326Y-54222219D01*
X207020326Y-54222219D02*
X207020326Y-53222219D01*
X207496517Y-54222219D02*
X207496517Y-53222219D01*
X207496517Y-53222219D02*
X207734612Y-53222219D01*
X207734612Y-53222219D02*
X207877469Y-53269838D01*
X207877469Y-53269838D02*
X207972707Y-53365076D01*
X207972707Y-53365076D02*
X208020326Y-53460314D01*
X208020326Y-53460314D02*
X208067945Y-53650790D01*
X208067945Y-53650790D02*
X208067945Y-53793647D01*
X208067945Y-53793647D02*
X208020326Y-53984123D01*
X208020326Y-53984123D02*
X207972707Y-54079361D01*
X207972707Y-54079361D02*
X207877469Y-54174600D01*
X207877469Y-54174600D02*
X207734612Y-54222219D01*
X207734612Y-54222219D02*
X207496517Y-54222219D01*
D11*
X237895125Y-100480742D02*
X238029812Y-100413399D01*
X238029812Y-100413399D02*
X238198170Y-100245040D01*
X238198170Y-100245040D02*
X238231842Y-100144025D01*
X238231842Y-100144025D02*
X238231842Y-100076681D01*
X238231842Y-100076681D02*
X238198170Y-99975666D01*
X238198170Y-99975666D02*
X238130827Y-99908322D01*
X238130827Y-99908322D02*
X238029812Y-99874651D01*
X238029812Y-99874651D02*
X237962468Y-99874651D01*
X237962468Y-99874651D02*
X237861453Y-99908322D01*
X237861453Y-99908322D02*
X237693094Y-100009338D01*
X237693094Y-100009338D02*
X237592079Y-100043009D01*
X237592079Y-100043009D02*
X237524735Y-100043009D01*
X237524735Y-100043009D02*
X237423720Y-100009338D01*
X237423720Y-100009338D02*
X237356377Y-99941994D01*
X237356377Y-99941994D02*
X237322705Y-99840979D01*
X237322705Y-99840979D02*
X237322705Y-99773635D01*
X237322705Y-99773635D02*
X237356377Y-99672620D01*
X237356377Y-99672620D02*
X237524735Y-99504261D01*
X237524735Y-99504261D02*
X237659422Y-99436918D01*
X237861453Y-99167544D02*
X238736919Y-99706292D01*
X238736919Y-99706292D02*
X238366529Y-99066528D01*
X238366529Y-99066528D02*
X239006293Y-99436918D01*
X239006293Y-99436918D02*
X238467545Y-98561452D01*
X239814414Y-98628796D02*
X239410353Y-99032857D01*
X239612384Y-98830826D02*
X238905277Y-98123720D01*
X238905277Y-98123720D02*
X238938949Y-98292078D01*
X238938949Y-98292078D02*
X238938949Y-98426765D01*
X238938949Y-98426765D02*
X238905277Y-98527781D01*
X234747938Y-71072198D02*
X235437885Y-70887327D01*
X235437885Y-70887327D02*
X235588199Y-70896350D01*
X235588199Y-70896350D02*
X235704842Y-70963693D01*
X235704842Y-70963693D02*
X235787812Y-71089358D01*
X235787812Y-71089358D02*
X235812462Y-71181351D01*
X235455045Y-69847453D02*
X235602942Y-70399411D01*
X235528993Y-70123432D02*
X234563067Y-70382251D01*
X234563067Y-70382251D02*
X234725706Y-70437270D01*
X234725706Y-70437270D02*
X234842349Y-70504613D01*
X234842349Y-70504613D02*
X234912994Y-70584281D01*
%TO.C,D15*%
X158600000Y-82800000D02*
X159000000Y-82800000D01*
X159000000Y-82800000D02*
X159000000Y-82250000D01*
X159000000Y-82800000D02*
X159000000Y-83350000D01*
X159000000Y-82800000D02*
X159600000Y-82400000D01*
X159600000Y-82400000D02*
X159600000Y-83200000D01*
X159600000Y-82800000D02*
X160100000Y-82800000D01*
X159600000Y-83200000D02*
X159000000Y-82800000D01*
%TO.C,D4*%
X141600000Y-50300000D02*
X142000000Y-50300000D01*
X142000000Y-50300000D02*
X142000000Y-49750000D01*
X142000000Y-50300000D02*
X142000000Y-50850000D01*
X142000000Y-50300000D02*
X142600000Y-49900000D01*
X142600000Y-49900000D02*
X142600000Y-50700000D01*
X142600000Y-50300000D02*
X143100000Y-50300000D01*
X142600000Y-50700000D02*
X142000000Y-50300000D01*
%TO.C,D12*%
X107600000Y-73300000D02*
X108000000Y-73300000D01*
X108000000Y-73300000D02*
X108000000Y-72750000D01*
X108000000Y-73300000D02*
X108000000Y-73850000D01*
X108000000Y-73300000D02*
X108600000Y-72900000D01*
X108600000Y-72900000D02*
X108600000Y-73700000D01*
X108600000Y-73300000D02*
X109100000Y-73300000D01*
X108600000Y-73700000D02*
X108000000Y-73300000D01*
%TO.C,D3*%
X158600000Y-48800000D02*
X159000000Y-48800000D01*
X159000000Y-48800000D02*
X159000000Y-48250000D01*
X159000000Y-48800000D02*
X159000000Y-49350000D01*
X159000000Y-48800000D02*
X159600000Y-48400000D01*
X159600000Y-48400000D02*
X159600000Y-49200000D01*
X159600000Y-48800000D02*
X160100000Y-48800000D01*
X159600000Y-49200000D02*
X159000000Y-48800000D01*
%TO.C,D8*%
X175600000Y-67000000D02*
X176000000Y-67000000D01*
X176000000Y-67000000D02*
X176000000Y-66450000D01*
X176000000Y-67000000D02*
X176000000Y-67550000D01*
X176000000Y-67000000D02*
X176600000Y-66600000D01*
X176600000Y-66600000D02*
X176600000Y-67400000D01*
X176600000Y-67000000D02*
X177100000Y-67000000D01*
X176600000Y-67400000D02*
X176000000Y-67000000D01*
%TO.C,D6*%
X107600000Y-56300000D02*
X108000000Y-56300000D01*
X108000000Y-56300000D02*
X108000000Y-55750000D01*
X108000000Y-56300000D02*
X108000000Y-56850000D01*
X108000000Y-56300000D02*
X108600000Y-55900000D01*
X108600000Y-55900000D02*
X108600000Y-56700000D01*
X108600000Y-56300000D02*
X109100000Y-56300000D01*
X108600000Y-56700000D02*
X108000000Y-56300000D01*
%TO.C,D13*%
X192600000Y-86200000D02*
X193000000Y-86200000D01*
X193000000Y-86200000D02*
X193000000Y-85650000D01*
X193000000Y-86200000D02*
X193000000Y-86750000D01*
X193000000Y-86200000D02*
X193600000Y-85800000D01*
X193600000Y-85800000D02*
X193600000Y-86600000D01*
X193600000Y-86200000D02*
X194100000Y-86200000D01*
X193600000Y-86600000D02*
X193000000Y-86200000D01*
%TO.C,D18*%
X107600000Y-90300000D02*
X108000000Y-90300000D01*
X108000000Y-90300000D02*
X108000000Y-89750000D01*
X108000000Y-90300000D02*
X108000000Y-90850000D01*
X108000000Y-90300000D02*
X108600000Y-89900000D01*
X108600000Y-89900000D02*
X108600000Y-90700000D01*
X108600000Y-90300000D02*
X109100000Y-90300000D01*
X108600000Y-90700000D02*
X108000000Y-90300000D01*
%TO.C,D22*%
X158600000Y-99800000D02*
X159000000Y-99800000D01*
X159000000Y-99800000D02*
X159000000Y-99250000D01*
X159000000Y-99800000D02*
X159000000Y-100350000D01*
X159000000Y-99800000D02*
X159600000Y-99400000D01*
X159600000Y-99400000D02*
X159600000Y-100200000D01*
X159600000Y-99800000D02*
X160100000Y-99800000D01*
X159600000Y-100200000D02*
X159000000Y-99800000D01*
%TO.C,D20*%
X192600000Y-103200000D02*
X193000000Y-103200000D01*
X193000000Y-103200000D02*
X193000000Y-102650000D01*
X193000000Y-103200000D02*
X193000000Y-103750000D01*
X193000000Y-103200000D02*
X193600000Y-102800000D01*
X193600000Y-102800000D02*
X193600000Y-103600000D01*
X193600000Y-103200000D02*
X194100000Y-103200000D01*
X193600000Y-103600000D02*
X193000000Y-103200000D01*
%TO.C,D1*%
X192600000Y-52200000D02*
X193000000Y-52200000D01*
X193000000Y-52200000D02*
X193000000Y-51650000D01*
X193000000Y-52200000D02*
X193000000Y-52750000D01*
X193000000Y-52200000D02*
X193600000Y-51800000D01*
X193600000Y-51800000D02*
X193600000Y-52600000D01*
X193600000Y-52200000D02*
X194100000Y-52200000D01*
X193600000Y-52600000D02*
X193000000Y-52200000D01*
%TO.C,D10*%
X141600000Y-67300000D02*
X142000000Y-67300000D01*
X142000000Y-67300000D02*
X142000000Y-66750000D01*
X142000000Y-67300000D02*
X142000000Y-67850000D01*
X142000000Y-67300000D02*
X142600000Y-66900000D01*
X142600000Y-66900000D02*
X142600000Y-67700000D01*
X142600000Y-67300000D02*
X143100000Y-67300000D01*
X142600000Y-67700000D02*
X142000000Y-67300000D01*
%TO.C,D16*%
X141600000Y-84300000D02*
X142000000Y-84300000D01*
X142000000Y-84300000D02*
X142000000Y-83750000D01*
X142000000Y-84300000D02*
X142000000Y-84850000D01*
X142000000Y-84300000D02*
X142600000Y-83900000D01*
X142600000Y-83900000D02*
X142600000Y-84700000D01*
X142600000Y-84300000D02*
X143100000Y-84300000D01*
X142600000Y-84700000D02*
X142000000Y-84300000D01*
%TO.C,D17*%
X124600000Y-88500000D02*
X125000000Y-88500000D01*
X125000000Y-88500000D02*
X125000000Y-87950000D01*
X125000000Y-88500000D02*
X125000000Y-89050000D01*
X125000000Y-88500000D02*
X125600000Y-88100000D01*
X125600000Y-88100000D02*
X125600000Y-88900000D01*
X125600000Y-88500000D02*
X126100000Y-88500000D01*
X125600000Y-88900000D02*
X125000000Y-88500000D01*
%TO.C,D21*%
X175600000Y-101000000D02*
X176000000Y-101000000D01*
X176000000Y-101000000D02*
X176000000Y-100450000D01*
X176000000Y-101000000D02*
X176000000Y-101550000D01*
X176000000Y-101000000D02*
X176600000Y-100600000D01*
X176600000Y-100600000D02*
X176600000Y-101400000D01*
X176600000Y-101000000D02*
X177100000Y-101000000D01*
X176600000Y-101400000D02*
X176000000Y-101000000D01*
%TO.C,D19*%
X209600000Y-103200000D02*
X210000000Y-103200000D01*
X210000000Y-103200000D02*
X210000000Y-102650000D01*
X210000000Y-103200000D02*
X210000000Y-103750000D01*
X210000000Y-103200000D02*
X210600000Y-102800000D01*
X210600000Y-102800000D02*
X210600000Y-103600000D01*
X210600000Y-103200000D02*
X211100000Y-103200000D01*
X210600000Y-103600000D02*
X210000000Y-103200000D01*
%TO.C,D11*%
X124600000Y-71500000D02*
X125000000Y-71500000D01*
X125000000Y-71500000D02*
X125000000Y-70950000D01*
X125000000Y-71500000D02*
X125000000Y-72050000D01*
X125000000Y-71500000D02*
X125600000Y-71100000D01*
X125600000Y-71100000D02*
X125600000Y-71900000D01*
X125600000Y-71500000D02*
X126100000Y-71500000D01*
X125600000Y-71900000D02*
X125000000Y-71500000D01*
D10*
%TO.C,U1*%
X209400000Y-45100000D02*
X209400000Y-77900000D01*
X227700000Y-45100000D02*
X227700000Y-77900000D01*
X227700000Y-77900000D02*
X209400000Y-77900000D01*
D11*
%TO.C,D2*%
X175600000Y-50000000D02*
X176000000Y-50000000D01*
X176000000Y-50000000D02*
X176000000Y-49450000D01*
X176000000Y-50000000D02*
X176000000Y-50550000D01*
X176000000Y-50000000D02*
X176600000Y-49600000D01*
X176600000Y-49600000D02*
X176600000Y-50400000D01*
X176600000Y-50000000D02*
X177100000Y-50000000D01*
X176600000Y-50400000D02*
X176000000Y-50000000D01*
D12*
%TO.C,SW1*%
X235873884Y-99232039D02*
X236228893Y-99587049D01*
X237166432Y-100524588D02*
X237275412Y-100633568D01*
X238532039Y-96573884D02*
X235873884Y-99232039D01*
X238887049Y-96928893D02*
X238532039Y-96573884D01*
X239933568Y-97975412D02*
X239824588Y-97866432D01*
X235169028Y-101686054D02*
G75*
G02*
X234965828Y-101686054I-101600J0D01*
G01*
X234965828Y-101686054D02*
G75*
G02*
X235169028Y-101686054I101600J0D01*
G01*
D11*
%TO.C,D9*%
X158600000Y-65800000D02*
X159000000Y-65800000D01*
X159000000Y-65800000D02*
X159000000Y-65250000D01*
X159000000Y-65800000D02*
X159000000Y-66350000D01*
X159000000Y-65800000D02*
X159600000Y-65400000D01*
X159600000Y-65400000D02*
X159600000Y-66200000D01*
X159600000Y-65800000D02*
X160100000Y-65800000D01*
X159600000Y-66200000D02*
X159000000Y-65800000D01*
%TO.C,D5*%
X124600000Y-54500000D02*
X125000000Y-54500000D01*
X125000000Y-54500000D02*
X125000000Y-53950000D01*
X125000000Y-54500000D02*
X125000000Y-55050000D01*
X125000000Y-54500000D02*
X125600000Y-54100000D01*
X125600000Y-54100000D02*
X125600000Y-54900000D01*
X125600000Y-54500000D02*
X126100000Y-54500000D01*
X125600000Y-54900000D02*
X125000000Y-54500000D01*
%TO.C,D14*%
X175600000Y-84000000D02*
X176000000Y-84000000D01*
X176000000Y-84000000D02*
X176000000Y-83450000D01*
X176000000Y-84000000D02*
X176000000Y-84550000D01*
X176000000Y-84000000D02*
X176600000Y-83600000D01*
X176600000Y-83600000D02*
X176600000Y-84400000D01*
X176600000Y-84000000D02*
X177100000Y-84000000D01*
X176600000Y-84400000D02*
X176000000Y-84000000D01*
%TO.C,D7*%
X192600000Y-69200000D02*
X193000000Y-69200000D01*
X193000000Y-69200000D02*
X193000000Y-68650000D01*
X193000000Y-69200000D02*
X193000000Y-69750000D01*
X193000000Y-69200000D02*
X193600000Y-68800000D01*
X193600000Y-68800000D02*
X193600000Y-69600000D01*
X193600000Y-69200000D02*
X194100000Y-69200000D01*
X193600000Y-69600000D02*
X193000000Y-69200000D01*
D12*
%TO.C,J1*%
X232194334Y-66390264D02*
X232357374Y-66998739D01*
X234293122Y-65827895D02*
X232194334Y-66390264D01*
X234485951Y-77396147D02*
X235712676Y-77067446D01*
X234541828Y-75151230D02*
X234704873Y-75759725D01*
X234704873Y-75759725D02*
X236803662Y-75197356D01*
X234770613Y-76005070D02*
X234485951Y-77396147D01*
X235712676Y-77067446D02*
X234770613Y-76005070D01*
X237989979Y-74110574D02*
X235863894Y-66175918D01*
%TD*%
M02*
