%TF.GenerationSoftware,KiCad,Pcbnew,8.0.4*%
%TF.CreationDate,2024-09-04T10:49:23-04:00*%
%TF.ProjectId,3leaf_left,336c6561-665f-46c6-9566-742e6b696361,rev?*%
%TF.SameCoordinates,Original*%
%TF.FileFunction,Drillmap*%
%TF.FilePolarity,Positive*%
%FSLAX45Y45*%
G04 Gerber Fmt 4.5, Leading zero omitted, Abs format (unit mm)*
G04 Created by KiCad (PCBNEW 8.0.4) date 2024-09-04 10:49:23*
%MOMM*%
%LPD*%
G01*
G04 APERTURE LIST*
%ADD10C,0.200000*%
%ADD11C,0.100000*%
%ADD12C,0.109220*%
G04 APERTURE END LIST*
D10*
X15116663Y-4150311D02*
G75*
G02*
X15315110Y-4075312I198437J-225019D01*
G01*
X14381301Y-9724597D02*
G75*
G02*
X14885346Y-10225556I2029J-502013D01*
G01*
X15116663Y-4150311D02*
G75*
G02*
X14918223Y-4225310I-198433J225011D01*
G01*
X9785357Y-10146958D02*
X9785357Y-5264957D01*
X23017340Y-4415311D02*
G75*
G02*
X23500484Y-4786581I0J-499999D01*
G01*
X13388709Y-4225311D02*
X14918223Y-4225311D01*
X13384990Y-10149595D02*
X11983440Y-10149597D01*
X18254890Y-11399597D02*
G75*
G02*
X18484996Y-11507097I0J-300023D01*
G01*
X18715110Y-4415311D02*
X23017340Y-4415311D01*
X10116380Y-4794373D02*
G75*
G02*
X13388709Y-4225311I3268660J-9102967D01*
G01*
X22566069Y-11468156D02*
G75*
G02*
X22210446Y-11614600I-353569J353586D01*
G01*
X24510326Y-9523900D02*
X22566069Y-11468156D01*
X16601710Y-11274597D02*
X15385340Y-11274597D01*
X23500481Y-4786582D02*
X24640285Y-9040387D01*
X14885343Y-10774597D02*
X14885343Y-10225556D01*
X16601710Y-4075311D02*
G75*
G02*
X16784998Y-4137813I-10J-300029D01*
G01*
X13671958Y-9937098D02*
G75*
G02*
X13384990Y-10149597I-286968J87518D01*
G01*
X24640285Y-9040387D02*
G75*
G02*
X24510328Y-9523902I-482965J-129413D01*
G01*
X23304526Y-4716973D02*
G75*
G02*
X23034526Y-4716973I-135000J0D01*
G01*
X23034526Y-4716973D02*
G75*
G02*
X23304526Y-4716973I135000J0D01*
G01*
X16601710Y-11274597D02*
G75*
G02*
X16785000Y-11337097I0J-300013D01*
G01*
X13671958Y-9937098D02*
G75*
G02*
X13958940Y-9724608I286962J-87522D01*
G01*
X18715110Y-4415311D02*
G75*
G02*
X18485004Y-4307810I0J300021D01*
G01*
X10224867Y-10645734D02*
G75*
G02*
X9785359Y-10146958I60494J496334D01*
G01*
X15315110Y-4075311D02*
X16601710Y-4075311D01*
X16968290Y-11399597D02*
G75*
G02*
X16784999Y-11337098I0J300017D01*
G01*
X11347282Y-10782514D02*
X10224867Y-10645734D01*
X18254900Y-4200311D02*
G75*
G02*
X18485004Y-4307810I0J-300019D01*
G01*
X11684998Y-10467264D02*
G75*
G02*
X11347282Y-10782517I-299518J-17656D01*
G01*
X22210446Y-11614597D02*
X18715100Y-11614597D01*
X13220000Y-4525311D02*
G75*
G02*
X12950000Y-4525311I-135000J0D01*
G01*
X12950000Y-4525311D02*
G75*
G02*
X13220000Y-4525311I135000J0D01*
G01*
X9785357Y-5264957D02*
G75*
G02*
X10116381Y-4794376I500003J-3D01*
G01*
X16968290Y-4200311D02*
X18254900Y-4200311D01*
X16968290Y-4200311D02*
G75*
G02*
X16784999Y-4137812I0J300021D01*
G01*
X18254890Y-11399597D02*
X16968290Y-11399597D01*
X20605000Y-9429997D02*
G75*
G02*
X20335000Y-9429997I-135000J0D01*
G01*
X20335000Y-9429997D02*
G75*
G02*
X20605000Y-9429997I135000J0D01*
G01*
X11684998Y-10467264D02*
G75*
G02*
X11983440Y-10149600I299482J17664D01*
G01*
X15385340Y-11274597D02*
G75*
G02*
X14885343Y-10774597I0J499997D01*
G01*
X11520499Y-10484931D02*
G75*
G02*
X11250499Y-10484931I-135000J0D01*
G01*
X11250499Y-10484931D02*
G75*
G02*
X11520499Y-10484931I135000J0D01*
G01*
X14381301Y-9724597D02*
X13958940Y-9724597D01*
X18715100Y-11614597D02*
G75*
G02*
X18484997Y-11507097I0J300017D01*
G01*
D11*
X15415000Y-8250000D02*
G75*
G02*
X15295000Y-8250000I-60000J0D01*
G01*
X15295000Y-8250000D02*
G75*
G02*
X15415000Y-8250000I60000J0D01*
G01*
X15405000Y-8800000D02*
G75*
G02*
X15305000Y-8800000I-50000J0D01*
G01*
X15305000Y-8800000D02*
G75*
G02*
X15405000Y-8800000I50000J0D01*
G01*
X16575000Y-8250000D02*
G75*
G02*
X16455000Y-8250000I-60000J0D01*
G01*
X16455000Y-8250000D02*
G75*
G02*
X16575000Y-8250000I60000J0D01*
G01*
X16565000Y-8800000D02*
G75*
G02*
X16465000Y-8800000I-50000J0D01*
G01*
X16465000Y-8800000D02*
G75*
G02*
X16565000Y-8800000I50000J0D01*
G01*
X12015000Y-7125000D02*
G75*
G02*
X11895000Y-7125000I-60000J0D01*
G01*
X11895000Y-7125000D02*
G75*
G02*
X12015000Y-7125000I60000J0D01*
G01*
X12005000Y-7675000D02*
G75*
G02*
X11905000Y-7675000I-50000J0D01*
G01*
X11905000Y-7675000D02*
G75*
G02*
X12005000Y-7675000I50000J0D01*
G01*
X13175000Y-7125000D02*
G75*
G02*
X13055000Y-7125000I-60000J0D01*
G01*
X13055000Y-7125000D02*
G75*
G02*
X13175000Y-7125000I60000J0D01*
G01*
X13165000Y-7675000D02*
G75*
G02*
X13065000Y-7675000I-50000J0D01*
G01*
X13065000Y-7675000D02*
G75*
G02*
X13165000Y-7675000I50000J0D01*
G01*
X13715000Y-8400000D02*
G75*
G02*
X13595000Y-8400000I-60000J0D01*
G01*
X13595000Y-8400000D02*
G75*
G02*
X13715000Y-8400000I60000J0D01*
G01*
X13705000Y-8950000D02*
G75*
G02*
X13605000Y-8950000I-50000J0D01*
G01*
X13605000Y-8950000D02*
G75*
G02*
X13705000Y-8950000I50000J0D01*
G01*
X14875000Y-8400000D02*
G75*
G02*
X14755000Y-8400000I-60000J0D01*
G01*
X14755000Y-8400000D02*
G75*
G02*
X14875000Y-8400000I60000J0D01*
G01*
X14865000Y-8950000D02*
G75*
G02*
X14765000Y-8950000I-50000J0D01*
G01*
X14765000Y-8950000D02*
G75*
G02*
X14865000Y-8950000I50000J0D01*
G01*
X20515000Y-10290000D02*
G75*
G02*
X20395000Y-10290000I-60000J0D01*
G01*
X20395000Y-10290000D02*
G75*
G02*
X20515000Y-10290000I60000J0D01*
G01*
X20505000Y-10840000D02*
G75*
G02*
X20405000Y-10840000I-50000J0D01*
G01*
X20405000Y-10840000D02*
G75*
G02*
X20505000Y-10840000I50000J0D01*
G01*
X21675000Y-10290000D02*
G75*
G02*
X21555000Y-10290000I-60000J0D01*
G01*
X21555000Y-10290000D02*
G75*
G02*
X21675000Y-10290000I60000J0D01*
G01*
X21665000Y-10840000D02*
G75*
G02*
X21565000Y-10840000I-50000J0D01*
G01*
X21565000Y-10840000D02*
G75*
G02*
X21665000Y-10840000I50000J0D01*
G01*
X10315000Y-5600000D02*
G75*
G02*
X10195000Y-5600000I-60000J0D01*
G01*
X10195000Y-5600000D02*
G75*
G02*
X10315000Y-5600000I60000J0D01*
G01*
X10305000Y-6150000D02*
G75*
G02*
X10205000Y-6150000I-50000J0D01*
G01*
X10205000Y-6150000D02*
G75*
G02*
X10305000Y-6150000I50000J0D01*
G01*
X11475000Y-5600000D02*
G75*
G02*
X11355000Y-5600000I-60000J0D01*
G01*
X11355000Y-5600000D02*
G75*
G02*
X11475000Y-5600000I60000J0D01*
G01*
X11465000Y-6150000D02*
G75*
G02*
X11365000Y-6150000I-50000J0D01*
G01*
X11365000Y-6150000D02*
G75*
G02*
X11465000Y-6150000I50000J0D01*
G01*
X18815000Y-10290000D02*
G75*
G02*
X18695000Y-10290000I-60000J0D01*
G01*
X18695000Y-10290000D02*
G75*
G02*
X18815000Y-10290000I60000J0D01*
G01*
X18805000Y-10840000D02*
G75*
G02*
X18705000Y-10840000I-50000J0D01*
G01*
X18705000Y-10840000D02*
G75*
G02*
X18805000Y-10840000I50000J0D01*
G01*
X19975000Y-10290000D02*
G75*
G02*
X19855000Y-10290000I-60000J0D01*
G01*
X19855000Y-10290000D02*
G75*
G02*
X19975000Y-10290000I60000J0D01*
G01*
X19965000Y-10840000D02*
G75*
G02*
X19865000Y-10840000I-50000J0D01*
G01*
X19865000Y-10840000D02*
G75*
G02*
X19965000Y-10840000I50000J0D01*
G01*
X17115000Y-4975000D02*
G75*
G02*
X16995000Y-4975000I-60000J0D01*
G01*
X16995000Y-4975000D02*
G75*
G02*
X17115000Y-4975000I60000J0D01*
G01*
X17105000Y-5525000D02*
G75*
G02*
X17005000Y-5525000I-50000J0D01*
G01*
X17005000Y-5525000D02*
G75*
G02*
X17105000Y-5525000I50000J0D01*
G01*
X18275000Y-4975000D02*
G75*
G02*
X18155000Y-4975000I-60000J0D01*
G01*
X18155000Y-4975000D02*
G75*
G02*
X18275000Y-4975000I60000J0D01*
G01*
X18265000Y-5525000D02*
G75*
G02*
X18165000Y-5525000I-50000J0D01*
G01*
X18165000Y-5525000D02*
G75*
G02*
X18265000Y-5525000I50000J0D01*
G01*
X10315000Y-9000000D02*
G75*
G02*
X10195000Y-9000000I-60000J0D01*
G01*
X10195000Y-9000000D02*
G75*
G02*
X10315000Y-9000000I60000J0D01*
G01*
X10305000Y-9550000D02*
G75*
G02*
X10205000Y-9550000I-50000J0D01*
G01*
X10205000Y-9550000D02*
G75*
G02*
X10305000Y-9550000I50000J0D01*
G01*
X11475000Y-9000000D02*
G75*
G02*
X11355000Y-9000000I-60000J0D01*
G01*
X11355000Y-9000000D02*
G75*
G02*
X11475000Y-9000000I60000J0D01*
G01*
X11465000Y-9550000D02*
G75*
G02*
X11365000Y-9550000I-50000J0D01*
G01*
X11365000Y-9550000D02*
G75*
G02*
X11465000Y-9550000I50000J0D01*
G01*
X15415000Y-6550000D02*
G75*
G02*
X15295000Y-6550000I-60000J0D01*
G01*
X15295000Y-6550000D02*
G75*
G02*
X15415000Y-6550000I60000J0D01*
G01*
X15405000Y-7100000D02*
G75*
G02*
X15305000Y-7100000I-50000J0D01*
G01*
X15305000Y-7100000D02*
G75*
G02*
X15405000Y-7100000I50000J0D01*
G01*
X16575000Y-6550000D02*
G75*
G02*
X16455000Y-6550000I-60000J0D01*
G01*
X16455000Y-6550000D02*
G75*
G02*
X16575000Y-6550000I60000J0D01*
G01*
X16565000Y-7100000D02*
G75*
G02*
X16465000Y-7100000I-50000J0D01*
G01*
X16465000Y-7100000D02*
G75*
G02*
X16565000Y-7100000I50000J0D01*
G01*
X12015000Y-8825000D02*
G75*
G02*
X11895000Y-8825000I-60000J0D01*
G01*
X11895000Y-8825000D02*
G75*
G02*
X12015000Y-8825000I60000J0D01*
G01*
X12005000Y-9375000D02*
G75*
G02*
X11905000Y-9375000I-50000J0D01*
G01*
X11905000Y-9375000D02*
G75*
G02*
X12005000Y-9375000I50000J0D01*
G01*
X13175000Y-8825000D02*
G75*
G02*
X13055000Y-8825000I-60000J0D01*
G01*
X13055000Y-8825000D02*
G75*
G02*
X13175000Y-8825000I60000J0D01*
G01*
X13165000Y-9375000D02*
G75*
G02*
X13065000Y-9375000I-50000J0D01*
G01*
X13065000Y-9375000D02*
G75*
G02*
X13165000Y-9375000I50000J0D01*
G01*
X13715000Y-5000000D02*
G75*
G02*
X13595000Y-5000000I-60000J0D01*
G01*
X13595000Y-5000000D02*
G75*
G02*
X13715000Y-5000000I60000J0D01*
G01*
X13705000Y-5550000D02*
G75*
G02*
X13605000Y-5550000I-50000J0D01*
G01*
X13605000Y-5550000D02*
G75*
G02*
X13705000Y-5550000I50000J0D01*
G01*
X14875000Y-5000000D02*
G75*
G02*
X14755000Y-5000000I-60000J0D01*
G01*
X14755000Y-5000000D02*
G75*
G02*
X14875000Y-5000000I60000J0D01*
G01*
X14865000Y-5550000D02*
G75*
G02*
X14765000Y-5550000I-50000J0D01*
G01*
X14765000Y-5550000D02*
G75*
G02*
X14865000Y-5550000I50000J0D01*
G01*
X10315000Y-7300000D02*
G75*
G02*
X10195000Y-7300000I-60000J0D01*
G01*
X10195000Y-7300000D02*
G75*
G02*
X10315000Y-7300000I60000J0D01*
G01*
X10305000Y-7850000D02*
G75*
G02*
X10205000Y-7850000I-50000J0D01*
G01*
X10205000Y-7850000D02*
G75*
G02*
X10305000Y-7850000I50000J0D01*
G01*
X11475000Y-7300000D02*
G75*
G02*
X11355000Y-7300000I-60000J0D01*
G01*
X11355000Y-7300000D02*
G75*
G02*
X11475000Y-7300000I60000J0D01*
G01*
X11465000Y-7850000D02*
G75*
G02*
X11365000Y-7850000I-50000J0D01*
G01*
X11365000Y-7850000D02*
G75*
G02*
X11465000Y-7850000I50000J0D01*
G01*
X18815000Y-5190000D02*
G75*
G02*
X18695000Y-5190000I-60000J0D01*
G01*
X18695000Y-5190000D02*
G75*
G02*
X18815000Y-5190000I60000J0D01*
G01*
X18805000Y-5740000D02*
G75*
G02*
X18705000Y-5740000I-50000J0D01*
G01*
X18705000Y-5740000D02*
G75*
G02*
X18805000Y-5740000I50000J0D01*
G01*
X19975000Y-5190000D02*
G75*
G02*
X19855000Y-5190000I-60000J0D01*
G01*
X19855000Y-5190000D02*
G75*
G02*
X19975000Y-5190000I60000J0D01*
G01*
X19965000Y-5740000D02*
G75*
G02*
X19865000Y-5740000I-50000J0D01*
G01*
X19865000Y-5740000D02*
G75*
G02*
X19965000Y-5740000I50000J0D01*
G01*
X18815000Y-8590000D02*
G75*
G02*
X18695000Y-8590000I-60000J0D01*
G01*
X18695000Y-8590000D02*
G75*
G02*
X18815000Y-8590000I60000J0D01*
G01*
X18805000Y-9140000D02*
G75*
G02*
X18705000Y-9140000I-50000J0D01*
G01*
X18705000Y-9140000D02*
G75*
G02*
X18805000Y-9140000I50000J0D01*
G01*
X19975000Y-8590000D02*
G75*
G02*
X19855000Y-8590000I-60000J0D01*
G01*
X19855000Y-8590000D02*
G75*
G02*
X19975000Y-8590000I60000J0D01*
G01*
X19965000Y-9140000D02*
G75*
G02*
X19865000Y-9140000I-50000J0D01*
G01*
X19865000Y-9140000D02*
G75*
G02*
X19965000Y-9140000I50000J0D01*
G01*
X13715000Y-6700000D02*
G75*
G02*
X13595000Y-6700000I-60000J0D01*
G01*
X13595000Y-6700000D02*
G75*
G02*
X13715000Y-6700000I60000J0D01*
G01*
X13705000Y-7250000D02*
G75*
G02*
X13605000Y-7250000I-50000J0D01*
G01*
X13605000Y-7250000D02*
G75*
G02*
X13705000Y-7250000I50000J0D01*
G01*
X14875000Y-6700000D02*
G75*
G02*
X14755000Y-6700000I-60000J0D01*
G01*
X14755000Y-6700000D02*
G75*
G02*
X14875000Y-6700000I60000J0D01*
G01*
X14865000Y-7250000D02*
G75*
G02*
X14765000Y-7250000I-50000J0D01*
G01*
X14765000Y-7250000D02*
G75*
G02*
X14865000Y-7250000I50000J0D01*
G01*
X17115000Y-6675000D02*
G75*
G02*
X16995000Y-6675000I-60000J0D01*
G01*
X16995000Y-6675000D02*
G75*
G02*
X17115000Y-6675000I60000J0D01*
G01*
X17105000Y-7225000D02*
G75*
G02*
X17005000Y-7225000I-50000J0D01*
G01*
X17005000Y-7225000D02*
G75*
G02*
X17105000Y-7225000I50000J0D01*
G01*
X18275000Y-6675000D02*
G75*
G02*
X18155000Y-6675000I-60000J0D01*
G01*
X18155000Y-6675000D02*
G75*
G02*
X18275000Y-6675000I60000J0D01*
G01*
X18265000Y-7225000D02*
G75*
G02*
X18165000Y-7225000I-50000J0D01*
G01*
X18165000Y-7225000D02*
G75*
G02*
X18265000Y-7225000I50000J0D01*
G01*
X17115000Y-8375000D02*
G75*
G02*
X16995000Y-8375000I-60000J0D01*
G01*
X16995000Y-8375000D02*
G75*
G02*
X17115000Y-8375000I60000J0D01*
G01*
X17105000Y-8925000D02*
G75*
G02*
X17005000Y-8925000I-50000J0D01*
G01*
X17005000Y-8925000D02*
G75*
G02*
X17105000Y-8925000I50000J0D01*
G01*
X18275000Y-8375000D02*
G75*
G02*
X18155000Y-8375000I-60000J0D01*
G01*
X18155000Y-8375000D02*
G75*
G02*
X18275000Y-8375000I60000J0D01*
G01*
X18265000Y-8925000D02*
G75*
G02*
X18165000Y-8925000I-50000J0D01*
G01*
X18165000Y-8925000D02*
G75*
G02*
X18265000Y-8925000I50000J0D01*
G01*
X15415000Y-4850000D02*
G75*
G02*
X15295000Y-4850000I-60000J0D01*
G01*
X15295000Y-4850000D02*
G75*
G02*
X15415000Y-4850000I60000J0D01*
G01*
X15405000Y-5400000D02*
G75*
G02*
X15305000Y-5400000I-50000J0D01*
G01*
X15305000Y-5400000D02*
G75*
G02*
X15405000Y-5400000I50000J0D01*
G01*
X16575000Y-4850000D02*
G75*
G02*
X16455000Y-4850000I-60000J0D01*
G01*
X16455000Y-4850000D02*
G75*
G02*
X16575000Y-4850000I60000J0D01*
G01*
X16565000Y-5400000D02*
G75*
G02*
X16465000Y-5400000I-50000J0D01*
G01*
X16465000Y-5400000D02*
G75*
G02*
X16565000Y-5400000I50000J0D01*
G01*
X12015000Y-5425000D02*
G75*
G02*
X11895000Y-5425000I-60000J0D01*
G01*
X11895000Y-5425000D02*
G75*
G02*
X12015000Y-5425000I60000J0D01*
G01*
X12005000Y-5975000D02*
G75*
G02*
X11905000Y-5975000I-50000J0D01*
G01*
X11905000Y-5975000D02*
G75*
G02*
X12005000Y-5975000I50000J0D01*
G01*
X13175000Y-5425000D02*
G75*
G02*
X13055000Y-5425000I-60000J0D01*
G01*
X13055000Y-5425000D02*
G75*
G02*
X13175000Y-5425000I60000J0D01*
G01*
X13165000Y-5975000D02*
G75*
G02*
X13065000Y-5975000I-50000J0D01*
G01*
X13065000Y-5975000D02*
G75*
G02*
X13165000Y-5975000I50000J0D01*
G01*
X17115000Y-10075000D02*
G75*
G02*
X16995000Y-10075000I-60000J0D01*
G01*
X16995000Y-10075000D02*
G75*
G02*
X17115000Y-10075000I60000J0D01*
G01*
X17105000Y-10625000D02*
G75*
G02*
X17005000Y-10625000I-50000J0D01*
G01*
X17005000Y-10625000D02*
G75*
G02*
X17105000Y-10625000I50000J0D01*
G01*
X18275000Y-10075000D02*
G75*
G02*
X18155000Y-10075000I-60000J0D01*
G01*
X18155000Y-10075000D02*
G75*
G02*
X18275000Y-10075000I60000J0D01*
G01*
X18265000Y-10625000D02*
G75*
G02*
X18165000Y-10625000I-50000J0D01*
G01*
X18165000Y-10625000D02*
G75*
G02*
X18265000Y-10625000I50000J0D01*
G01*
X18815000Y-6890000D02*
G75*
G02*
X18695000Y-6890000I-60000J0D01*
G01*
X18695000Y-6890000D02*
G75*
G02*
X18815000Y-6890000I60000J0D01*
G01*
X18805000Y-7440000D02*
G75*
G02*
X18705000Y-7440000I-50000J0D01*
G01*
X18705000Y-7440000D02*
G75*
G02*
X18805000Y-7440000I50000J0D01*
G01*
X19975000Y-6890000D02*
G75*
G02*
X19855000Y-6890000I-60000J0D01*
G01*
X19855000Y-6890000D02*
G75*
G02*
X19975000Y-6890000I60000J0D01*
G01*
X19965000Y-7440000D02*
G75*
G02*
X19865000Y-7440000I-50000J0D01*
G01*
X19865000Y-7440000D02*
G75*
G02*
X19965000Y-7440000I50000J0D01*
G01*
X15415000Y-9950000D02*
G75*
G02*
X15295000Y-9950000I-60000J0D01*
G01*
X15295000Y-9950000D02*
G75*
G02*
X15415000Y-9950000I60000J0D01*
G01*
X15405000Y-10500000D02*
G75*
G02*
X15305000Y-10500000I-50000J0D01*
G01*
X15305000Y-10500000D02*
G75*
G02*
X15405000Y-10500000I50000J0D01*
G01*
X16575000Y-9950000D02*
G75*
G02*
X16455000Y-9950000I-60000J0D01*
G01*
X16455000Y-9950000D02*
G75*
G02*
X16575000Y-9950000I60000J0D01*
G01*
X16565000Y-10500000D02*
G75*
G02*
X16465000Y-10500000I-50000J0D01*
G01*
X16465000Y-10500000D02*
G75*
G02*
X16565000Y-10500000I50000J0D01*
G01*
D10*
D11*
X10570357Y-6879957D02*
X10600357Y-6909957D01*
X10600357Y-6879957D02*
X10570357Y-6909957D01*
X10580357Y-7559957D02*
X10610357Y-7589957D01*
X10610357Y-7559957D02*
X10580357Y-7589957D01*
X12270000Y-7459957D02*
X12300000Y-7489957D01*
X12300000Y-7459957D02*
X12270000Y-7489957D01*
X12270357Y-6869957D02*
X12300357Y-6899957D01*
X12300357Y-6869957D02*
X12270357Y-6899957D01*
X12270357Y-8599957D02*
X12300357Y-8629957D01*
X12300357Y-8599957D02*
X12270357Y-8629957D01*
X12270357Y-9059957D02*
X12300357Y-9089957D01*
X12300357Y-9059957D02*
X12270357Y-9089957D01*
X13970000Y-7769957D02*
X14000000Y-7799957D01*
X14000000Y-7769957D02*
X13970000Y-7799957D01*
X13980357Y-6479957D02*
X14010357Y-6509957D01*
X14010357Y-6479957D02*
X13980357Y-6509957D01*
X13980357Y-8639957D02*
X14010357Y-8669957D01*
X14010357Y-8639957D02*
X13980357Y-8669957D01*
X13990357Y-6919957D02*
X14020357Y-6949957D01*
X14020357Y-6919957D02*
X13990357Y-6949957D01*
X15670000Y-7619957D02*
X15700000Y-7649957D01*
X15700000Y-7619957D02*
X15670000Y-7649957D01*
X15670357Y-6269957D02*
X15700357Y-6299957D01*
X15700357Y-6269957D02*
X15670357Y-6299957D01*
X15670357Y-6779957D02*
X15700357Y-6809957D01*
X15700357Y-6779957D02*
X15670357Y-6809957D01*
X15680357Y-8509957D02*
X15710357Y-8539957D01*
X15710357Y-8509957D02*
X15680357Y-8539957D01*
X16230357Y-10699957D02*
X16260357Y-10729957D01*
X16260357Y-10699957D02*
X16230357Y-10729957D01*
X16290357Y-9699957D02*
X16320357Y-9729957D01*
X16320357Y-9699957D02*
X16290357Y-9729957D01*
X17010357Y-10339957D02*
X17040357Y-10369957D01*
X17040357Y-10339957D02*
X17010357Y-10369957D01*
X17370000Y-7659957D02*
X17400000Y-7689957D01*
X17400000Y-7659957D02*
X17370000Y-7689957D01*
X17370357Y-6419957D02*
X17400357Y-6449957D01*
X17400357Y-6419957D02*
X17370357Y-6449957D01*
X17370357Y-6879957D02*
X17400357Y-6909957D01*
X17400357Y-6879957D02*
X17370357Y-6909957D01*
X17370357Y-8599957D02*
X17400357Y-8629957D01*
X17400357Y-8599957D02*
X17370357Y-8629957D01*
X17730357Y-10889957D02*
X17760357Y-10919957D01*
X17760357Y-10889957D02*
X17730357Y-10919957D01*
X18020357Y-9839957D02*
X18050357Y-9869957D01*
X18050357Y-9839957D02*
X18020357Y-9869957D01*
X18700357Y-10549957D02*
X18730357Y-10579957D01*
X18730357Y-10549957D02*
X18700357Y-10579957D01*
X19070000Y-7979957D02*
X19100000Y-8009957D01*
X19100000Y-7979957D02*
X19070000Y-8009957D01*
X19070000Y-8879957D02*
X19100000Y-8909957D01*
X19100000Y-8879957D02*
X19070000Y-8909957D01*
X19070357Y-6379957D02*
X19100357Y-6409957D01*
X19100357Y-6379957D02*
X19070357Y-6409957D01*
X19070357Y-7079957D02*
X19100357Y-7109957D01*
X19100357Y-7079957D02*
X19070357Y-7109957D01*
X19320357Y-11089957D02*
X19350357Y-11119957D01*
X19350357Y-11089957D02*
X19320357Y-11119957D01*
X19550357Y-6729957D02*
X19580357Y-6759957D01*
X19580357Y-6729957D02*
X19550357Y-6759957D01*
X19730357Y-10009957D02*
X19760357Y-10039957D01*
X19760357Y-10009957D02*
X19730357Y-10039957D01*
X20290357Y-10519957D02*
X20320357Y-10549957D01*
X20320357Y-10519957D02*
X20290357Y-10549957D01*
X20490357Y-6749957D02*
X20520357Y-6779957D01*
X20520357Y-6749957D02*
X20490357Y-6779957D01*
X20650357Y-8009957D02*
X20680357Y-8039957D01*
X20680357Y-8009957D02*
X20650357Y-8039957D01*
X20970357Y-7859957D02*
X21000357Y-7889957D01*
X21000357Y-7859957D02*
X20970357Y-7889957D01*
X21110357Y-11189957D02*
X21140357Y-11219957D01*
X21140357Y-11189957D02*
X21110357Y-11219957D01*
X21250357Y-8079957D02*
X21280357Y-8109957D01*
X21280357Y-8079957D02*
X21250357Y-8109957D01*
X21370357Y-7659957D02*
X21400357Y-7689957D01*
X21400357Y-7659957D02*
X21370357Y-7689957D01*
X21540357Y-7409957D02*
X21570357Y-7439957D01*
X21570357Y-7409957D02*
X21540357Y-7439957D01*
X21680357Y-5559957D02*
X21710357Y-5589957D01*
X21710357Y-5559957D02*
X21680357Y-5589957D01*
X21700357Y-5099957D02*
X21730357Y-5129957D01*
X21730357Y-5099957D02*
X21700357Y-5129957D01*
X21770357Y-7639957D02*
X21800357Y-7669957D01*
X21800357Y-7639957D02*
X21770357Y-7669957D01*
X21910357Y-7429957D02*
X21940357Y-7459957D01*
X21940357Y-7429957D02*
X21910357Y-7459957D01*
X22010357Y-7511630D02*
X22040357Y-7541630D01*
X22040357Y-7511630D02*
X22010357Y-7541630D01*
X22050357Y-6989957D02*
X22080357Y-7019957D01*
X22080357Y-6989957D02*
X22050357Y-7019957D01*
X22080357Y-5939957D02*
X22110357Y-5969957D01*
X22110357Y-5939957D02*
X22080357Y-5969957D01*
X22180357Y-6809957D02*
X22210357Y-6839957D01*
X22210357Y-6809957D02*
X22180357Y-6839957D01*
X22240357Y-7099957D02*
X22270357Y-7129957D01*
X22270357Y-7099957D02*
X22240357Y-7129957D01*
X22290357Y-7829957D02*
X22320357Y-7859957D01*
X22320357Y-7829957D02*
X22290357Y-7859957D01*
X22360357Y-7919957D02*
X22390357Y-7949957D01*
X22390357Y-7919957D02*
X22360357Y-7949957D01*
X22384626Y-6934226D02*
X22414626Y-6964226D01*
X22414626Y-6934226D02*
X22384626Y-6964226D01*
X22390357Y-5899957D02*
X22420357Y-5929957D01*
X22420357Y-5899957D02*
X22390357Y-5929957D01*
X22840357Y-7339957D02*
X22870357Y-7369957D01*
X22870357Y-7339957D02*
X22840357Y-7369957D01*
X22930357Y-7549957D02*
X22960357Y-7579957D01*
X22960357Y-7549957D02*
X22930357Y-7579957D01*
X22980357Y-6499957D02*
X23010357Y-6529957D01*
X23010357Y-6499957D02*
X22980357Y-6529957D01*
X22990357Y-6599957D02*
X23020357Y-6629957D01*
X23020357Y-6599957D02*
X22990357Y-6629957D01*
X23000357Y-6759957D02*
X23030357Y-6789957D01*
X23030357Y-6759957D02*
X23000357Y-6789957D01*
X23020357Y-6679957D02*
X23050357Y-6709957D01*
X23050357Y-6679957D02*
X23020357Y-6709957D01*
X23390357Y-7769957D02*
X23420357Y-7799957D01*
X23420357Y-7769957D02*
X23390357Y-7799957D01*
X23440357Y-5989957D02*
X23470357Y-6019957D01*
X23470357Y-5989957D02*
X23440357Y-6019957D01*
X23643990Y-7129957D02*
X23673990Y-7159957D01*
X23673990Y-7129957D02*
X23643990Y-7159957D01*
X10225000Y-5275000D02*
G75*
G02*
X10175000Y-5275000I-25000J0D01*
G01*
X10175000Y-5275000D02*
G75*
G02*
X10225000Y-5275000I25000J0D01*
G01*
X10225000Y-6475000D02*
G75*
G02*
X10175000Y-6475000I-25000J0D01*
G01*
X10175000Y-6475000D02*
G75*
G02*
X10225000Y-6475000I25000J0D01*
G01*
X10225000Y-6975000D02*
G75*
G02*
X10175000Y-6975000I-25000J0D01*
G01*
X10175000Y-6975000D02*
G75*
G02*
X10225000Y-6975000I25000J0D01*
G01*
X10225000Y-8175000D02*
G75*
G02*
X10175000Y-8175000I-25000J0D01*
G01*
X10175000Y-8175000D02*
G75*
G02*
X10225000Y-8175000I25000J0D01*
G01*
X10225000Y-8675000D02*
G75*
G02*
X10175000Y-8675000I-25000J0D01*
G01*
X10175000Y-8675000D02*
G75*
G02*
X10225000Y-8675000I25000J0D01*
G01*
X10225000Y-9875000D02*
G75*
G02*
X10175000Y-9875000I-25000J0D01*
G01*
X10175000Y-9875000D02*
G75*
G02*
X10225000Y-9875000I25000J0D01*
G01*
X11495000Y-5275000D02*
G75*
G02*
X11445000Y-5275000I-25000J0D01*
G01*
X11445000Y-5275000D02*
G75*
G02*
X11495000Y-5275000I25000J0D01*
G01*
X11495000Y-6475000D02*
G75*
G02*
X11445000Y-6475000I-25000J0D01*
G01*
X11445000Y-6475000D02*
G75*
G02*
X11495000Y-6475000I25000J0D01*
G01*
X11495000Y-6975000D02*
G75*
G02*
X11445000Y-6975000I-25000J0D01*
G01*
X11445000Y-6975000D02*
G75*
G02*
X11495000Y-6975000I25000J0D01*
G01*
X11495000Y-8175000D02*
G75*
G02*
X11445000Y-8175000I-25000J0D01*
G01*
X11445000Y-8175000D02*
G75*
G02*
X11495000Y-8175000I25000J0D01*
G01*
X11495000Y-8675000D02*
G75*
G02*
X11445000Y-8675000I-25000J0D01*
G01*
X11445000Y-8675000D02*
G75*
G02*
X11495000Y-8675000I25000J0D01*
G01*
X11495000Y-9875000D02*
G75*
G02*
X11445000Y-9875000I-25000J0D01*
G01*
X11445000Y-9875000D02*
G75*
G02*
X11495000Y-9875000I25000J0D01*
G01*
X11925000Y-5100000D02*
G75*
G02*
X11875000Y-5100000I-25000J0D01*
G01*
X11875000Y-5100000D02*
G75*
G02*
X11925000Y-5100000I25000J0D01*
G01*
X11925000Y-6300000D02*
G75*
G02*
X11875000Y-6300000I-25000J0D01*
G01*
X11875000Y-6300000D02*
G75*
G02*
X11925000Y-6300000I25000J0D01*
G01*
X11925000Y-6800000D02*
G75*
G02*
X11875000Y-6800000I-25000J0D01*
G01*
X11875000Y-6800000D02*
G75*
G02*
X11925000Y-6800000I25000J0D01*
G01*
X11925000Y-8000000D02*
G75*
G02*
X11875000Y-8000000I-25000J0D01*
G01*
X11875000Y-8000000D02*
G75*
G02*
X11925000Y-8000000I25000J0D01*
G01*
X11925000Y-8500000D02*
G75*
G02*
X11875000Y-8500000I-25000J0D01*
G01*
X11875000Y-8500000D02*
G75*
G02*
X11925000Y-8500000I25000J0D01*
G01*
X11925000Y-9700000D02*
G75*
G02*
X11875000Y-9700000I-25000J0D01*
G01*
X11875000Y-9700000D02*
G75*
G02*
X11925000Y-9700000I25000J0D01*
G01*
X13195000Y-5100000D02*
G75*
G02*
X13145000Y-5100000I-25000J0D01*
G01*
X13145000Y-5100000D02*
G75*
G02*
X13195000Y-5100000I25000J0D01*
G01*
X13195000Y-6300000D02*
G75*
G02*
X13145000Y-6300000I-25000J0D01*
G01*
X13145000Y-6300000D02*
G75*
G02*
X13195000Y-6300000I25000J0D01*
G01*
X13195000Y-6800000D02*
G75*
G02*
X13145000Y-6800000I-25000J0D01*
G01*
X13145000Y-6800000D02*
G75*
G02*
X13195000Y-6800000I25000J0D01*
G01*
X13195000Y-8000000D02*
G75*
G02*
X13145000Y-8000000I-25000J0D01*
G01*
X13145000Y-8000000D02*
G75*
G02*
X13195000Y-8000000I25000J0D01*
G01*
X13195000Y-8500000D02*
G75*
G02*
X13145000Y-8500000I-25000J0D01*
G01*
X13145000Y-8500000D02*
G75*
G02*
X13195000Y-8500000I25000J0D01*
G01*
X13195000Y-9700000D02*
G75*
G02*
X13145000Y-9700000I-25000J0D01*
G01*
X13145000Y-9700000D02*
G75*
G02*
X13195000Y-9700000I25000J0D01*
G01*
X13625000Y-4675000D02*
G75*
G02*
X13575000Y-4675000I-25000J0D01*
G01*
X13575000Y-4675000D02*
G75*
G02*
X13625000Y-4675000I25000J0D01*
G01*
X13625000Y-5875000D02*
G75*
G02*
X13575000Y-5875000I-25000J0D01*
G01*
X13575000Y-5875000D02*
G75*
G02*
X13625000Y-5875000I25000J0D01*
G01*
X13625000Y-6375000D02*
G75*
G02*
X13575000Y-6375000I-25000J0D01*
G01*
X13575000Y-6375000D02*
G75*
G02*
X13625000Y-6375000I25000J0D01*
G01*
X13625000Y-7575000D02*
G75*
G02*
X13575000Y-7575000I-25000J0D01*
G01*
X13575000Y-7575000D02*
G75*
G02*
X13625000Y-7575000I25000J0D01*
G01*
X13625000Y-8075000D02*
G75*
G02*
X13575000Y-8075000I-25000J0D01*
G01*
X13575000Y-8075000D02*
G75*
G02*
X13625000Y-8075000I25000J0D01*
G01*
X13625000Y-9275000D02*
G75*
G02*
X13575000Y-9275000I-25000J0D01*
G01*
X13575000Y-9275000D02*
G75*
G02*
X13625000Y-9275000I25000J0D01*
G01*
X14895000Y-4675000D02*
G75*
G02*
X14845000Y-4675000I-25000J0D01*
G01*
X14845000Y-4675000D02*
G75*
G02*
X14895000Y-4675000I25000J0D01*
G01*
X14895000Y-5875000D02*
G75*
G02*
X14845000Y-5875000I-25000J0D01*
G01*
X14845000Y-5875000D02*
G75*
G02*
X14895000Y-5875000I25000J0D01*
G01*
X14895000Y-6375000D02*
G75*
G02*
X14845000Y-6375000I-25000J0D01*
G01*
X14845000Y-6375000D02*
G75*
G02*
X14895000Y-6375000I25000J0D01*
G01*
X14895000Y-7575000D02*
G75*
G02*
X14845000Y-7575000I-25000J0D01*
G01*
X14845000Y-7575000D02*
G75*
G02*
X14895000Y-7575000I25000J0D01*
G01*
X14895000Y-8075000D02*
G75*
G02*
X14845000Y-8075000I-25000J0D01*
G01*
X14845000Y-8075000D02*
G75*
G02*
X14895000Y-8075000I25000J0D01*
G01*
X14895000Y-9275000D02*
G75*
G02*
X14845000Y-9275000I-25000J0D01*
G01*
X14845000Y-9275000D02*
G75*
G02*
X14895000Y-9275000I25000J0D01*
G01*
X15325000Y-4525000D02*
G75*
G02*
X15275000Y-4525000I-25000J0D01*
G01*
X15275000Y-4525000D02*
G75*
G02*
X15325000Y-4525000I25000J0D01*
G01*
X15325000Y-5725000D02*
G75*
G02*
X15275000Y-5725000I-25000J0D01*
G01*
X15275000Y-5725000D02*
G75*
G02*
X15325000Y-5725000I25000J0D01*
G01*
X15325000Y-6225000D02*
G75*
G02*
X15275000Y-6225000I-25000J0D01*
G01*
X15275000Y-6225000D02*
G75*
G02*
X15325000Y-6225000I25000J0D01*
G01*
X15325000Y-7425000D02*
G75*
G02*
X15275000Y-7425000I-25000J0D01*
G01*
X15275000Y-7425000D02*
G75*
G02*
X15325000Y-7425000I25000J0D01*
G01*
X15325000Y-7925000D02*
G75*
G02*
X15275000Y-7925000I-25000J0D01*
G01*
X15275000Y-7925000D02*
G75*
G02*
X15325000Y-7925000I25000J0D01*
G01*
X15325000Y-9125000D02*
G75*
G02*
X15275000Y-9125000I-25000J0D01*
G01*
X15275000Y-9125000D02*
G75*
G02*
X15325000Y-9125000I25000J0D01*
G01*
X15325000Y-9625000D02*
G75*
G02*
X15275000Y-9625000I-25000J0D01*
G01*
X15275000Y-9625000D02*
G75*
G02*
X15325000Y-9625000I25000J0D01*
G01*
X15325000Y-10825000D02*
G75*
G02*
X15275000Y-10825000I-25000J0D01*
G01*
X15275000Y-10825000D02*
G75*
G02*
X15325000Y-10825000I25000J0D01*
G01*
X16595000Y-4525000D02*
G75*
G02*
X16545000Y-4525000I-25000J0D01*
G01*
X16545000Y-4525000D02*
G75*
G02*
X16595000Y-4525000I25000J0D01*
G01*
X16595000Y-5725000D02*
G75*
G02*
X16545000Y-5725000I-25000J0D01*
G01*
X16545000Y-5725000D02*
G75*
G02*
X16595000Y-5725000I25000J0D01*
G01*
X16595000Y-6225000D02*
G75*
G02*
X16545000Y-6225000I-25000J0D01*
G01*
X16545000Y-6225000D02*
G75*
G02*
X16595000Y-6225000I25000J0D01*
G01*
X16595000Y-7425000D02*
G75*
G02*
X16545000Y-7425000I-25000J0D01*
G01*
X16545000Y-7425000D02*
G75*
G02*
X16595000Y-7425000I25000J0D01*
G01*
X16595000Y-7925000D02*
G75*
G02*
X16545000Y-7925000I-25000J0D01*
G01*
X16545000Y-7925000D02*
G75*
G02*
X16595000Y-7925000I25000J0D01*
G01*
X16595000Y-9125000D02*
G75*
G02*
X16545000Y-9125000I-25000J0D01*
G01*
X16545000Y-9125000D02*
G75*
G02*
X16595000Y-9125000I25000J0D01*
G01*
X16595000Y-9625000D02*
G75*
G02*
X16545000Y-9625000I-25000J0D01*
G01*
X16545000Y-9625000D02*
G75*
G02*
X16595000Y-9625000I25000J0D01*
G01*
X16595000Y-10825000D02*
G75*
G02*
X16545000Y-10825000I-25000J0D01*
G01*
X16545000Y-10825000D02*
G75*
G02*
X16595000Y-10825000I25000J0D01*
G01*
X17025000Y-4650000D02*
G75*
G02*
X16975000Y-4650000I-25000J0D01*
G01*
X16975000Y-4650000D02*
G75*
G02*
X17025000Y-4650000I25000J0D01*
G01*
X17025000Y-5850000D02*
G75*
G02*
X16975000Y-5850000I-25000J0D01*
G01*
X16975000Y-5850000D02*
G75*
G02*
X17025000Y-5850000I25000J0D01*
G01*
X17025000Y-6350000D02*
G75*
G02*
X16975000Y-6350000I-25000J0D01*
G01*
X16975000Y-6350000D02*
G75*
G02*
X17025000Y-6350000I25000J0D01*
G01*
X17025000Y-7550000D02*
G75*
G02*
X16975000Y-7550000I-25000J0D01*
G01*
X16975000Y-7550000D02*
G75*
G02*
X17025000Y-7550000I25000J0D01*
G01*
X17025000Y-8050000D02*
G75*
G02*
X16975000Y-8050000I-25000J0D01*
G01*
X16975000Y-8050000D02*
G75*
G02*
X17025000Y-8050000I25000J0D01*
G01*
X17025000Y-9250000D02*
G75*
G02*
X16975000Y-9250000I-25000J0D01*
G01*
X16975000Y-9250000D02*
G75*
G02*
X17025000Y-9250000I25000J0D01*
G01*
X17025000Y-9750000D02*
G75*
G02*
X16975000Y-9750000I-25000J0D01*
G01*
X16975000Y-9750000D02*
G75*
G02*
X17025000Y-9750000I25000J0D01*
G01*
X17025000Y-10950000D02*
G75*
G02*
X16975000Y-10950000I-25000J0D01*
G01*
X16975000Y-10950000D02*
G75*
G02*
X17025000Y-10950000I25000J0D01*
G01*
X18295000Y-4650000D02*
G75*
G02*
X18245000Y-4650000I-25000J0D01*
G01*
X18245000Y-4650000D02*
G75*
G02*
X18295000Y-4650000I25000J0D01*
G01*
X18295000Y-5850000D02*
G75*
G02*
X18245000Y-5850000I-25000J0D01*
G01*
X18245000Y-5850000D02*
G75*
G02*
X18295000Y-5850000I25000J0D01*
G01*
X18295000Y-6350000D02*
G75*
G02*
X18245000Y-6350000I-25000J0D01*
G01*
X18245000Y-6350000D02*
G75*
G02*
X18295000Y-6350000I25000J0D01*
G01*
X18295000Y-7550000D02*
G75*
G02*
X18245000Y-7550000I-25000J0D01*
G01*
X18245000Y-7550000D02*
G75*
G02*
X18295000Y-7550000I25000J0D01*
G01*
X18295000Y-8050000D02*
G75*
G02*
X18245000Y-8050000I-25000J0D01*
G01*
X18245000Y-8050000D02*
G75*
G02*
X18295000Y-8050000I25000J0D01*
G01*
X18295000Y-9250000D02*
G75*
G02*
X18245000Y-9250000I-25000J0D01*
G01*
X18245000Y-9250000D02*
G75*
G02*
X18295000Y-9250000I25000J0D01*
G01*
X18295000Y-9750000D02*
G75*
G02*
X18245000Y-9750000I-25000J0D01*
G01*
X18245000Y-9750000D02*
G75*
G02*
X18295000Y-9750000I25000J0D01*
G01*
X18295000Y-10950000D02*
G75*
G02*
X18245000Y-10950000I-25000J0D01*
G01*
X18245000Y-10950000D02*
G75*
G02*
X18295000Y-10950000I25000J0D01*
G01*
X18725000Y-4865000D02*
G75*
G02*
X18675000Y-4865000I-25000J0D01*
G01*
X18675000Y-4865000D02*
G75*
G02*
X18725000Y-4865000I25000J0D01*
G01*
X18725000Y-6065000D02*
G75*
G02*
X18675000Y-6065000I-25000J0D01*
G01*
X18675000Y-6065000D02*
G75*
G02*
X18725000Y-6065000I25000J0D01*
G01*
X18725000Y-6565000D02*
G75*
G02*
X18675000Y-6565000I-25000J0D01*
G01*
X18675000Y-6565000D02*
G75*
G02*
X18725000Y-6565000I25000J0D01*
G01*
X18725000Y-7765000D02*
G75*
G02*
X18675000Y-7765000I-25000J0D01*
G01*
X18675000Y-7765000D02*
G75*
G02*
X18725000Y-7765000I25000J0D01*
G01*
X18725000Y-8265000D02*
G75*
G02*
X18675000Y-8265000I-25000J0D01*
G01*
X18675000Y-8265000D02*
G75*
G02*
X18725000Y-8265000I25000J0D01*
G01*
X18725000Y-9465000D02*
G75*
G02*
X18675000Y-9465000I-25000J0D01*
G01*
X18675000Y-9465000D02*
G75*
G02*
X18725000Y-9465000I25000J0D01*
G01*
X18725000Y-9965000D02*
G75*
G02*
X18675000Y-9965000I-25000J0D01*
G01*
X18675000Y-9965000D02*
G75*
G02*
X18725000Y-9965000I25000J0D01*
G01*
X18725000Y-11165000D02*
G75*
G02*
X18675000Y-11165000I-25000J0D01*
G01*
X18675000Y-11165000D02*
G75*
G02*
X18725000Y-11165000I25000J0D01*
G01*
X19995000Y-4865000D02*
G75*
G02*
X19945000Y-4865000I-25000J0D01*
G01*
X19945000Y-4865000D02*
G75*
G02*
X19995000Y-4865000I25000J0D01*
G01*
X19995000Y-6065000D02*
G75*
G02*
X19945000Y-6065000I-25000J0D01*
G01*
X19945000Y-6065000D02*
G75*
G02*
X19995000Y-6065000I25000J0D01*
G01*
X19995000Y-6565000D02*
G75*
G02*
X19945000Y-6565000I-25000J0D01*
G01*
X19945000Y-6565000D02*
G75*
G02*
X19995000Y-6565000I25000J0D01*
G01*
X19995000Y-7765000D02*
G75*
G02*
X19945000Y-7765000I-25000J0D01*
G01*
X19945000Y-7765000D02*
G75*
G02*
X19995000Y-7765000I25000J0D01*
G01*
X19995000Y-8265000D02*
G75*
G02*
X19945000Y-8265000I-25000J0D01*
G01*
X19945000Y-8265000D02*
G75*
G02*
X19995000Y-8265000I25000J0D01*
G01*
X19995000Y-9465000D02*
G75*
G02*
X19945000Y-9465000I-25000J0D01*
G01*
X19945000Y-9465000D02*
G75*
G02*
X19995000Y-9465000I25000J0D01*
G01*
X19995000Y-9965000D02*
G75*
G02*
X19945000Y-9965000I-25000J0D01*
G01*
X19945000Y-9965000D02*
G75*
G02*
X19995000Y-9965000I25000J0D01*
G01*
X19995000Y-11165000D02*
G75*
G02*
X19945000Y-11165000I-25000J0D01*
G01*
X19945000Y-11165000D02*
G75*
G02*
X19995000Y-11165000I25000J0D01*
G01*
X20425000Y-9965000D02*
G75*
G02*
X20375000Y-9965000I-25000J0D01*
G01*
X20375000Y-9965000D02*
G75*
G02*
X20425000Y-9965000I25000J0D01*
G01*
X20425000Y-11165000D02*
G75*
G02*
X20375000Y-11165000I-25000J0D01*
G01*
X20375000Y-11165000D02*
G75*
G02*
X20425000Y-11165000I25000J0D01*
G01*
X21695000Y-9965000D02*
G75*
G02*
X21645000Y-9965000I-25000J0D01*
G01*
X21645000Y-9965000D02*
G75*
G02*
X21695000Y-9965000I25000J0D01*
G01*
X21695000Y-11165000D02*
G75*
G02*
X21645000Y-11165000I-25000J0D01*
G01*
X21645000Y-11165000D02*
G75*
G02*
X21695000Y-11165000I25000J0D01*
G01*
D12*
X21093000Y-4814390D02*
X21093000Y-4923610D01*
X21038390Y-4869000D02*
X21147610Y-4869000D01*
X21093000Y-5068390D02*
X21093000Y-5177610D01*
X21038390Y-5123000D02*
X21147610Y-5123000D01*
X21093000Y-5322390D02*
X21093000Y-5431610D01*
X21038390Y-5377000D02*
X21147610Y-5377000D01*
X21093000Y-5576390D02*
X21093000Y-5685610D01*
X21038390Y-5631000D02*
X21147610Y-5631000D01*
X21093000Y-5830390D02*
X21093000Y-5939610D01*
X21038390Y-5885000D02*
X21147610Y-5885000D01*
X21093000Y-6084390D02*
X21093000Y-6193610D01*
X21038390Y-6139000D02*
X21147610Y-6139000D01*
X21093000Y-6338390D02*
X21093000Y-6447610D01*
X21038390Y-6393000D02*
X21147610Y-6393000D01*
X21093000Y-6592390D02*
X21093000Y-6701610D01*
X21038390Y-6647000D02*
X21147610Y-6647000D01*
X21093000Y-6846390D02*
X21093000Y-6955610D01*
X21038390Y-6901000D02*
X21147610Y-6901000D01*
X21093000Y-7100390D02*
X21093000Y-7209610D01*
X21038390Y-7155000D02*
X21147610Y-7155000D01*
X21093000Y-7354390D02*
X21093000Y-7463610D01*
X21038390Y-7409000D02*
X21147610Y-7409000D01*
X21093000Y-7608390D02*
X21093000Y-7717610D01*
X21038390Y-7663000D02*
X21147610Y-7663000D01*
X21347000Y-7100390D02*
X21347000Y-7209610D01*
X21292390Y-7155000D02*
X21401610Y-7155000D01*
X21601000Y-7100390D02*
X21601000Y-7209610D01*
X21546390Y-7155000D02*
X21655610Y-7155000D01*
X21855000Y-7100390D02*
X21855000Y-7209610D01*
X21800390Y-7155000D02*
X21909610Y-7155000D01*
X22617000Y-4814390D02*
X22617000Y-4923610D01*
X22562390Y-4869000D02*
X22671610Y-4869000D01*
X22617000Y-5068390D02*
X22617000Y-5177610D01*
X22562390Y-5123000D02*
X22671610Y-5123000D01*
X22617000Y-5322390D02*
X22617000Y-5431610D01*
X22562390Y-5377000D02*
X22671610Y-5377000D01*
X22617000Y-5576390D02*
X22617000Y-5685610D01*
X22562390Y-5631000D02*
X22671610Y-5631000D01*
X22617000Y-5830390D02*
X22617000Y-5939610D01*
X22562390Y-5885000D02*
X22671610Y-5885000D01*
X22617000Y-6084390D02*
X22617000Y-6193610D01*
X22562390Y-6139000D02*
X22671610Y-6139000D01*
X22617000Y-6338390D02*
X22617000Y-6447610D01*
X22562390Y-6393000D02*
X22671610Y-6393000D01*
X22617000Y-6592390D02*
X22617000Y-6701610D01*
X22562390Y-6647000D02*
X22671610Y-6647000D01*
X22617000Y-6846390D02*
X22617000Y-6955610D01*
X22562390Y-6901000D02*
X22671610Y-6901000D01*
X22617000Y-7100390D02*
X22617000Y-7209610D01*
X22562390Y-7155000D02*
X22671610Y-7155000D01*
X22617000Y-7354390D02*
X22617000Y-7463610D01*
X22562390Y-7409000D02*
X22671610Y-7409000D01*
X22617000Y-7608390D02*
X22617000Y-7717610D01*
X22562390Y-7663000D02*
X22671610Y-7663000D01*
D10*
X10036130Y-11936088D02*
X10036130Y-11736088D01*
X10036130Y-11736088D02*
X10083749Y-11736088D01*
X10083749Y-11736088D02*
X10112320Y-11745612D01*
X10112320Y-11745612D02*
X10131368Y-11764660D01*
X10131368Y-11764660D02*
X10140891Y-11783707D01*
X10140891Y-11783707D02*
X10150415Y-11821802D01*
X10150415Y-11821802D02*
X10150415Y-11850374D01*
X10150415Y-11850374D02*
X10140891Y-11888469D01*
X10140891Y-11888469D02*
X10131368Y-11907517D01*
X10131368Y-11907517D02*
X10112320Y-11926564D01*
X10112320Y-11926564D02*
X10083749Y-11936088D01*
X10083749Y-11936088D02*
X10036130Y-11936088D01*
X10236130Y-11936088D02*
X10236130Y-11802755D01*
X10236130Y-11840850D02*
X10245653Y-11821802D01*
X10245653Y-11821802D02*
X10255177Y-11812279D01*
X10255177Y-11812279D02*
X10274225Y-11802755D01*
X10274225Y-11802755D02*
X10293272Y-11802755D01*
X10359939Y-11936088D02*
X10359939Y-11802755D01*
X10359939Y-11736088D02*
X10350415Y-11745612D01*
X10350415Y-11745612D02*
X10359939Y-11755136D01*
X10359939Y-11755136D02*
X10369463Y-11745612D01*
X10369463Y-11745612D02*
X10359939Y-11736088D01*
X10359939Y-11736088D02*
X10359939Y-11755136D01*
X10483749Y-11936088D02*
X10464701Y-11926564D01*
X10464701Y-11926564D02*
X10455177Y-11907517D01*
X10455177Y-11907517D02*
X10455177Y-11736088D01*
X10588510Y-11936088D02*
X10569463Y-11926564D01*
X10569463Y-11926564D02*
X10559939Y-11907517D01*
X10559939Y-11907517D02*
X10559939Y-11736088D01*
X10817082Y-11936088D02*
X10817082Y-11736088D01*
X10817082Y-11736088D02*
X10883749Y-11878945D01*
X10883749Y-11878945D02*
X10950415Y-11736088D01*
X10950415Y-11736088D02*
X10950415Y-11936088D01*
X11131368Y-11936088D02*
X11131368Y-11831326D01*
X11131368Y-11831326D02*
X11121844Y-11812279D01*
X11121844Y-11812279D02*
X11102796Y-11802755D01*
X11102796Y-11802755D02*
X11064701Y-11802755D01*
X11064701Y-11802755D02*
X11045653Y-11812279D01*
X11131368Y-11926564D02*
X11112320Y-11936088D01*
X11112320Y-11936088D02*
X11064701Y-11936088D01*
X11064701Y-11936088D02*
X11045653Y-11926564D01*
X11045653Y-11926564D02*
X11036130Y-11907517D01*
X11036130Y-11907517D02*
X11036130Y-11888469D01*
X11036130Y-11888469D02*
X11045653Y-11869421D01*
X11045653Y-11869421D02*
X11064701Y-11859898D01*
X11064701Y-11859898D02*
X11112320Y-11859898D01*
X11112320Y-11859898D02*
X11131368Y-11850374D01*
X11226606Y-11802755D02*
X11226606Y-12002755D01*
X11226606Y-11812279D02*
X11245653Y-11802755D01*
X11245653Y-11802755D02*
X11283749Y-11802755D01*
X11283749Y-11802755D02*
X11302796Y-11812279D01*
X11302796Y-11812279D02*
X11312320Y-11821802D01*
X11312320Y-11821802D02*
X11321844Y-11840850D01*
X11321844Y-11840850D02*
X11321844Y-11897993D01*
X11321844Y-11897993D02*
X11312320Y-11917040D01*
X11312320Y-11917040D02*
X11302796Y-11926564D01*
X11302796Y-11926564D02*
X11283749Y-11936088D01*
X11283749Y-11936088D02*
X11245653Y-11936088D01*
X11245653Y-11936088D02*
X11226606Y-11926564D01*
X11407558Y-11917040D02*
X11417082Y-11926564D01*
X11417082Y-11926564D02*
X11407558Y-11936088D01*
X11407558Y-11936088D02*
X11398034Y-11926564D01*
X11398034Y-11926564D02*
X11407558Y-11917040D01*
X11407558Y-11917040D02*
X11407558Y-11936088D01*
X11407558Y-11812279D02*
X11417082Y-11821802D01*
X11417082Y-11821802D02*
X11407558Y-11831326D01*
X11407558Y-11831326D02*
X11398034Y-11821802D01*
X11398034Y-11821802D02*
X11407558Y-11812279D01*
X11407558Y-11812279D02*
X11407558Y-11831326D01*
D11*
X9745353Y-12249604D02*
X9775353Y-12279604D01*
X9775353Y-12249604D02*
X9745353Y-12279604D01*
D10*
X10074225Y-12156088D02*
X10093272Y-12156088D01*
X10093272Y-12156088D02*
X10112320Y-12165612D01*
X10112320Y-12165612D02*
X10121844Y-12175136D01*
X10121844Y-12175136D02*
X10131368Y-12194183D01*
X10131368Y-12194183D02*
X10140891Y-12232279D01*
X10140891Y-12232279D02*
X10140891Y-12279898D01*
X10140891Y-12279898D02*
X10131368Y-12317993D01*
X10131368Y-12317993D02*
X10121844Y-12337040D01*
X10121844Y-12337040D02*
X10112320Y-12346564D01*
X10112320Y-12346564D02*
X10093272Y-12356088D01*
X10093272Y-12356088D02*
X10074225Y-12356088D01*
X10074225Y-12356088D02*
X10055177Y-12346564D01*
X10055177Y-12346564D02*
X10045653Y-12337040D01*
X10045653Y-12337040D02*
X10036130Y-12317993D01*
X10036130Y-12317993D02*
X10026606Y-12279898D01*
X10026606Y-12279898D02*
X10026606Y-12232279D01*
X10026606Y-12232279D02*
X10036130Y-12194183D01*
X10036130Y-12194183D02*
X10045653Y-12175136D01*
X10045653Y-12175136D02*
X10055177Y-12165612D01*
X10055177Y-12165612D02*
X10074225Y-12156088D01*
X10226606Y-12337040D02*
X10236130Y-12346564D01*
X10236130Y-12346564D02*
X10226606Y-12356088D01*
X10226606Y-12356088D02*
X10217082Y-12346564D01*
X10217082Y-12346564D02*
X10226606Y-12337040D01*
X10226606Y-12337040D02*
X10226606Y-12356088D01*
X10302796Y-12156088D02*
X10426606Y-12156088D01*
X10426606Y-12156088D02*
X10359939Y-12232279D01*
X10359939Y-12232279D02*
X10388511Y-12232279D01*
X10388511Y-12232279D02*
X10407558Y-12241802D01*
X10407558Y-12241802D02*
X10417082Y-12251326D01*
X10417082Y-12251326D02*
X10426606Y-12270374D01*
X10426606Y-12270374D02*
X10426606Y-12317993D01*
X10426606Y-12317993D02*
X10417082Y-12337040D01*
X10417082Y-12337040D02*
X10407558Y-12346564D01*
X10407558Y-12346564D02*
X10388511Y-12356088D01*
X10388511Y-12356088D02*
X10331368Y-12356088D01*
X10331368Y-12356088D02*
X10312320Y-12346564D01*
X10312320Y-12346564D02*
X10302796Y-12337040D01*
X10550415Y-12156088D02*
X10569463Y-12156088D01*
X10569463Y-12156088D02*
X10588511Y-12165612D01*
X10588511Y-12165612D02*
X10598034Y-12175136D01*
X10598034Y-12175136D02*
X10607558Y-12194183D01*
X10607558Y-12194183D02*
X10617082Y-12232279D01*
X10617082Y-12232279D02*
X10617082Y-12279898D01*
X10617082Y-12279898D02*
X10607558Y-12317993D01*
X10607558Y-12317993D02*
X10598034Y-12337040D01*
X10598034Y-12337040D02*
X10588511Y-12346564D01*
X10588511Y-12346564D02*
X10569463Y-12356088D01*
X10569463Y-12356088D02*
X10550415Y-12356088D01*
X10550415Y-12356088D02*
X10531368Y-12346564D01*
X10531368Y-12346564D02*
X10521844Y-12337040D01*
X10521844Y-12337040D02*
X10512320Y-12317993D01*
X10512320Y-12317993D02*
X10502796Y-12279898D01*
X10502796Y-12279898D02*
X10502796Y-12232279D01*
X10502796Y-12232279D02*
X10512320Y-12194183D01*
X10512320Y-12194183D02*
X10521844Y-12175136D01*
X10521844Y-12175136D02*
X10531368Y-12165612D01*
X10531368Y-12165612D02*
X10550415Y-12156088D01*
X10740891Y-12156088D02*
X10759939Y-12156088D01*
X10759939Y-12156088D02*
X10778987Y-12165612D01*
X10778987Y-12165612D02*
X10788511Y-12175136D01*
X10788511Y-12175136D02*
X10798034Y-12194183D01*
X10798034Y-12194183D02*
X10807558Y-12232279D01*
X10807558Y-12232279D02*
X10807558Y-12279898D01*
X10807558Y-12279898D02*
X10798034Y-12317993D01*
X10798034Y-12317993D02*
X10788511Y-12337040D01*
X10788511Y-12337040D02*
X10778987Y-12346564D01*
X10778987Y-12346564D02*
X10759939Y-12356088D01*
X10759939Y-12356088D02*
X10740891Y-12356088D01*
X10740891Y-12356088D02*
X10721844Y-12346564D01*
X10721844Y-12346564D02*
X10712320Y-12337040D01*
X10712320Y-12337040D02*
X10702796Y-12317993D01*
X10702796Y-12317993D02*
X10693272Y-12279898D01*
X10693272Y-12279898D02*
X10693272Y-12232279D01*
X10693272Y-12232279D02*
X10702796Y-12194183D01*
X10702796Y-12194183D02*
X10712320Y-12175136D01*
X10712320Y-12175136D02*
X10721844Y-12165612D01*
X10721844Y-12165612D02*
X10740891Y-12156088D01*
X10893272Y-12356088D02*
X10893272Y-12222755D01*
X10893272Y-12241802D02*
X10902796Y-12232279D01*
X10902796Y-12232279D02*
X10921844Y-12222755D01*
X10921844Y-12222755D02*
X10950415Y-12222755D01*
X10950415Y-12222755D02*
X10969463Y-12232279D01*
X10969463Y-12232279D02*
X10978987Y-12251326D01*
X10978987Y-12251326D02*
X10978987Y-12356088D01*
X10978987Y-12251326D02*
X10988511Y-12232279D01*
X10988511Y-12232279D02*
X11007558Y-12222755D01*
X11007558Y-12222755D02*
X11036130Y-12222755D01*
X11036130Y-12222755D02*
X11055177Y-12232279D01*
X11055177Y-12232279D02*
X11064701Y-12251326D01*
X11064701Y-12251326D02*
X11064701Y-12356088D01*
X11159939Y-12356088D02*
X11159939Y-12222755D01*
X11159939Y-12241802D02*
X11169463Y-12232279D01*
X11169463Y-12232279D02*
X11188510Y-12222755D01*
X11188510Y-12222755D02*
X11217082Y-12222755D01*
X11217082Y-12222755D02*
X11236130Y-12232279D01*
X11236130Y-12232279D02*
X11245653Y-12251326D01*
X11245653Y-12251326D02*
X11245653Y-12356088D01*
X11245653Y-12251326D02*
X11255177Y-12232279D01*
X11255177Y-12232279D02*
X11274225Y-12222755D01*
X11274225Y-12222755D02*
X11302796Y-12222755D01*
X11302796Y-12222755D02*
X11321844Y-12232279D01*
X11321844Y-12232279D02*
X11331368Y-12251326D01*
X11331368Y-12251326D02*
X11331368Y-12356088D01*
X11721844Y-12146564D02*
X11550415Y-12403707D01*
X11978987Y-12156088D02*
X11998034Y-12156088D01*
X11998034Y-12156088D02*
X12017082Y-12165612D01*
X12017082Y-12165612D02*
X12026606Y-12175136D01*
X12026606Y-12175136D02*
X12036130Y-12194183D01*
X12036130Y-12194183D02*
X12045653Y-12232279D01*
X12045653Y-12232279D02*
X12045653Y-12279898D01*
X12045653Y-12279898D02*
X12036130Y-12317993D01*
X12036130Y-12317993D02*
X12026606Y-12337040D01*
X12026606Y-12337040D02*
X12017082Y-12346564D01*
X12017082Y-12346564D02*
X11998034Y-12356088D01*
X11998034Y-12356088D02*
X11978987Y-12356088D01*
X11978987Y-12356088D02*
X11959939Y-12346564D01*
X11959939Y-12346564D02*
X11950415Y-12337040D01*
X11950415Y-12337040D02*
X11940892Y-12317993D01*
X11940892Y-12317993D02*
X11931368Y-12279898D01*
X11931368Y-12279898D02*
X11931368Y-12232279D01*
X11931368Y-12232279D02*
X11940892Y-12194183D01*
X11940892Y-12194183D02*
X11950415Y-12175136D01*
X11950415Y-12175136D02*
X11959939Y-12165612D01*
X11959939Y-12165612D02*
X11978987Y-12156088D01*
X12131368Y-12337040D02*
X12140892Y-12346564D01*
X12140892Y-12346564D02*
X12131368Y-12356088D01*
X12131368Y-12356088D02*
X12121844Y-12346564D01*
X12121844Y-12346564D02*
X12131368Y-12337040D01*
X12131368Y-12337040D02*
X12131368Y-12356088D01*
X12264701Y-12156088D02*
X12283749Y-12156088D01*
X12283749Y-12156088D02*
X12302796Y-12165612D01*
X12302796Y-12165612D02*
X12312320Y-12175136D01*
X12312320Y-12175136D02*
X12321844Y-12194183D01*
X12321844Y-12194183D02*
X12331368Y-12232279D01*
X12331368Y-12232279D02*
X12331368Y-12279898D01*
X12331368Y-12279898D02*
X12321844Y-12317993D01*
X12321844Y-12317993D02*
X12312320Y-12337040D01*
X12312320Y-12337040D02*
X12302796Y-12346564D01*
X12302796Y-12346564D02*
X12283749Y-12356088D01*
X12283749Y-12356088D02*
X12264701Y-12356088D01*
X12264701Y-12356088D02*
X12245653Y-12346564D01*
X12245653Y-12346564D02*
X12236130Y-12337040D01*
X12236130Y-12337040D02*
X12226606Y-12317993D01*
X12226606Y-12317993D02*
X12217082Y-12279898D01*
X12217082Y-12279898D02*
X12217082Y-12232279D01*
X12217082Y-12232279D02*
X12226606Y-12194183D01*
X12226606Y-12194183D02*
X12236130Y-12175136D01*
X12236130Y-12175136D02*
X12245653Y-12165612D01*
X12245653Y-12165612D02*
X12264701Y-12156088D01*
X12521844Y-12356088D02*
X12407558Y-12356088D01*
X12464701Y-12356088D02*
X12464701Y-12156088D01*
X12464701Y-12156088D02*
X12445653Y-12184660D01*
X12445653Y-12184660D02*
X12426606Y-12203707D01*
X12426606Y-12203707D02*
X12407558Y-12213231D01*
X12712320Y-12356088D02*
X12598034Y-12356088D01*
X12655177Y-12356088D02*
X12655177Y-12156088D01*
X12655177Y-12156088D02*
X12636130Y-12184660D01*
X12636130Y-12184660D02*
X12617082Y-12203707D01*
X12617082Y-12203707D02*
X12598034Y-12213231D01*
X12826606Y-12241802D02*
X12807558Y-12232279D01*
X12807558Y-12232279D02*
X12798034Y-12222755D01*
X12798034Y-12222755D02*
X12788511Y-12203707D01*
X12788511Y-12203707D02*
X12788511Y-12194183D01*
X12788511Y-12194183D02*
X12798034Y-12175136D01*
X12798034Y-12175136D02*
X12807558Y-12165612D01*
X12807558Y-12165612D02*
X12826606Y-12156088D01*
X12826606Y-12156088D02*
X12864701Y-12156088D01*
X12864701Y-12156088D02*
X12883749Y-12165612D01*
X12883749Y-12165612D02*
X12893273Y-12175136D01*
X12893273Y-12175136D02*
X12902796Y-12194183D01*
X12902796Y-12194183D02*
X12902796Y-12203707D01*
X12902796Y-12203707D02*
X12893273Y-12222755D01*
X12893273Y-12222755D02*
X12883749Y-12232279D01*
X12883749Y-12232279D02*
X12864701Y-12241802D01*
X12864701Y-12241802D02*
X12826606Y-12241802D01*
X12826606Y-12241802D02*
X12807558Y-12251326D01*
X12807558Y-12251326D02*
X12798034Y-12260850D01*
X12798034Y-12260850D02*
X12788511Y-12279898D01*
X12788511Y-12279898D02*
X12788511Y-12317993D01*
X12788511Y-12317993D02*
X12798034Y-12337040D01*
X12798034Y-12337040D02*
X12807558Y-12346564D01*
X12807558Y-12346564D02*
X12826606Y-12356088D01*
X12826606Y-12356088D02*
X12864701Y-12356088D01*
X12864701Y-12356088D02*
X12883749Y-12346564D01*
X12883749Y-12346564D02*
X12893273Y-12337040D01*
X12893273Y-12337040D02*
X12902796Y-12317993D01*
X12902796Y-12317993D02*
X12902796Y-12279898D01*
X12902796Y-12279898D02*
X12893273Y-12260850D01*
X12893273Y-12260850D02*
X12883749Y-12251326D01*
X12883749Y-12251326D02*
X12864701Y-12241802D01*
X12978987Y-12156088D02*
X12978987Y-12194183D01*
X13055177Y-12156088D02*
X13055177Y-12194183D01*
X13350416Y-12432279D02*
X13340892Y-12422755D01*
X13340892Y-12422755D02*
X13321844Y-12394183D01*
X13321844Y-12394183D02*
X13312320Y-12375136D01*
X13312320Y-12375136D02*
X13302796Y-12346564D01*
X13302796Y-12346564D02*
X13293273Y-12298945D01*
X13293273Y-12298945D02*
X13293273Y-12260850D01*
X13293273Y-12260850D02*
X13302796Y-12213231D01*
X13302796Y-12213231D02*
X13312320Y-12184660D01*
X13312320Y-12184660D02*
X13321844Y-12165612D01*
X13321844Y-12165612D02*
X13340892Y-12137040D01*
X13340892Y-12137040D02*
X13350416Y-12127517D01*
X13512320Y-12156088D02*
X13474225Y-12156088D01*
X13474225Y-12156088D02*
X13455177Y-12165612D01*
X13455177Y-12165612D02*
X13445654Y-12175136D01*
X13445654Y-12175136D02*
X13426606Y-12203707D01*
X13426606Y-12203707D02*
X13417082Y-12241802D01*
X13417082Y-12241802D02*
X13417082Y-12317993D01*
X13417082Y-12317993D02*
X13426606Y-12337040D01*
X13426606Y-12337040D02*
X13436130Y-12346564D01*
X13436130Y-12346564D02*
X13455177Y-12356088D01*
X13455177Y-12356088D02*
X13493273Y-12356088D01*
X13493273Y-12356088D02*
X13512320Y-12346564D01*
X13512320Y-12346564D02*
X13521844Y-12337040D01*
X13521844Y-12337040D02*
X13531368Y-12317993D01*
X13531368Y-12317993D02*
X13531368Y-12270374D01*
X13531368Y-12270374D02*
X13521844Y-12251326D01*
X13521844Y-12251326D02*
X13512320Y-12241802D01*
X13512320Y-12241802D02*
X13493273Y-12232279D01*
X13493273Y-12232279D02*
X13455177Y-12232279D01*
X13455177Y-12232279D02*
X13436130Y-12241802D01*
X13436130Y-12241802D02*
X13426606Y-12251326D01*
X13426606Y-12251326D02*
X13417082Y-12270374D01*
X13721844Y-12356088D02*
X13607558Y-12356088D01*
X13664701Y-12356088D02*
X13664701Y-12156088D01*
X13664701Y-12156088D02*
X13645654Y-12184660D01*
X13645654Y-12184660D02*
X13626606Y-12203707D01*
X13626606Y-12203707D02*
X13607558Y-12213231D01*
X13959939Y-12356088D02*
X13959939Y-12156088D01*
X14045654Y-12356088D02*
X14045654Y-12251326D01*
X14045654Y-12251326D02*
X14036130Y-12232279D01*
X14036130Y-12232279D02*
X14017082Y-12222755D01*
X14017082Y-12222755D02*
X13988511Y-12222755D01*
X13988511Y-12222755D02*
X13969463Y-12232279D01*
X13969463Y-12232279D02*
X13959939Y-12241802D01*
X14169463Y-12356088D02*
X14150416Y-12346564D01*
X14150416Y-12346564D02*
X14140892Y-12337040D01*
X14140892Y-12337040D02*
X14131368Y-12317993D01*
X14131368Y-12317993D02*
X14131368Y-12260850D01*
X14131368Y-12260850D02*
X14140892Y-12241802D01*
X14140892Y-12241802D02*
X14150416Y-12232279D01*
X14150416Y-12232279D02*
X14169463Y-12222755D01*
X14169463Y-12222755D02*
X14198035Y-12222755D01*
X14198035Y-12222755D02*
X14217082Y-12232279D01*
X14217082Y-12232279D02*
X14226606Y-12241802D01*
X14226606Y-12241802D02*
X14236130Y-12260850D01*
X14236130Y-12260850D02*
X14236130Y-12317993D01*
X14236130Y-12317993D02*
X14226606Y-12337040D01*
X14226606Y-12337040D02*
X14217082Y-12346564D01*
X14217082Y-12346564D02*
X14198035Y-12356088D01*
X14198035Y-12356088D02*
X14169463Y-12356088D01*
X14350416Y-12356088D02*
X14331368Y-12346564D01*
X14331368Y-12346564D02*
X14321844Y-12327517D01*
X14321844Y-12327517D02*
X14321844Y-12156088D01*
X14502797Y-12346564D02*
X14483749Y-12356088D01*
X14483749Y-12356088D02*
X14445654Y-12356088D01*
X14445654Y-12356088D02*
X14426606Y-12346564D01*
X14426606Y-12346564D02*
X14417082Y-12327517D01*
X14417082Y-12327517D02*
X14417082Y-12251326D01*
X14417082Y-12251326D02*
X14426606Y-12232279D01*
X14426606Y-12232279D02*
X14445654Y-12222755D01*
X14445654Y-12222755D02*
X14483749Y-12222755D01*
X14483749Y-12222755D02*
X14502797Y-12232279D01*
X14502797Y-12232279D02*
X14512320Y-12251326D01*
X14512320Y-12251326D02*
X14512320Y-12270374D01*
X14512320Y-12270374D02*
X14417082Y-12289421D01*
X14588511Y-12346564D02*
X14607558Y-12356088D01*
X14607558Y-12356088D02*
X14645654Y-12356088D01*
X14645654Y-12356088D02*
X14664701Y-12346564D01*
X14664701Y-12346564D02*
X14674225Y-12327517D01*
X14674225Y-12327517D02*
X14674225Y-12317993D01*
X14674225Y-12317993D02*
X14664701Y-12298945D01*
X14664701Y-12298945D02*
X14645654Y-12289421D01*
X14645654Y-12289421D02*
X14617082Y-12289421D01*
X14617082Y-12289421D02*
X14598035Y-12279898D01*
X14598035Y-12279898D02*
X14588511Y-12260850D01*
X14588511Y-12260850D02*
X14588511Y-12251326D01*
X14588511Y-12251326D02*
X14598035Y-12232279D01*
X14598035Y-12232279D02*
X14617082Y-12222755D01*
X14617082Y-12222755D02*
X14645654Y-12222755D01*
X14645654Y-12222755D02*
X14664701Y-12232279D01*
X14740892Y-12432279D02*
X14750416Y-12422755D01*
X14750416Y-12422755D02*
X14769463Y-12394183D01*
X14769463Y-12394183D02*
X14778987Y-12375136D01*
X14778987Y-12375136D02*
X14788511Y-12346564D01*
X14788511Y-12346564D02*
X14798035Y-12298945D01*
X14798035Y-12298945D02*
X14798035Y-12260850D01*
X14798035Y-12260850D02*
X14788511Y-12213231D01*
X14788511Y-12213231D02*
X14778987Y-12184660D01*
X14778987Y-12184660D02*
X14769463Y-12165612D01*
X14769463Y-12165612D02*
X14750416Y-12137040D01*
X14750416Y-12137040D02*
X14740892Y-12127517D01*
D11*
X9775353Y-12528604D02*
G75*
G02*
X9725353Y-12528604I-25000J0D01*
G01*
X9725353Y-12528604D02*
G75*
G02*
X9775353Y-12528604I25000J0D01*
G01*
D10*
X10074225Y-12420088D02*
X10093272Y-12420088D01*
X10093272Y-12420088D02*
X10112320Y-12429612D01*
X10112320Y-12429612D02*
X10121844Y-12439136D01*
X10121844Y-12439136D02*
X10131368Y-12458183D01*
X10131368Y-12458183D02*
X10140891Y-12496279D01*
X10140891Y-12496279D02*
X10140891Y-12543898D01*
X10140891Y-12543898D02*
X10131368Y-12581993D01*
X10131368Y-12581993D02*
X10121844Y-12601040D01*
X10121844Y-12601040D02*
X10112320Y-12610564D01*
X10112320Y-12610564D02*
X10093272Y-12620088D01*
X10093272Y-12620088D02*
X10074225Y-12620088D01*
X10074225Y-12620088D02*
X10055177Y-12610564D01*
X10055177Y-12610564D02*
X10045653Y-12601040D01*
X10045653Y-12601040D02*
X10036130Y-12581993D01*
X10036130Y-12581993D02*
X10026606Y-12543898D01*
X10026606Y-12543898D02*
X10026606Y-12496279D01*
X10026606Y-12496279D02*
X10036130Y-12458183D01*
X10036130Y-12458183D02*
X10045653Y-12439136D01*
X10045653Y-12439136D02*
X10055177Y-12429612D01*
X10055177Y-12429612D02*
X10074225Y-12420088D01*
X10226606Y-12601040D02*
X10236130Y-12610564D01*
X10236130Y-12610564D02*
X10226606Y-12620088D01*
X10226606Y-12620088D02*
X10217082Y-12610564D01*
X10217082Y-12610564D02*
X10226606Y-12601040D01*
X10226606Y-12601040D02*
X10226606Y-12620088D01*
X10417082Y-12420088D02*
X10321844Y-12420088D01*
X10321844Y-12420088D02*
X10312320Y-12515326D01*
X10312320Y-12515326D02*
X10321844Y-12505802D01*
X10321844Y-12505802D02*
X10340891Y-12496279D01*
X10340891Y-12496279D02*
X10388511Y-12496279D01*
X10388511Y-12496279D02*
X10407558Y-12505802D01*
X10407558Y-12505802D02*
X10417082Y-12515326D01*
X10417082Y-12515326D02*
X10426606Y-12534374D01*
X10426606Y-12534374D02*
X10426606Y-12581993D01*
X10426606Y-12581993D02*
X10417082Y-12601040D01*
X10417082Y-12601040D02*
X10407558Y-12610564D01*
X10407558Y-12610564D02*
X10388511Y-12620088D01*
X10388511Y-12620088D02*
X10340891Y-12620088D01*
X10340891Y-12620088D02*
X10321844Y-12610564D01*
X10321844Y-12610564D02*
X10312320Y-12601040D01*
X10550415Y-12420088D02*
X10569463Y-12420088D01*
X10569463Y-12420088D02*
X10588511Y-12429612D01*
X10588511Y-12429612D02*
X10598034Y-12439136D01*
X10598034Y-12439136D02*
X10607558Y-12458183D01*
X10607558Y-12458183D02*
X10617082Y-12496279D01*
X10617082Y-12496279D02*
X10617082Y-12543898D01*
X10617082Y-12543898D02*
X10607558Y-12581993D01*
X10607558Y-12581993D02*
X10598034Y-12601040D01*
X10598034Y-12601040D02*
X10588511Y-12610564D01*
X10588511Y-12610564D02*
X10569463Y-12620088D01*
X10569463Y-12620088D02*
X10550415Y-12620088D01*
X10550415Y-12620088D02*
X10531368Y-12610564D01*
X10531368Y-12610564D02*
X10521844Y-12601040D01*
X10521844Y-12601040D02*
X10512320Y-12581993D01*
X10512320Y-12581993D02*
X10502796Y-12543898D01*
X10502796Y-12543898D02*
X10502796Y-12496279D01*
X10502796Y-12496279D02*
X10512320Y-12458183D01*
X10512320Y-12458183D02*
X10521844Y-12439136D01*
X10521844Y-12439136D02*
X10531368Y-12429612D01*
X10531368Y-12429612D02*
X10550415Y-12420088D01*
X10740891Y-12420088D02*
X10759939Y-12420088D01*
X10759939Y-12420088D02*
X10778987Y-12429612D01*
X10778987Y-12429612D02*
X10788511Y-12439136D01*
X10788511Y-12439136D02*
X10798034Y-12458183D01*
X10798034Y-12458183D02*
X10807558Y-12496279D01*
X10807558Y-12496279D02*
X10807558Y-12543898D01*
X10807558Y-12543898D02*
X10798034Y-12581993D01*
X10798034Y-12581993D02*
X10788511Y-12601040D01*
X10788511Y-12601040D02*
X10778987Y-12610564D01*
X10778987Y-12610564D02*
X10759939Y-12620088D01*
X10759939Y-12620088D02*
X10740891Y-12620088D01*
X10740891Y-12620088D02*
X10721844Y-12610564D01*
X10721844Y-12610564D02*
X10712320Y-12601040D01*
X10712320Y-12601040D02*
X10702796Y-12581993D01*
X10702796Y-12581993D02*
X10693272Y-12543898D01*
X10693272Y-12543898D02*
X10693272Y-12496279D01*
X10693272Y-12496279D02*
X10702796Y-12458183D01*
X10702796Y-12458183D02*
X10712320Y-12439136D01*
X10712320Y-12439136D02*
X10721844Y-12429612D01*
X10721844Y-12429612D02*
X10740891Y-12420088D01*
X10893272Y-12620088D02*
X10893272Y-12486755D01*
X10893272Y-12505802D02*
X10902796Y-12496279D01*
X10902796Y-12496279D02*
X10921844Y-12486755D01*
X10921844Y-12486755D02*
X10950415Y-12486755D01*
X10950415Y-12486755D02*
X10969463Y-12496279D01*
X10969463Y-12496279D02*
X10978987Y-12515326D01*
X10978987Y-12515326D02*
X10978987Y-12620088D01*
X10978987Y-12515326D02*
X10988511Y-12496279D01*
X10988511Y-12496279D02*
X11007558Y-12486755D01*
X11007558Y-12486755D02*
X11036130Y-12486755D01*
X11036130Y-12486755D02*
X11055177Y-12496279D01*
X11055177Y-12496279D02*
X11064701Y-12515326D01*
X11064701Y-12515326D02*
X11064701Y-12620088D01*
X11159939Y-12620088D02*
X11159939Y-12486755D01*
X11159939Y-12505802D02*
X11169463Y-12496279D01*
X11169463Y-12496279D02*
X11188510Y-12486755D01*
X11188510Y-12486755D02*
X11217082Y-12486755D01*
X11217082Y-12486755D02*
X11236130Y-12496279D01*
X11236130Y-12496279D02*
X11245653Y-12515326D01*
X11245653Y-12515326D02*
X11245653Y-12620088D01*
X11245653Y-12515326D02*
X11255177Y-12496279D01*
X11255177Y-12496279D02*
X11274225Y-12486755D01*
X11274225Y-12486755D02*
X11302796Y-12486755D01*
X11302796Y-12486755D02*
X11321844Y-12496279D01*
X11321844Y-12496279D02*
X11331368Y-12515326D01*
X11331368Y-12515326D02*
X11331368Y-12620088D01*
X11721844Y-12410564D02*
X11550415Y-12667707D01*
X11978987Y-12420088D02*
X11998034Y-12420088D01*
X11998034Y-12420088D02*
X12017082Y-12429612D01*
X12017082Y-12429612D02*
X12026606Y-12439136D01*
X12026606Y-12439136D02*
X12036130Y-12458183D01*
X12036130Y-12458183D02*
X12045653Y-12496279D01*
X12045653Y-12496279D02*
X12045653Y-12543898D01*
X12045653Y-12543898D02*
X12036130Y-12581993D01*
X12036130Y-12581993D02*
X12026606Y-12601040D01*
X12026606Y-12601040D02*
X12017082Y-12610564D01*
X12017082Y-12610564D02*
X11998034Y-12620088D01*
X11998034Y-12620088D02*
X11978987Y-12620088D01*
X11978987Y-12620088D02*
X11959939Y-12610564D01*
X11959939Y-12610564D02*
X11950415Y-12601040D01*
X11950415Y-12601040D02*
X11940892Y-12581993D01*
X11940892Y-12581993D02*
X11931368Y-12543898D01*
X11931368Y-12543898D02*
X11931368Y-12496279D01*
X11931368Y-12496279D02*
X11940892Y-12458183D01*
X11940892Y-12458183D02*
X11950415Y-12439136D01*
X11950415Y-12439136D02*
X11959939Y-12429612D01*
X11959939Y-12429612D02*
X11978987Y-12420088D01*
X12131368Y-12601040D02*
X12140892Y-12610564D01*
X12140892Y-12610564D02*
X12131368Y-12620088D01*
X12131368Y-12620088D02*
X12121844Y-12610564D01*
X12121844Y-12610564D02*
X12131368Y-12601040D01*
X12131368Y-12601040D02*
X12131368Y-12620088D01*
X12264701Y-12420088D02*
X12283749Y-12420088D01*
X12283749Y-12420088D02*
X12302796Y-12429612D01*
X12302796Y-12429612D02*
X12312320Y-12439136D01*
X12312320Y-12439136D02*
X12321844Y-12458183D01*
X12321844Y-12458183D02*
X12331368Y-12496279D01*
X12331368Y-12496279D02*
X12331368Y-12543898D01*
X12331368Y-12543898D02*
X12321844Y-12581993D01*
X12321844Y-12581993D02*
X12312320Y-12601040D01*
X12312320Y-12601040D02*
X12302796Y-12610564D01*
X12302796Y-12610564D02*
X12283749Y-12620088D01*
X12283749Y-12620088D02*
X12264701Y-12620088D01*
X12264701Y-12620088D02*
X12245653Y-12610564D01*
X12245653Y-12610564D02*
X12236130Y-12601040D01*
X12236130Y-12601040D02*
X12226606Y-12581993D01*
X12226606Y-12581993D02*
X12217082Y-12543898D01*
X12217082Y-12543898D02*
X12217082Y-12496279D01*
X12217082Y-12496279D02*
X12226606Y-12458183D01*
X12226606Y-12458183D02*
X12236130Y-12439136D01*
X12236130Y-12439136D02*
X12245653Y-12429612D01*
X12245653Y-12429612D02*
X12264701Y-12420088D01*
X12521844Y-12620088D02*
X12407558Y-12620088D01*
X12464701Y-12620088D02*
X12464701Y-12420088D01*
X12464701Y-12420088D02*
X12445653Y-12448660D01*
X12445653Y-12448660D02*
X12426606Y-12467707D01*
X12426606Y-12467707D02*
X12407558Y-12477231D01*
X12617082Y-12620088D02*
X12655177Y-12620088D01*
X12655177Y-12620088D02*
X12674225Y-12610564D01*
X12674225Y-12610564D02*
X12683749Y-12601040D01*
X12683749Y-12601040D02*
X12702796Y-12572469D01*
X12702796Y-12572469D02*
X12712320Y-12534374D01*
X12712320Y-12534374D02*
X12712320Y-12458183D01*
X12712320Y-12458183D02*
X12702796Y-12439136D01*
X12702796Y-12439136D02*
X12693273Y-12429612D01*
X12693273Y-12429612D02*
X12674225Y-12420088D01*
X12674225Y-12420088D02*
X12636130Y-12420088D01*
X12636130Y-12420088D02*
X12617082Y-12429612D01*
X12617082Y-12429612D02*
X12607558Y-12439136D01*
X12607558Y-12439136D02*
X12598034Y-12458183D01*
X12598034Y-12458183D02*
X12598034Y-12505802D01*
X12598034Y-12505802D02*
X12607558Y-12524850D01*
X12607558Y-12524850D02*
X12617082Y-12534374D01*
X12617082Y-12534374D02*
X12636130Y-12543898D01*
X12636130Y-12543898D02*
X12674225Y-12543898D01*
X12674225Y-12543898D02*
X12693273Y-12534374D01*
X12693273Y-12534374D02*
X12702796Y-12524850D01*
X12702796Y-12524850D02*
X12712320Y-12505802D01*
X12778987Y-12420088D02*
X12912320Y-12420088D01*
X12912320Y-12420088D02*
X12826606Y-12620088D01*
X12978987Y-12420088D02*
X12978987Y-12458183D01*
X13055177Y-12420088D02*
X13055177Y-12458183D01*
X13350416Y-12696279D02*
X13340892Y-12686755D01*
X13340892Y-12686755D02*
X13321844Y-12658183D01*
X13321844Y-12658183D02*
X13312320Y-12639136D01*
X13312320Y-12639136D02*
X13302796Y-12610564D01*
X13302796Y-12610564D02*
X13293273Y-12562945D01*
X13293273Y-12562945D02*
X13293273Y-12524850D01*
X13293273Y-12524850D02*
X13302796Y-12477231D01*
X13302796Y-12477231D02*
X13312320Y-12448660D01*
X13312320Y-12448660D02*
X13321844Y-12429612D01*
X13321844Y-12429612D02*
X13340892Y-12401040D01*
X13340892Y-12401040D02*
X13350416Y-12391517D01*
X13455177Y-12505802D02*
X13436130Y-12496279D01*
X13436130Y-12496279D02*
X13426606Y-12486755D01*
X13426606Y-12486755D02*
X13417082Y-12467707D01*
X13417082Y-12467707D02*
X13417082Y-12458183D01*
X13417082Y-12458183D02*
X13426606Y-12439136D01*
X13426606Y-12439136D02*
X13436130Y-12429612D01*
X13436130Y-12429612D02*
X13455177Y-12420088D01*
X13455177Y-12420088D02*
X13493273Y-12420088D01*
X13493273Y-12420088D02*
X13512320Y-12429612D01*
X13512320Y-12429612D02*
X13521844Y-12439136D01*
X13521844Y-12439136D02*
X13531368Y-12458183D01*
X13531368Y-12458183D02*
X13531368Y-12467707D01*
X13531368Y-12467707D02*
X13521844Y-12486755D01*
X13521844Y-12486755D02*
X13512320Y-12496279D01*
X13512320Y-12496279D02*
X13493273Y-12505802D01*
X13493273Y-12505802D02*
X13455177Y-12505802D01*
X13455177Y-12505802D02*
X13436130Y-12515326D01*
X13436130Y-12515326D02*
X13426606Y-12524850D01*
X13426606Y-12524850D02*
X13417082Y-12543898D01*
X13417082Y-12543898D02*
X13417082Y-12581993D01*
X13417082Y-12581993D02*
X13426606Y-12601040D01*
X13426606Y-12601040D02*
X13436130Y-12610564D01*
X13436130Y-12610564D02*
X13455177Y-12620088D01*
X13455177Y-12620088D02*
X13493273Y-12620088D01*
X13493273Y-12620088D02*
X13512320Y-12610564D01*
X13512320Y-12610564D02*
X13521844Y-12601040D01*
X13521844Y-12601040D02*
X13531368Y-12581993D01*
X13531368Y-12581993D02*
X13531368Y-12543898D01*
X13531368Y-12543898D02*
X13521844Y-12524850D01*
X13521844Y-12524850D02*
X13512320Y-12515326D01*
X13512320Y-12515326D02*
X13493273Y-12505802D01*
X13645654Y-12505802D02*
X13626606Y-12496279D01*
X13626606Y-12496279D02*
X13617082Y-12486755D01*
X13617082Y-12486755D02*
X13607558Y-12467707D01*
X13607558Y-12467707D02*
X13607558Y-12458183D01*
X13607558Y-12458183D02*
X13617082Y-12439136D01*
X13617082Y-12439136D02*
X13626606Y-12429612D01*
X13626606Y-12429612D02*
X13645654Y-12420088D01*
X13645654Y-12420088D02*
X13683749Y-12420088D01*
X13683749Y-12420088D02*
X13702796Y-12429612D01*
X13702796Y-12429612D02*
X13712320Y-12439136D01*
X13712320Y-12439136D02*
X13721844Y-12458183D01*
X13721844Y-12458183D02*
X13721844Y-12467707D01*
X13721844Y-12467707D02*
X13712320Y-12486755D01*
X13712320Y-12486755D02*
X13702796Y-12496279D01*
X13702796Y-12496279D02*
X13683749Y-12505802D01*
X13683749Y-12505802D02*
X13645654Y-12505802D01*
X13645654Y-12505802D02*
X13626606Y-12515326D01*
X13626606Y-12515326D02*
X13617082Y-12524850D01*
X13617082Y-12524850D02*
X13607558Y-12543898D01*
X13607558Y-12543898D02*
X13607558Y-12581993D01*
X13607558Y-12581993D02*
X13617082Y-12601040D01*
X13617082Y-12601040D02*
X13626606Y-12610564D01*
X13626606Y-12610564D02*
X13645654Y-12620088D01*
X13645654Y-12620088D02*
X13683749Y-12620088D01*
X13683749Y-12620088D02*
X13702796Y-12610564D01*
X13702796Y-12610564D02*
X13712320Y-12601040D01*
X13712320Y-12601040D02*
X13721844Y-12581993D01*
X13721844Y-12581993D02*
X13721844Y-12543898D01*
X13721844Y-12543898D02*
X13712320Y-12524850D01*
X13712320Y-12524850D02*
X13702796Y-12515326D01*
X13702796Y-12515326D02*
X13683749Y-12505802D01*
X13959939Y-12620088D02*
X13959939Y-12420088D01*
X14045654Y-12620088D02*
X14045654Y-12515326D01*
X14045654Y-12515326D02*
X14036130Y-12496279D01*
X14036130Y-12496279D02*
X14017082Y-12486755D01*
X14017082Y-12486755D02*
X13988511Y-12486755D01*
X13988511Y-12486755D02*
X13969463Y-12496279D01*
X13969463Y-12496279D02*
X13959939Y-12505802D01*
X14169463Y-12620088D02*
X14150416Y-12610564D01*
X14150416Y-12610564D02*
X14140892Y-12601040D01*
X14140892Y-12601040D02*
X14131368Y-12581993D01*
X14131368Y-12581993D02*
X14131368Y-12524850D01*
X14131368Y-12524850D02*
X14140892Y-12505802D01*
X14140892Y-12505802D02*
X14150416Y-12496279D01*
X14150416Y-12496279D02*
X14169463Y-12486755D01*
X14169463Y-12486755D02*
X14198035Y-12486755D01*
X14198035Y-12486755D02*
X14217082Y-12496279D01*
X14217082Y-12496279D02*
X14226606Y-12505802D01*
X14226606Y-12505802D02*
X14236130Y-12524850D01*
X14236130Y-12524850D02*
X14236130Y-12581993D01*
X14236130Y-12581993D02*
X14226606Y-12601040D01*
X14226606Y-12601040D02*
X14217082Y-12610564D01*
X14217082Y-12610564D02*
X14198035Y-12620088D01*
X14198035Y-12620088D02*
X14169463Y-12620088D01*
X14350416Y-12620088D02*
X14331368Y-12610564D01*
X14331368Y-12610564D02*
X14321844Y-12591517D01*
X14321844Y-12591517D02*
X14321844Y-12420088D01*
X14502797Y-12610564D02*
X14483749Y-12620088D01*
X14483749Y-12620088D02*
X14445654Y-12620088D01*
X14445654Y-12620088D02*
X14426606Y-12610564D01*
X14426606Y-12610564D02*
X14417082Y-12591517D01*
X14417082Y-12591517D02*
X14417082Y-12515326D01*
X14417082Y-12515326D02*
X14426606Y-12496279D01*
X14426606Y-12496279D02*
X14445654Y-12486755D01*
X14445654Y-12486755D02*
X14483749Y-12486755D01*
X14483749Y-12486755D02*
X14502797Y-12496279D01*
X14502797Y-12496279D02*
X14512320Y-12515326D01*
X14512320Y-12515326D02*
X14512320Y-12534374D01*
X14512320Y-12534374D02*
X14417082Y-12553421D01*
X14588511Y-12610564D02*
X14607558Y-12620088D01*
X14607558Y-12620088D02*
X14645654Y-12620088D01*
X14645654Y-12620088D02*
X14664701Y-12610564D01*
X14664701Y-12610564D02*
X14674225Y-12591517D01*
X14674225Y-12591517D02*
X14674225Y-12581993D01*
X14674225Y-12581993D02*
X14664701Y-12562945D01*
X14664701Y-12562945D02*
X14645654Y-12553421D01*
X14645654Y-12553421D02*
X14617082Y-12553421D01*
X14617082Y-12553421D02*
X14598035Y-12543898D01*
X14598035Y-12543898D02*
X14588511Y-12524850D01*
X14588511Y-12524850D02*
X14588511Y-12515326D01*
X14588511Y-12515326D02*
X14598035Y-12496279D01*
X14598035Y-12496279D02*
X14617082Y-12486755D01*
X14617082Y-12486755D02*
X14645654Y-12486755D01*
X14645654Y-12486755D02*
X14664701Y-12496279D01*
X14740892Y-12696279D02*
X14750416Y-12686755D01*
X14750416Y-12686755D02*
X14769463Y-12658183D01*
X14769463Y-12658183D02*
X14778987Y-12639136D01*
X14778987Y-12639136D02*
X14788511Y-12610564D01*
X14788511Y-12610564D02*
X14798035Y-12562945D01*
X14798035Y-12562945D02*
X14798035Y-12524850D01*
X14798035Y-12524850D02*
X14788511Y-12477231D01*
X14788511Y-12477231D02*
X14778987Y-12448660D01*
X14778987Y-12448660D02*
X14769463Y-12429612D01*
X14769463Y-12429612D02*
X14750416Y-12401040D01*
X14750416Y-12401040D02*
X14740892Y-12391517D01*
D12*
X9720743Y-12737994D02*
X9720743Y-12847214D01*
X9666133Y-12792604D02*
X9775353Y-12792604D01*
D10*
X10140891Y-12884088D02*
X10026606Y-12884088D01*
X10083749Y-12884088D02*
X10083749Y-12684088D01*
X10083749Y-12684088D02*
X10064701Y-12712660D01*
X10064701Y-12712660D02*
X10045653Y-12731707D01*
X10045653Y-12731707D02*
X10026606Y-12741231D01*
X10226606Y-12865040D02*
X10236130Y-12874564D01*
X10236130Y-12874564D02*
X10226606Y-12884088D01*
X10226606Y-12884088D02*
X10217082Y-12874564D01*
X10217082Y-12874564D02*
X10226606Y-12865040D01*
X10226606Y-12865040D02*
X10226606Y-12884088D01*
X10359939Y-12684088D02*
X10378987Y-12684088D01*
X10378987Y-12684088D02*
X10398034Y-12693612D01*
X10398034Y-12693612D02*
X10407558Y-12703136D01*
X10407558Y-12703136D02*
X10417082Y-12722183D01*
X10417082Y-12722183D02*
X10426606Y-12760279D01*
X10426606Y-12760279D02*
X10426606Y-12807898D01*
X10426606Y-12807898D02*
X10417082Y-12845993D01*
X10417082Y-12845993D02*
X10407558Y-12865040D01*
X10407558Y-12865040D02*
X10398034Y-12874564D01*
X10398034Y-12874564D02*
X10378987Y-12884088D01*
X10378987Y-12884088D02*
X10359939Y-12884088D01*
X10359939Y-12884088D02*
X10340891Y-12874564D01*
X10340891Y-12874564D02*
X10331368Y-12865040D01*
X10331368Y-12865040D02*
X10321844Y-12845993D01*
X10321844Y-12845993D02*
X10312320Y-12807898D01*
X10312320Y-12807898D02*
X10312320Y-12760279D01*
X10312320Y-12760279D02*
X10321844Y-12722183D01*
X10321844Y-12722183D02*
X10331368Y-12703136D01*
X10331368Y-12703136D02*
X10340891Y-12693612D01*
X10340891Y-12693612D02*
X10359939Y-12684088D01*
X10521844Y-12884088D02*
X10559939Y-12884088D01*
X10559939Y-12884088D02*
X10578987Y-12874564D01*
X10578987Y-12874564D02*
X10588511Y-12865040D01*
X10588511Y-12865040D02*
X10607558Y-12836469D01*
X10607558Y-12836469D02*
X10617082Y-12798374D01*
X10617082Y-12798374D02*
X10617082Y-12722183D01*
X10617082Y-12722183D02*
X10607558Y-12703136D01*
X10607558Y-12703136D02*
X10598034Y-12693612D01*
X10598034Y-12693612D02*
X10578987Y-12684088D01*
X10578987Y-12684088D02*
X10540891Y-12684088D01*
X10540891Y-12684088D02*
X10521844Y-12693612D01*
X10521844Y-12693612D02*
X10512320Y-12703136D01*
X10512320Y-12703136D02*
X10502796Y-12722183D01*
X10502796Y-12722183D02*
X10502796Y-12769802D01*
X10502796Y-12769802D02*
X10512320Y-12788850D01*
X10512320Y-12788850D02*
X10521844Y-12798374D01*
X10521844Y-12798374D02*
X10540891Y-12807898D01*
X10540891Y-12807898D02*
X10578987Y-12807898D01*
X10578987Y-12807898D02*
X10598034Y-12798374D01*
X10598034Y-12798374D02*
X10607558Y-12788850D01*
X10607558Y-12788850D02*
X10617082Y-12769802D01*
X10693272Y-12703136D02*
X10702796Y-12693612D01*
X10702796Y-12693612D02*
X10721844Y-12684088D01*
X10721844Y-12684088D02*
X10769463Y-12684088D01*
X10769463Y-12684088D02*
X10788511Y-12693612D01*
X10788511Y-12693612D02*
X10798034Y-12703136D01*
X10798034Y-12703136D02*
X10807558Y-12722183D01*
X10807558Y-12722183D02*
X10807558Y-12741231D01*
X10807558Y-12741231D02*
X10798034Y-12769802D01*
X10798034Y-12769802D02*
X10683749Y-12884088D01*
X10683749Y-12884088D02*
X10807558Y-12884088D01*
X10893272Y-12884088D02*
X10893272Y-12750755D01*
X10893272Y-12769802D02*
X10902796Y-12760279D01*
X10902796Y-12760279D02*
X10921844Y-12750755D01*
X10921844Y-12750755D02*
X10950415Y-12750755D01*
X10950415Y-12750755D02*
X10969463Y-12760279D01*
X10969463Y-12760279D02*
X10978987Y-12779326D01*
X10978987Y-12779326D02*
X10978987Y-12884088D01*
X10978987Y-12779326D02*
X10988511Y-12760279D01*
X10988511Y-12760279D02*
X11007558Y-12750755D01*
X11007558Y-12750755D02*
X11036130Y-12750755D01*
X11036130Y-12750755D02*
X11055177Y-12760279D01*
X11055177Y-12760279D02*
X11064701Y-12779326D01*
X11064701Y-12779326D02*
X11064701Y-12884088D01*
X11159939Y-12884088D02*
X11159939Y-12750755D01*
X11159939Y-12769802D02*
X11169463Y-12760279D01*
X11169463Y-12760279D02*
X11188510Y-12750755D01*
X11188510Y-12750755D02*
X11217082Y-12750755D01*
X11217082Y-12750755D02*
X11236130Y-12760279D01*
X11236130Y-12760279D02*
X11245653Y-12779326D01*
X11245653Y-12779326D02*
X11245653Y-12884088D01*
X11245653Y-12779326D02*
X11255177Y-12760279D01*
X11255177Y-12760279D02*
X11274225Y-12750755D01*
X11274225Y-12750755D02*
X11302796Y-12750755D01*
X11302796Y-12750755D02*
X11321844Y-12760279D01*
X11321844Y-12760279D02*
X11331368Y-12779326D01*
X11331368Y-12779326D02*
X11331368Y-12884088D01*
X11721844Y-12674564D02*
X11550415Y-12931707D01*
X11978987Y-12684088D02*
X11998034Y-12684088D01*
X11998034Y-12684088D02*
X12017082Y-12693612D01*
X12017082Y-12693612D02*
X12026606Y-12703136D01*
X12026606Y-12703136D02*
X12036130Y-12722183D01*
X12036130Y-12722183D02*
X12045653Y-12760279D01*
X12045653Y-12760279D02*
X12045653Y-12807898D01*
X12045653Y-12807898D02*
X12036130Y-12845993D01*
X12036130Y-12845993D02*
X12026606Y-12865040D01*
X12026606Y-12865040D02*
X12017082Y-12874564D01*
X12017082Y-12874564D02*
X11998034Y-12884088D01*
X11998034Y-12884088D02*
X11978987Y-12884088D01*
X11978987Y-12884088D02*
X11959939Y-12874564D01*
X11959939Y-12874564D02*
X11950415Y-12865040D01*
X11950415Y-12865040D02*
X11940892Y-12845993D01*
X11940892Y-12845993D02*
X11931368Y-12807898D01*
X11931368Y-12807898D02*
X11931368Y-12760279D01*
X11931368Y-12760279D02*
X11940892Y-12722183D01*
X11940892Y-12722183D02*
X11950415Y-12703136D01*
X11950415Y-12703136D02*
X11959939Y-12693612D01*
X11959939Y-12693612D02*
X11978987Y-12684088D01*
X12131368Y-12865040D02*
X12140892Y-12874564D01*
X12140892Y-12874564D02*
X12131368Y-12884088D01*
X12131368Y-12884088D02*
X12121844Y-12874564D01*
X12121844Y-12874564D02*
X12131368Y-12865040D01*
X12131368Y-12865040D02*
X12131368Y-12884088D01*
X12264701Y-12684088D02*
X12283749Y-12684088D01*
X12283749Y-12684088D02*
X12302796Y-12693612D01*
X12302796Y-12693612D02*
X12312320Y-12703136D01*
X12312320Y-12703136D02*
X12321844Y-12722183D01*
X12321844Y-12722183D02*
X12331368Y-12760279D01*
X12331368Y-12760279D02*
X12331368Y-12807898D01*
X12331368Y-12807898D02*
X12321844Y-12845993D01*
X12321844Y-12845993D02*
X12312320Y-12865040D01*
X12312320Y-12865040D02*
X12302796Y-12874564D01*
X12302796Y-12874564D02*
X12283749Y-12884088D01*
X12283749Y-12884088D02*
X12264701Y-12884088D01*
X12264701Y-12884088D02*
X12245653Y-12874564D01*
X12245653Y-12874564D02*
X12236130Y-12865040D01*
X12236130Y-12865040D02*
X12226606Y-12845993D01*
X12226606Y-12845993D02*
X12217082Y-12807898D01*
X12217082Y-12807898D02*
X12217082Y-12760279D01*
X12217082Y-12760279D02*
X12226606Y-12722183D01*
X12226606Y-12722183D02*
X12236130Y-12703136D01*
X12236130Y-12703136D02*
X12245653Y-12693612D01*
X12245653Y-12693612D02*
X12264701Y-12684088D01*
X12502796Y-12750755D02*
X12502796Y-12884088D01*
X12455177Y-12674564D02*
X12407558Y-12817421D01*
X12407558Y-12817421D02*
X12531368Y-12817421D01*
X12588511Y-12684088D02*
X12712320Y-12684088D01*
X12712320Y-12684088D02*
X12645653Y-12760279D01*
X12645653Y-12760279D02*
X12674225Y-12760279D01*
X12674225Y-12760279D02*
X12693273Y-12769802D01*
X12693273Y-12769802D02*
X12702796Y-12779326D01*
X12702796Y-12779326D02*
X12712320Y-12798374D01*
X12712320Y-12798374D02*
X12712320Y-12845993D01*
X12712320Y-12845993D02*
X12702796Y-12865040D01*
X12702796Y-12865040D02*
X12693273Y-12874564D01*
X12693273Y-12874564D02*
X12674225Y-12884088D01*
X12674225Y-12884088D02*
X12617082Y-12884088D01*
X12617082Y-12884088D02*
X12598034Y-12874564D01*
X12598034Y-12874564D02*
X12588511Y-12865040D01*
X12836130Y-12684088D02*
X12855177Y-12684088D01*
X12855177Y-12684088D02*
X12874225Y-12693612D01*
X12874225Y-12693612D02*
X12883749Y-12703136D01*
X12883749Y-12703136D02*
X12893273Y-12722183D01*
X12893273Y-12722183D02*
X12902796Y-12760279D01*
X12902796Y-12760279D02*
X12902796Y-12807898D01*
X12902796Y-12807898D02*
X12893273Y-12845993D01*
X12893273Y-12845993D02*
X12883749Y-12865040D01*
X12883749Y-12865040D02*
X12874225Y-12874564D01*
X12874225Y-12874564D02*
X12855177Y-12884088D01*
X12855177Y-12884088D02*
X12836130Y-12884088D01*
X12836130Y-12884088D02*
X12817082Y-12874564D01*
X12817082Y-12874564D02*
X12807558Y-12865040D01*
X12807558Y-12865040D02*
X12798034Y-12845993D01*
X12798034Y-12845993D02*
X12788511Y-12807898D01*
X12788511Y-12807898D02*
X12788511Y-12760279D01*
X12788511Y-12760279D02*
X12798034Y-12722183D01*
X12798034Y-12722183D02*
X12807558Y-12703136D01*
X12807558Y-12703136D02*
X12817082Y-12693612D01*
X12817082Y-12693612D02*
X12836130Y-12684088D01*
X12978987Y-12684088D02*
X12978987Y-12722183D01*
X13055177Y-12684088D02*
X13055177Y-12722183D01*
X13350416Y-12960279D02*
X13340892Y-12950755D01*
X13340892Y-12950755D02*
X13321844Y-12922183D01*
X13321844Y-12922183D02*
X13312320Y-12903136D01*
X13312320Y-12903136D02*
X13302796Y-12874564D01*
X13302796Y-12874564D02*
X13293273Y-12826945D01*
X13293273Y-12826945D02*
X13293273Y-12788850D01*
X13293273Y-12788850D02*
X13302796Y-12741231D01*
X13302796Y-12741231D02*
X13312320Y-12712660D01*
X13312320Y-12712660D02*
X13321844Y-12693612D01*
X13321844Y-12693612D02*
X13340892Y-12665040D01*
X13340892Y-12665040D02*
X13350416Y-12655517D01*
X13417082Y-12703136D02*
X13426606Y-12693612D01*
X13426606Y-12693612D02*
X13445654Y-12684088D01*
X13445654Y-12684088D02*
X13493273Y-12684088D01*
X13493273Y-12684088D02*
X13512320Y-12693612D01*
X13512320Y-12693612D02*
X13521844Y-12703136D01*
X13521844Y-12703136D02*
X13531368Y-12722183D01*
X13531368Y-12722183D02*
X13531368Y-12741231D01*
X13531368Y-12741231D02*
X13521844Y-12769802D01*
X13521844Y-12769802D02*
X13407558Y-12884088D01*
X13407558Y-12884088D02*
X13531368Y-12884088D01*
X13598035Y-12684088D02*
X13731368Y-12684088D01*
X13731368Y-12684088D02*
X13645654Y-12884088D01*
X13959939Y-12884088D02*
X13959939Y-12684088D01*
X14045654Y-12884088D02*
X14045654Y-12779326D01*
X14045654Y-12779326D02*
X14036130Y-12760279D01*
X14036130Y-12760279D02*
X14017082Y-12750755D01*
X14017082Y-12750755D02*
X13988511Y-12750755D01*
X13988511Y-12750755D02*
X13969463Y-12760279D01*
X13969463Y-12760279D02*
X13959939Y-12769802D01*
X14169463Y-12884088D02*
X14150416Y-12874564D01*
X14150416Y-12874564D02*
X14140892Y-12865040D01*
X14140892Y-12865040D02*
X14131368Y-12845993D01*
X14131368Y-12845993D02*
X14131368Y-12788850D01*
X14131368Y-12788850D02*
X14140892Y-12769802D01*
X14140892Y-12769802D02*
X14150416Y-12760279D01*
X14150416Y-12760279D02*
X14169463Y-12750755D01*
X14169463Y-12750755D02*
X14198035Y-12750755D01*
X14198035Y-12750755D02*
X14217082Y-12760279D01*
X14217082Y-12760279D02*
X14226606Y-12769802D01*
X14226606Y-12769802D02*
X14236130Y-12788850D01*
X14236130Y-12788850D02*
X14236130Y-12845993D01*
X14236130Y-12845993D02*
X14226606Y-12865040D01*
X14226606Y-12865040D02*
X14217082Y-12874564D01*
X14217082Y-12874564D02*
X14198035Y-12884088D01*
X14198035Y-12884088D02*
X14169463Y-12884088D01*
X14350416Y-12884088D02*
X14331368Y-12874564D01*
X14331368Y-12874564D02*
X14321844Y-12855517D01*
X14321844Y-12855517D02*
X14321844Y-12684088D01*
X14502797Y-12874564D02*
X14483749Y-12884088D01*
X14483749Y-12884088D02*
X14445654Y-12884088D01*
X14445654Y-12884088D02*
X14426606Y-12874564D01*
X14426606Y-12874564D02*
X14417082Y-12855517D01*
X14417082Y-12855517D02*
X14417082Y-12779326D01*
X14417082Y-12779326D02*
X14426606Y-12760279D01*
X14426606Y-12760279D02*
X14445654Y-12750755D01*
X14445654Y-12750755D02*
X14483749Y-12750755D01*
X14483749Y-12750755D02*
X14502797Y-12760279D01*
X14502797Y-12760279D02*
X14512320Y-12779326D01*
X14512320Y-12779326D02*
X14512320Y-12798374D01*
X14512320Y-12798374D02*
X14417082Y-12817421D01*
X14588511Y-12874564D02*
X14607558Y-12884088D01*
X14607558Y-12884088D02*
X14645654Y-12884088D01*
X14645654Y-12884088D02*
X14664701Y-12874564D01*
X14664701Y-12874564D02*
X14674225Y-12855517D01*
X14674225Y-12855517D02*
X14674225Y-12845993D01*
X14674225Y-12845993D02*
X14664701Y-12826945D01*
X14664701Y-12826945D02*
X14645654Y-12817421D01*
X14645654Y-12817421D02*
X14617082Y-12817421D01*
X14617082Y-12817421D02*
X14598035Y-12807898D01*
X14598035Y-12807898D02*
X14588511Y-12788850D01*
X14588511Y-12788850D02*
X14588511Y-12779326D01*
X14588511Y-12779326D02*
X14598035Y-12760279D01*
X14598035Y-12760279D02*
X14617082Y-12750755D01*
X14617082Y-12750755D02*
X14645654Y-12750755D01*
X14645654Y-12750755D02*
X14664701Y-12760279D01*
X14740892Y-12960279D02*
X14750416Y-12950755D01*
X14750416Y-12950755D02*
X14769463Y-12922183D01*
X14769463Y-12922183D02*
X14778987Y-12903136D01*
X14778987Y-12903136D02*
X14788511Y-12874564D01*
X14788511Y-12874564D02*
X14798035Y-12826945D01*
X14798035Y-12826945D02*
X14798035Y-12788850D01*
X14798035Y-12788850D02*
X14788511Y-12741231D01*
X14788511Y-12741231D02*
X14778987Y-12712660D01*
X14778987Y-12712660D02*
X14769463Y-12693612D01*
X14769463Y-12693612D02*
X14750416Y-12665040D01*
X14750416Y-12665040D02*
X14740892Y-12655517D01*
M02*
