M48
; DRILL file {KiCad 8.0.4} date 2024-09-04T10:49:21-0400
; FORMAT={-:-/ absolute / inch / decimal}
; #@! TF.CreationDate,2024-09-04T10:49:21-04:00
; #@! TF.GenerationSoftware,Kicad,Pcbnew,8.0.4
; #@! TF.FileFunction,Plated,1,2,PTH
FMAT,2
INCH
; #@! TA.AperFunction,Plated,PTH,ViaDrill
T1C0.0118
; #@! TA.AperFunction,Plated,PTH,ComponentDrill
T2C0.0197
; #@! TA.AperFunction,Plated,PTH,ComponentDrill
T3C0.0430
%
G90
G05
T1
X4.1675Y-2.7146
X4.1714Y-2.9823
X4.8366Y-2.9429
X4.8368Y-2.7106
X4.8368Y-3.3917
X4.8368Y-3.5728
X5.5059Y-3.0649
X5.51Y-2.5571
X5.51Y-3.4075
X5.5139Y-2.7303
X6.1752Y-3.0059
X6.1753Y-2.4744
X6.1753Y-2.6752
X6.1793Y-3.3563
X6.3958Y-4.2185
X6.4194Y-3.8248
X6.7029Y-4.0768
X6.8445Y-3.0216
X6.8446Y-2.5334
X6.8446Y-2.7146
X6.8446Y-3.3917
X6.9864Y-4.2933
X7.1005Y-3.8799
X7.3683Y-4.1594
X7.5138Y-3.1476
X7.5138Y-3.502
X7.5139Y-2.5177
X7.5139Y-2.7933
X7.6123Y-4.372
X7.7029Y-2.6555
X7.7738Y-3.9468
X7.9942Y-4.1476
X8.073Y-2.6634
X8.136Y-3.1594
X8.262Y-3.1004
X8.3171Y-4.4114
X8.3722Y-3.187
X8.4194Y-3.0216
X8.4864Y-2.9232
X8.5415Y-2.1949
X8.5494Y-2.0138
X8.5769Y-3.0138
X8.632Y-2.9311
X8.6714Y-2.9632
X8.6871Y-2.7579
X8.699Y-2.3445
X8.7383Y-2.687
X8.762Y-2.8012
X8.7816Y-3.0886
X8.8092Y-3.124
X8.8188Y-2.7359
X8.821Y-2.3287
X8.9982Y-2.8957
X9.0336Y-2.9783
X9.0533Y-2.5649
X9.0572Y-2.6043
X9.0612Y-2.6673
X9.069Y-2.6358
X9.2147Y-3.0649
X9.2344Y-2.3642
X9.3146Y-2.813
T2
X4.0157Y-2.0768
X4.0157Y-2.5492
X4.0157Y-2.7461
X4.0157Y-3.2185
X4.0157Y-3.4154
X4.0157Y-3.8878
X4.5157Y-2.0768
X4.5157Y-2.5492
X4.5157Y-2.7461
X4.5157Y-3.2185
X4.5157Y-3.4154
X4.5157Y-3.8878
X4.685Y-2.0079
X4.685Y-2.4803
X4.685Y-2.6772
X4.685Y-3.1496
X4.685Y-3.3465
X4.685Y-3.8189
X5.185Y-2.0079
X5.185Y-2.4803
X5.185Y-2.6772
X5.185Y-3.1496
X5.185Y-3.3465
X5.185Y-3.8189
X5.3543Y-1.8406
X5.3543Y-2.313
X5.3543Y-2.5098
X5.3543Y-2.9823
X5.3543Y-3.1791
X5.3543Y-3.6516
X5.8543Y-1.8406
X5.8543Y-2.313
X5.8543Y-2.5098
X5.8543Y-2.9823
X5.8543Y-3.1791
X5.8543Y-3.6516
X6.0236Y-1.7815
X6.0236Y-2.2539
X6.0236Y-2.4508
X6.0236Y-2.9232
X6.0236Y-3.1201
X6.0236Y-3.5925
X6.0236Y-3.7894
X6.0236Y-4.2618
X6.5236Y-1.7815
X6.5236Y-2.2539
X6.5236Y-2.4508
X6.5236Y-2.9232
X6.5236Y-3.1201
X6.5236Y-3.5925
X6.5236Y-3.7894
X6.5236Y-4.2618
X6.6929Y-1.8307
X6.6929Y-2.3031
X6.6929Y-2.5
X6.6929Y-2.9724
X6.6929Y-3.1693
X6.6929Y-3.6417
X6.6929Y-3.8386
X6.6929Y-4.311
X7.1929Y-1.8307
X7.1929Y-2.3031
X7.1929Y-2.5
X7.1929Y-2.9724
X7.1929Y-3.1693
X7.1929Y-3.6417
X7.1929Y-3.8386
X7.1929Y-4.311
X7.3622Y-1.9154
X7.3622Y-2.3878
X7.3622Y-2.5846
X7.3622Y-3.0571
X7.3622Y-3.2539
X7.3622Y-3.7264
X7.3622Y-3.9232
X7.3622Y-4.3957
X7.8622Y-1.9154
X7.8622Y-2.3878
X7.8622Y-2.5846
X7.8622Y-3.0571
X7.8622Y-3.2539
X7.8622Y-3.7264
X7.8622Y-3.9232
X7.8622Y-4.3957
X8.0315Y-3.9232
X8.0315Y-4.3957
X8.5315Y-3.9232
X8.5315Y-4.3957
T3
X8.3043Y-1.9169
X8.3043Y-2.0169
X8.3043Y-2.1169
X8.3043Y-2.2169
X8.3043Y-2.3169
X8.3043Y-2.4169
X8.3043Y-2.5169
X8.3043Y-2.6169
X8.3043Y-2.7169
X8.3043Y-2.8169
X8.3043Y-2.9169
X8.3043Y-3.0169
X8.4043Y-2.8169
X8.5043Y-2.8169
X8.6043Y-2.8169
X8.9043Y-1.9169
X8.9043Y-2.0169
X8.9043Y-2.1169
X8.9043Y-2.2169
X8.9043Y-2.3169
X8.9043Y-2.4169
X8.9043Y-2.5169
X8.9043Y-2.6169
X8.9043Y-2.7169
X8.9043Y-2.8169
X8.9043Y-2.9169
X8.9043Y-3.0169
M30
