%TF.GenerationSoftware,KiCad,Pcbnew,8.0.4*%
%TF.CreationDate,2024-09-04T10:49:16-04:00*%
%TF.ProjectId,3leaf_left,336c6561-665f-46c6-9566-742e6b696361,rev?*%
%TF.SameCoordinates,Original*%
%TF.FileFunction,Profile,NP*%
%FSLAX46Y46*%
G04 Gerber Fmt 4.6, Leading zero omitted, Abs format (unit mm)*
G04 Created by KiCad (PCBNEW 8.0.4) date 2024-09-04 10:49:16*
%MOMM*%
%LPD*%
G01*
G04 APERTURE LIST*
%TA.AperFunction,Profile*%
%ADD10C,0.200000*%
%TD*%
%TA.AperFunction,Profile*%
%ADD11C,0.100000*%
%TD*%
G04 APERTURE END LIST*
D10*
X151166634Y-41503110D02*
G75*
G02*
X153151096Y-40753123I1984366J-2250190D01*
G01*
X143813007Y-97245970D02*
G75*
G02*
X148853460Y-102255561I20293J-5020130D01*
G01*
X151166634Y-41503110D02*
G75*
G02*
X149182234Y-42253096I-1984334J2250110D01*
G01*
X97853566Y-101469576D02*
X97853570Y-52649570D01*
X230173396Y-44153110D02*
G75*
G02*
X235004837Y-47865809I4J-4999990D01*
G01*
X133887093Y-42253110D02*
X149182234Y-42253110D01*
X133849901Y-101495948D02*
X119834399Y-101495970D01*
X182548896Y-113995970D02*
G75*
G02*
X184849962Y-115070975I4J-3000230D01*
G01*
X187151096Y-44153110D02*
X230173396Y-44153110D01*
X101163799Y-47943726D02*
G75*
G02*
X133887093Y-42253112I32686601J-91029674D01*
G01*
X225660689Y-114681565D02*
G75*
G02*
X222104460Y-116146002I-3535689J3535865D01*
G01*
X245103265Y-95238995D02*
X225660689Y-114681565D01*
X166017096Y-112745970D02*
X153853396Y-112745970D01*
X235004812Y-47865816D02*
X246402849Y-90403868D01*
X148853426Y-107745970D02*
X148853426Y-102255561D01*
X166017096Y-40753109D02*
G75*
G02*
X167849983Y-41378127I-96J-3000291D01*
G01*
X136719580Y-99370977D02*
G75*
G02*
X133849901Y-101495966I-2869680J875177D01*
G01*
X246402849Y-90403868D02*
G75*
G02*
X245103285Y-95239015I-4829649J-1294132D01*
G01*
X233045265Y-47169727D02*
G75*
G02*
X230345265Y-47169727I-1350000J0D01*
G01*
X230345265Y-47169727D02*
G75*
G02*
X233045265Y-47169727I1350000J0D01*
G01*
X166017096Y-112745970D02*
G75*
G02*
X167849999Y-113370966I4J-3000130D01*
G01*
X136719580Y-99370977D02*
G75*
G02*
X139589396Y-97246078I2869620J-875223D01*
G01*
X187151096Y-44153110D02*
G75*
G02*
X184850042Y-43078099I4J3000210D01*
G01*
X102248665Y-106457344D02*
G75*
G02*
X97853587Y-101469576I604935J4963344D01*
G01*
X153151096Y-40753110D02*
X166017096Y-40753109D01*
X169682896Y-113995970D02*
G75*
G02*
X167849991Y-113370977I4J3000170D01*
G01*
X113472823Y-107825135D02*
X102248665Y-106457344D01*
X182548996Y-42003110D02*
G75*
G02*
X184850035Y-43078104I4J-3000190D01*
G01*
X116849984Y-104672638D02*
G75*
G02*
X113472819Y-107825169I-2995184J-176562D01*
G01*
X222104460Y-116145970D02*
X187150996Y-116145970D01*
X132199996Y-45253110D02*
G75*
G02*
X129499996Y-45253110I-1350000J0D01*
G01*
X129499996Y-45253110D02*
G75*
G02*
X132199996Y-45253110I1350000J0D01*
G01*
X97853570Y-52649570D02*
G75*
G02*
X101163812Y-47943762I5000030J-30D01*
G01*
X169682896Y-42003110D02*
X182548996Y-42003110D01*
X169682896Y-42003110D02*
G75*
G02*
X167849986Y-41378123I4J3000210D01*
G01*
X182548896Y-113995970D02*
X169682896Y-113995970D01*
X206049996Y-94299970D02*
G75*
G02*
X203349996Y-94299970I-1350000J0D01*
G01*
X203349996Y-94299970D02*
G75*
G02*
X206049996Y-94299970I1350000J0D01*
G01*
X116849984Y-104672638D02*
G75*
G02*
X119834399Y-101495997I2994816J176638D01*
G01*
X153853396Y-112745970D02*
G75*
G02*
X148853430Y-107745970I4J4999970D01*
G01*
X115204988Y-104849309D02*
G75*
G02*
X112504988Y-104849309I-1350000J0D01*
G01*
X112504988Y-104849309D02*
G75*
G02*
X115204988Y-104849309I1350000J0D01*
G01*
X143813007Y-97245970D02*
X139589396Y-97245970D01*
X187150996Y-116145970D02*
G75*
G02*
X184849969Y-115070969I4J3000170D01*
G01*
D11*
%TO.C,S15*%
X154150000Y-82500000D02*
G75*
G02*
X152950000Y-82500000I-600000J0D01*
G01*
X152950000Y-82500000D02*
G75*
G02*
X154150000Y-82500000I600000J0D01*
G01*
X154050000Y-88000000D02*
G75*
G02*
X153050000Y-88000000I-500000J0D01*
G01*
X153050000Y-88000000D02*
G75*
G02*
X154050000Y-88000000I500000J0D01*
G01*
X165750000Y-82500000D02*
G75*
G02*
X164550000Y-82500000I-600000J0D01*
G01*
X164550000Y-82500000D02*
G75*
G02*
X165750000Y-82500000I600000J0D01*
G01*
X165650000Y-88000000D02*
G75*
G02*
X164650000Y-88000000I-500000J0D01*
G01*
X164650000Y-88000000D02*
G75*
G02*
X165650000Y-88000000I500000J0D01*
G01*
%TO.C,S11*%
X120150000Y-71250000D02*
G75*
G02*
X118950000Y-71250000I-600000J0D01*
G01*
X118950000Y-71250000D02*
G75*
G02*
X120150000Y-71250000I600000J0D01*
G01*
X120050000Y-76750000D02*
G75*
G02*
X119050000Y-76750000I-500000J0D01*
G01*
X119050000Y-76750000D02*
G75*
G02*
X120050000Y-76750000I500000J0D01*
G01*
X131750000Y-71250000D02*
G75*
G02*
X130550000Y-71250000I-600000J0D01*
G01*
X130550000Y-71250000D02*
G75*
G02*
X131750000Y-71250000I600000J0D01*
G01*
X131650000Y-76750000D02*
G75*
G02*
X130650000Y-76750000I-500000J0D01*
G01*
X130650000Y-76750000D02*
G75*
G02*
X131650000Y-76750000I500000J0D01*
G01*
%TO.C,S16*%
X137150000Y-84000000D02*
G75*
G02*
X135950000Y-84000000I-600000J0D01*
G01*
X135950000Y-84000000D02*
G75*
G02*
X137150000Y-84000000I600000J0D01*
G01*
X137050000Y-89500000D02*
G75*
G02*
X136050000Y-89500000I-500000J0D01*
G01*
X136050000Y-89500000D02*
G75*
G02*
X137050000Y-89500000I500000J0D01*
G01*
X148750000Y-84000000D02*
G75*
G02*
X147550000Y-84000000I-600000J0D01*
G01*
X147550000Y-84000000D02*
G75*
G02*
X148750000Y-84000000I600000J0D01*
G01*
X148650000Y-89500000D02*
G75*
G02*
X147650000Y-89500000I-500000J0D01*
G01*
X147650000Y-89500000D02*
G75*
G02*
X148650000Y-89500000I500000J0D01*
G01*
%TO.C,S19*%
X205150000Y-102900000D02*
G75*
G02*
X203950000Y-102900000I-600000J0D01*
G01*
X203950000Y-102900000D02*
G75*
G02*
X205150000Y-102900000I600000J0D01*
G01*
X205050000Y-108400000D02*
G75*
G02*
X204050000Y-108400000I-500000J0D01*
G01*
X204050000Y-108400000D02*
G75*
G02*
X205050000Y-108400000I500000J0D01*
G01*
X216750000Y-102900000D02*
G75*
G02*
X215550000Y-102900000I-600000J0D01*
G01*
X215550000Y-102900000D02*
G75*
G02*
X216750000Y-102900000I600000J0D01*
G01*
X216650000Y-108400000D02*
G75*
G02*
X215650000Y-108400000I-500000J0D01*
G01*
X215650000Y-108400000D02*
G75*
G02*
X216650000Y-108400000I500000J0D01*
G01*
%TO.C,S6*%
X103150000Y-56000000D02*
G75*
G02*
X101950000Y-56000000I-600000J0D01*
G01*
X101950000Y-56000000D02*
G75*
G02*
X103150000Y-56000000I600000J0D01*
G01*
X103050000Y-61500000D02*
G75*
G02*
X102050000Y-61500000I-500000J0D01*
G01*
X102050000Y-61500000D02*
G75*
G02*
X103050000Y-61500000I500000J0D01*
G01*
X114750000Y-56000000D02*
G75*
G02*
X113550000Y-56000000I-600000J0D01*
G01*
X113550000Y-56000000D02*
G75*
G02*
X114750000Y-56000000I600000J0D01*
G01*
X114650000Y-61500000D02*
G75*
G02*
X113650000Y-61500000I-500000J0D01*
G01*
X113650000Y-61500000D02*
G75*
G02*
X114650000Y-61500000I500000J0D01*
G01*
%TO.C,S20*%
X188150000Y-102900000D02*
G75*
G02*
X186950000Y-102900000I-600000J0D01*
G01*
X186950000Y-102900000D02*
G75*
G02*
X188150000Y-102900000I600000J0D01*
G01*
X188050000Y-108400000D02*
G75*
G02*
X187050000Y-108400000I-500000J0D01*
G01*
X187050000Y-108400000D02*
G75*
G02*
X188050000Y-108400000I500000J0D01*
G01*
X199750000Y-102900000D02*
G75*
G02*
X198550000Y-102900000I-600000J0D01*
G01*
X198550000Y-102900000D02*
G75*
G02*
X199750000Y-102900000I600000J0D01*
G01*
X199650000Y-108400000D02*
G75*
G02*
X198650000Y-108400000I-500000J0D01*
G01*
X198650000Y-108400000D02*
G75*
G02*
X199650000Y-108400000I500000J0D01*
G01*
%TO.C,S2*%
X171150000Y-49750000D02*
G75*
G02*
X169950000Y-49750000I-600000J0D01*
G01*
X169950000Y-49750000D02*
G75*
G02*
X171150000Y-49750000I600000J0D01*
G01*
X171050000Y-55250000D02*
G75*
G02*
X170050000Y-55250000I-500000J0D01*
G01*
X170050000Y-55250000D02*
G75*
G02*
X171050000Y-55250000I500000J0D01*
G01*
X182750000Y-49750000D02*
G75*
G02*
X181550000Y-49750000I-600000J0D01*
G01*
X181550000Y-49750000D02*
G75*
G02*
X182750000Y-49750000I600000J0D01*
G01*
X182650000Y-55250000D02*
G75*
G02*
X181650000Y-55250000I-500000J0D01*
G01*
X181650000Y-55250000D02*
G75*
G02*
X182650000Y-55250000I500000J0D01*
G01*
%TO.C,S18*%
X103150000Y-90000000D02*
G75*
G02*
X101950000Y-90000000I-600000J0D01*
G01*
X101950000Y-90000000D02*
G75*
G02*
X103150000Y-90000000I600000J0D01*
G01*
X103050000Y-95500000D02*
G75*
G02*
X102050000Y-95500000I-500000J0D01*
G01*
X102050000Y-95500000D02*
G75*
G02*
X103050000Y-95500000I500000J0D01*
G01*
X114750000Y-90000000D02*
G75*
G02*
X113550000Y-90000000I-600000J0D01*
G01*
X113550000Y-90000000D02*
G75*
G02*
X114750000Y-90000000I600000J0D01*
G01*
X114650000Y-95500000D02*
G75*
G02*
X113650000Y-95500000I-500000J0D01*
G01*
X113650000Y-95500000D02*
G75*
G02*
X114650000Y-95500000I500000J0D01*
G01*
%TO.C,S9*%
X154150000Y-65500000D02*
G75*
G02*
X152950000Y-65500000I-600000J0D01*
G01*
X152950000Y-65500000D02*
G75*
G02*
X154150000Y-65500000I600000J0D01*
G01*
X154050000Y-71000000D02*
G75*
G02*
X153050000Y-71000000I-500000J0D01*
G01*
X153050000Y-71000000D02*
G75*
G02*
X154050000Y-71000000I500000J0D01*
G01*
X165750000Y-65500000D02*
G75*
G02*
X164550000Y-65500000I-600000J0D01*
G01*
X164550000Y-65500000D02*
G75*
G02*
X165750000Y-65500000I600000J0D01*
G01*
X165650000Y-71000000D02*
G75*
G02*
X164650000Y-71000000I-500000J0D01*
G01*
X164650000Y-71000000D02*
G75*
G02*
X165650000Y-71000000I500000J0D01*
G01*
%TO.C,S17*%
X120150000Y-88250000D02*
G75*
G02*
X118950000Y-88250000I-600000J0D01*
G01*
X118950000Y-88250000D02*
G75*
G02*
X120150000Y-88250000I600000J0D01*
G01*
X120050000Y-93750000D02*
G75*
G02*
X119050000Y-93750000I-500000J0D01*
G01*
X119050000Y-93750000D02*
G75*
G02*
X120050000Y-93750000I500000J0D01*
G01*
X131750000Y-88250000D02*
G75*
G02*
X130550000Y-88250000I-600000J0D01*
G01*
X130550000Y-88250000D02*
G75*
G02*
X131750000Y-88250000I600000J0D01*
G01*
X131650000Y-93750000D02*
G75*
G02*
X130650000Y-93750000I-500000J0D01*
G01*
X130650000Y-93750000D02*
G75*
G02*
X131650000Y-93750000I500000J0D01*
G01*
%TO.C,S4*%
X137150000Y-50000000D02*
G75*
G02*
X135950000Y-50000000I-600000J0D01*
G01*
X135950000Y-50000000D02*
G75*
G02*
X137150000Y-50000000I600000J0D01*
G01*
X137050000Y-55500000D02*
G75*
G02*
X136050000Y-55500000I-500000J0D01*
G01*
X136050000Y-55500000D02*
G75*
G02*
X137050000Y-55500000I500000J0D01*
G01*
X148750000Y-50000000D02*
G75*
G02*
X147550000Y-50000000I-600000J0D01*
G01*
X147550000Y-50000000D02*
G75*
G02*
X148750000Y-50000000I600000J0D01*
G01*
X148650000Y-55500000D02*
G75*
G02*
X147650000Y-55500000I-500000J0D01*
G01*
X147650000Y-55500000D02*
G75*
G02*
X148650000Y-55500000I500000J0D01*
G01*
%TO.C,S12*%
X103150000Y-73000000D02*
G75*
G02*
X101950000Y-73000000I-600000J0D01*
G01*
X101950000Y-73000000D02*
G75*
G02*
X103150000Y-73000000I600000J0D01*
G01*
X103050000Y-78500000D02*
G75*
G02*
X102050000Y-78500000I-500000J0D01*
G01*
X102050000Y-78500000D02*
G75*
G02*
X103050000Y-78500000I500000J0D01*
G01*
X114750000Y-73000000D02*
G75*
G02*
X113550000Y-73000000I-600000J0D01*
G01*
X113550000Y-73000000D02*
G75*
G02*
X114750000Y-73000000I600000J0D01*
G01*
X114650000Y-78500000D02*
G75*
G02*
X113650000Y-78500000I-500000J0D01*
G01*
X113650000Y-78500000D02*
G75*
G02*
X114650000Y-78500000I500000J0D01*
G01*
%TO.C,S1*%
X188150000Y-51900000D02*
G75*
G02*
X186950000Y-51900000I-600000J0D01*
G01*
X186950000Y-51900000D02*
G75*
G02*
X188150000Y-51900000I600000J0D01*
G01*
X188050000Y-57400000D02*
G75*
G02*
X187050000Y-57400000I-500000J0D01*
G01*
X187050000Y-57400000D02*
G75*
G02*
X188050000Y-57400000I500000J0D01*
G01*
X199750000Y-51900000D02*
G75*
G02*
X198550000Y-51900000I-600000J0D01*
G01*
X198550000Y-51900000D02*
G75*
G02*
X199750000Y-51900000I600000J0D01*
G01*
X199650000Y-57400000D02*
G75*
G02*
X198650000Y-57400000I-500000J0D01*
G01*
X198650000Y-57400000D02*
G75*
G02*
X199650000Y-57400000I500000J0D01*
G01*
%TO.C,S13*%
X188150000Y-85900000D02*
G75*
G02*
X186950000Y-85900000I-600000J0D01*
G01*
X186950000Y-85900000D02*
G75*
G02*
X188150000Y-85900000I600000J0D01*
G01*
X188050000Y-91400000D02*
G75*
G02*
X187050000Y-91400000I-500000J0D01*
G01*
X187050000Y-91400000D02*
G75*
G02*
X188050000Y-91400000I500000J0D01*
G01*
X199750000Y-85900000D02*
G75*
G02*
X198550000Y-85900000I-600000J0D01*
G01*
X198550000Y-85900000D02*
G75*
G02*
X199750000Y-85900000I600000J0D01*
G01*
X199650000Y-91400000D02*
G75*
G02*
X198650000Y-91400000I-500000J0D01*
G01*
X198650000Y-91400000D02*
G75*
G02*
X199650000Y-91400000I500000J0D01*
G01*
%TO.C,S10*%
X137150000Y-67000000D02*
G75*
G02*
X135950000Y-67000000I-600000J0D01*
G01*
X135950000Y-67000000D02*
G75*
G02*
X137150000Y-67000000I600000J0D01*
G01*
X137050000Y-72500000D02*
G75*
G02*
X136050000Y-72500000I-500000J0D01*
G01*
X136050000Y-72500000D02*
G75*
G02*
X137050000Y-72500000I500000J0D01*
G01*
X148750000Y-67000000D02*
G75*
G02*
X147550000Y-67000000I-600000J0D01*
G01*
X147550000Y-67000000D02*
G75*
G02*
X148750000Y-67000000I600000J0D01*
G01*
X148650000Y-72500000D02*
G75*
G02*
X147650000Y-72500000I-500000J0D01*
G01*
X147650000Y-72500000D02*
G75*
G02*
X148650000Y-72500000I500000J0D01*
G01*
%TO.C,S8*%
X171150000Y-66750000D02*
G75*
G02*
X169950000Y-66750000I-600000J0D01*
G01*
X169950000Y-66750000D02*
G75*
G02*
X171150000Y-66750000I600000J0D01*
G01*
X171050000Y-72250000D02*
G75*
G02*
X170050000Y-72250000I-500000J0D01*
G01*
X170050000Y-72250000D02*
G75*
G02*
X171050000Y-72250000I500000J0D01*
G01*
X182750000Y-66750000D02*
G75*
G02*
X181550000Y-66750000I-600000J0D01*
G01*
X181550000Y-66750000D02*
G75*
G02*
X182750000Y-66750000I600000J0D01*
G01*
X182650000Y-72250000D02*
G75*
G02*
X181650000Y-72250000I-500000J0D01*
G01*
X181650000Y-72250000D02*
G75*
G02*
X182650000Y-72250000I500000J0D01*
G01*
%TO.C,S14*%
X171150000Y-83750000D02*
G75*
G02*
X169950000Y-83750000I-600000J0D01*
G01*
X169950000Y-83750000D02*
G75*
G02*
X171150000Y-83750000I600000J0D01*
G01*
X171050000Y-89250000D02*
G75*
G02*
X170050000Y-89250000I-500000J0D01*
G01*
X170050000Y-89250000D02*
G75*
G02*
X171050000Y-89250000I500000J0D01*
G01*
X182750000Y-83750000D02*
G75*
G02*
X181550000Y-83750000I-600000J0D01*
G01*
X181550000Y-83750000D02*
G75*
G02*
X182750000Y-83750000I600000J0D01*
G01*
X182650000Y-89250000D02*
G75*
G02*
X181650000Y-89250000I-500000J0D01*
G01*
X181650000Y-89250000D02*
G75*
G02*
X182650000Y-89250000I500000J0D01*
G01*
%TO.C,S3*%
X154150000Y-48500000D02*
G75*
G02*
X152950000Y-48500000I-600000J0D01*
G01*
X152950000Y-48500000D02*
G75*
G02*
X154150000Y-48500000I600000J0D01*
G01*
X154050000Y-54000000D02*
G75*
G02*
X153050000Y-54000000I-500000J0D01*
G01*
X153050000Y-54000000D02*
G75*
G02*
X154050000Y-54000000I500000J0D01*
G01*
X165750000Y-48500000D02*
G75*
G02*
X164550000Y-48500000I-600000J0D01*
G01*
X164550000Y-48500000D02*
G75*
G02*
X165750000Y-48500000I600000J0D01*
G01*
X165650000Y-54000000D02*
G75*
G02*
X164650000Y-54000000I-500000J0D01*
G01*
X164650000Y-54000000D02*
G75*
G02*
X165650000Y-54000000I500000J0D01*
G01*
%TO.C,S5*%
X120150000Y-54250000D02*
G75*
G02*
X118950000Y-54250000I-600000J0D01*
G01*
X118950000Y-54250000D02*
G75*
G02*
X120150000Y-54250000I600000J0D01*
G01*
X120050000Y-59750000D02*
G75*
G02*
X119050000Y-59750000I-500000J0D01*
G01*
X119050000Y-59750000D02*
G75*
G02*
X120050000Y-59750000I500000J0D01*
G01*
X131750000Y-54250000D02*
G75*
G02*
X130550000Y-54250000I-600000J0D01*
G01*
X130550000Y-54250000D02*
G75*
G02*
X131750000Y-54250000I600000J0D01*
G01*
X131650000Y-59750000D02*
G75*
G02*
X130650000Y-59750000I-500000J0D01*
G01*
X130650000Y-59750000D02*
G75*
G02*
X131650000Y-59750000I500000J0D01*
G01*
%TO.C,S21*%
X171150000Y-100750000D02*
G75*
G02*
X169950000Y-100750000I-600000J0D01*
G01*
X169950000Y-100750000D02*
G75*
G02*
X171150000Y-100750000I600000J0D01*
G01*
X171050000Y-106250000D02*
G75*
G02*
X170050000Y-106250000I-500000J0D01*
G01*
X170050000Y-106250000D02*
G75*
G02*
X171050000Y-106250000I500000J0D01*
G01*
X182750000Y-100750000D02*
G75*
G02*
X181550000Y-100750000I-600000J0D01*
G01*
X181550000Y-100750000D02*
G75*
G02*
X182750000Y-100750000I600000J0D01*
G01*
X182650000Y-106250000D02*
G75*
G02*
X181650000Y-106250000I-500000J0D01*
G01*
X181650000Y-106250000D02*
G75*
G02*
X182650000Y-106250000I500000J0D01*
G01*
%TO.C,S7*%
X188150000Y-68900000D02*
G75*
G02*
X186950000Y-68900000I-600000J0D01*
G01*
X186950000Y-68900000D02*
G75*
G02*
X188150000Y-68900000I600000J0D01*
G01*
X188050000Y-74400000D02*
G75*
G02*
X187050000Y-74400000I-500000J0D01*
G01*
X187050000Y-74400000D02*
G75*
G02*
X188050000Y-74400000I500000J0D01*
G01*
X199750000Y-68900000D02*
G75*
G02*
X198550000Y-68900000I-600000J0D01*
G01*
X198550000Y-68900000D02*
G75*
G02*
X199750000Y-68900000I600000J0D01*
G01*
X199650000Y-74400000D02*
G75*
G02*
X198650000Y-74400000I-500000J0D01*
G01*
X198650000Y-74400000D02*
G75*
G02*
X199650000Y-74400000I500000J0D01*
G01*
%TO.C,S22*%
X154150000Y-99500000D02*
G75*
G02*
X152950000Y-99500000I-600000J0D01*
G01*
X152950000Y-99500000D02*
G75*
G02*
X154150000Y-99500000I600000J0D01*
G01*
X154050000Y-105000000D02*
G75*
G02*
X153050000Y-105000000I-500000J0D01*
G01*
X153050000Y-105000000D02*
G75*
G02*
X154050000Y-105000000I500000J0D01*
G01*
X165750000Y-99500000D02*
G75*
G02*
X164550000Y-99500000I-600000J0D01*
G01*
X164550000Y-99500000D02*
G75*
G02*
X165750000Y-99500000I600000J0D01*
G01*
X165650000Y-105000000D02*
G75*
G02*
X164650000Y-105000000I-500000J0D01*
G01*
X164650000Y-105000000D02*
G75*
G02*
X165650000Y-105000000I500000J0D01*
G01*
%TD*%
M02*
