%TF.GenerationSoftware,KiCad,Pcbnew,8.0.4*%
%TF.CreationDate,2024-09-04T10:49:23-04:00*%
%TF.ProjectId,3leaf_left,336c6561-665f-46c6-9566-742e6b696361,rev?*%
%TF.SameCoordinates,Original*%
%TF.FileFunction,Drillmap*%
%TF.FilePolarity,Positive*%
%FSLAX45Y45*%
G04 Gerber Fmt 4.5, Leading zero omitted, Abs format (unit mm)*
G04 Created by KiCad (PCBNEW 8.0.4) date 2024-09-04 10:49:23*
%MOMM*%
%LPD*%
G01*
G04 APERTURE LIST*
%ADD10C,0.200000*%
%ADD11C,0.100000*%
G04 APERTURE END LIST*
D10*
X15116663Y-4150311D02*
G75*
G02*
X15315110Y-4075312I198437J-225019D01*
G01*
X14381301Y-9724597D02*
G75*
G02*
X14885346Y-10225556I2029J-502013D01*
G01*
X15116663Y-4150311D02*
G75*
G02*
X14918223Y-4225310I-198433J225011D01*
G01*
X9785357Y-10146958D02*
X9785357Y-5264957D01*
X23017340Y-4415311D02*
G75*
G02*
X23500484Y-4786581I0J-499999D01*
G01*
X13388709Y-4225311D02*
X14918223Y-4225311D01*
X13384990Y-10149595D02*
X11983440Y-10149597D01*
X18254890Y-11399597D02*
G75*
G02*
X18484996Y-11507097I0J-300023D01*
G01*
X18715110Y-4415311D02*
X23017340Y-4415311D01*
X10116380Y-4794373D02*
G75*
G02*
X13388709Y-4225311I3268660J-9102967D01*
G01*
X22566069Y-11468156D02*
G75*
G02*
X22210446Y-11614600I-353569J353586D01*
G01*
X24510326Y-9523900D02*
X22566069Y-11468156D01*
X16601710Y-11274597D02*
X15385340Y-11274597D01*
X23500481Y-4786582D02*
X24640285Y-9040387D01*
X14885343Y-10774597D02*
X14885343Y-10225556D01*
X16601710Y-4075311D02*
G75*
G02*
X16784998Y-4137813I-10J-300029D01*
G01*
X13671958Y-9937098D02*
G75*
G02*
X13384990Y-10149597I-286968J87518D01*
G01*
X24640285Y-9040387D02*
G75*
G02*
X24510328Y-9523902I-482965J-129413D01*
G01*
X23304526Y-4716973D02*
G75*
G02*
X23034526Y-4716973I-135000J0D01*
G01*
X23034526Y-4716973D02*
G75*
G02*
X23304526Y-4716973I135000J0D01*
G01*
X16601710Y-11274597D02*
G75*
G02*
X16785000Y-11337097I0J-300013D01*
G01*
X13671958Y-9937098D02*
G75*
G02*
X13958940Y-9724608I286962J-87522D01*
G01*
X18715110Y-4415311D02*
G75*
G02*
X18485004Y-4307810I0J300021D01*
G01*
X10224867Y-10645734D02*
G75*
G02*
X9785359Y-10146958I60494J496334D01*
G01*
X15315110Y-4075311D02*
X16601710Y-4075311D01*
X16968290Y-11399597D02*
G75*
G02*
X16784999Y-11337098I0J300017D01*
G01*
X11347282Y-10782514D02*
X10224867Y-10645734D01*
X18254900Y-4200311D02*
G75*
G02*
X18485004Y-4307810I0J-300019D01*
G01*
X11684998Y-10467264D02*
G75*
G02*
X11347282Y-10782517I-299518J-17656D01*
G01*
X22210446Y-11614597D02*
X18715100Y-11614597D01*
X13220000Y-4525311D02*
G75*
G02*
X12950000Y-4525311I-135000J0D01*
G01*
X12950000Y-4525311D02*
G75*
G02*
X13220000Y-4525311I135000J0D01*
G01*
X9785357Y-5264957D02*
G75*
G02*
X10116381Y-4794376I500003J-3D01*
G01*
X16968290Y-4200311D02*
X18254900Y-4200311D01*
X16968290Y-4200311D02*
G75*
G02*
X16784999Y-4137812I0J300021D01*
G01*
X18254890Y-11399597D02*
X16968290Y-11399597D01*
X20605000Y-9429997D02*
G75*
G02*
X20335000Y-9429997I-135000J0D01*
G01*
X20335000Y-9429997D02*
G75*
G02*
X20605000Y-9429997I135000J0D01*
G01*
X11684998Y-10467264D02*
G75*
G02*
X11983440Y-10149600I299482J17664D01*
G01*
X15385340Y-11274597D02*
G75*
G02*
X14885343Y-10774597I0J499997D01*
G01*
X11520499Y-10484931D02*
G75*
G02*
X11250499Y-10484931I-135000J0D01*
G01*
X11250499Y-10484931D02*
G75*
G02*
X11520499Y-10484931I135000J0D01*
G01*
X14381301Y-9724597D02*
X13958940Y-9724597D01*
X18715100Y-11614597D02*
G75*
G02*
X18484997Y-11507097I0J300017D01*
G01*
D11*
X15415000Y-8250000D02*
G75*
G02*
X15295000Y-8250000I-60000J0D01*
G01*
X15295000Y-8250000D02*
G75*
G02*
X15415000Y-8250000I60000J0D01*
G01*
X15405000Y-8800000D02*
G75*
G02*
X15305000Y-8800000I-50000J0D01*
G01*
X15305000Y-8800000D02*
G75*
G02*
X15405000Y-8800000I50000J0D01*
G01*
X16575000Y-8250000D02*
G75*
G02*
X16455000Y-8250000I-60000J0D01*
G01*
X16455000Y-8250000D02*
G75*
G02*
X16575000Y-8250000I60000J0D01*
G01*
X16565000Y-8800000D02*
G75*
G02*
X16465000Y-8800000I-50000J0D01*
G01*
X16465000Y-8800000D02*
G75*
G02*
X16565000Y-8800000I50000J0D01*
G01*
X12015000Y-7125000D02*
G75*
G02*
X11895000Y-7125000I-60000J0D01*
G01*
X11895000Y-7125000D02*
G75*
G02*
X12015000Y-7125000I60000J0D01*
G01*
X12005000Y-7675000D02*
G75*
G02*
X11905000Y-7675000I-50000J0D01*
G01*
X11905000Y-7675000D02*
G75*
G02*
X12005000Y-7675000I50000J0D01*
G01*
X13175000Y-7125000D02*
G75*
G02*
X13055000Y-7125000I-60000J0D01*
G01*
X13055000Y-7125000D02*
G75*
G02*
X13175000Y-7125000I60000J0D01*
G01*
X13165000Y-7675000D02*
G75*
G02*
X13065000Y-7675000I-50000J0D01*
G01*
X13065000Y-7675000D02*
G75*
G02*
X13165000Y-7675000I50000J0D01*
G01*
X13715000Y-8400000D02*
G75*
G02*
X13595000Y-8400000I-60000J0D01*
G01*
X13595000Y-8400000D02*
G75*
G02*
X13715000Y-8400000I60000J0D01*
G01*
X13705000Y-8950000D02*
G75*
G02*
X13605000Y-8950000I-50000J0D01*
G01*
X13605000Y-8950000D02*
G75*
G02*
X13705000Y-8950000I50000J0D01*
G01*
X14875000Y-8400000D02*
G75*
G02*
X14755000Y-8400000I-60000J0D01*
G01*
X14755000Y-8400000D02*
G75*
G02*
X14875000Y-8400000I60000J0D01*
G01*
X14865000Y-8950000D02*
G75*
G02*
X14765000Y-8950000I-50000J0D01*
G01*
X14765000Y-8950000D02*
G75*
G02*
X14865000Y-8950000I50000J0D01*
G01*
X20515000Y-10290000D02*
G75*
G02*
X20395000Y-10290000I-60000J0D01*
G01*
X20395000Y-10290000D02*
G75*
G02*
X20515000Y-10290000I60000J0D01*
G01*
X20505000Y-10840000D02*
G75*
G02*
X20405000Y-10840000I-50000J0D01*
G01*
X20405000Y-10840000D02*
G75*
G02*
X20505000Y-10840000I50000J0D01*
G01*
X21675000Y-10290000D02*
G75*
G02*
X21555000Y-10290000I-60000J0D01*
G01*
X21555000Y-10290000D02*
G75*
G02*
X21675000Y-10290000I60000J0D01*
G01*
X21665000Y-10840000D02*
G75*
G02*
X21565000Y-10840000I-50000J0D01*
G01*
X21565000Y-10840000D02*
G75*
G02*
X21665000Y-10840000I50000J0D01*
G01*
X10315000Y-5600000D02*
G75*
G02*
X10195000Y-5600000I-60000J0D01*
G01*
X10195000Y-5600000D02*
G75*
G02*
X10315000Y-5600000I60000J0D01*
G01*
X10305000Y-6150000D02*
G75*
G02*
X10205000Y-6150000I-50000J0D01*
G01*
X10205000Y-6150000D02*
G75*
G02*
X10305000Y-6150000I50000J0D01*
G01*
X11475000Y-5600000D02*
G75*
G02*
X11355000Y-5600000I-60000J0D01*
G01*
X11355000Y-5600000D02*
G75*
G02*
X11475000Y-5600000I60000J0D01*
G01*
X11465000Y-6150000D02*
G75*
G02*
X11365000Y-6150000I-50000J0D01*
G01*
X11365000Y-6150000D02*
G75*
G02*
X11465000Y-6150000I50000J0D01*
G01*
X18815000Y-10290000D02*
G75*
G02*
X18695000Y-10290000I-60000J0D01*
G01*
X18695000Y-10290000D02*
G75*
G02*
X18815000Y-10290000I60000J0D01*
G01*
X18805000Y-10840000D02*
G75*
G02*
X18705000Y-10840000I-50000J0D01*
G01*
X18705000Y-10840000D02*
G75*
G02*
X18805000Y-10840000I50000J0D01*
G01*
X19975000Y-10290000D02*
G75*
G02*
X19855000Y-10290000I-60000J0D01*
G01*
X19855000Y-10290000D02*
G75*
G02*
X19975000Y-10290000I60000J0D01*
G01*
X19965000Y-10840000D02*
G75*
G02*
X19865000Y-10840000I-50000J0D01*
G01*
X19865000Y-10840000D02*
G75*
G02*
X19965000Y-10840000I50000J0D01*
G01*
X17115000Y-4975000D02*
G75*
G02*
X16995000Y-4975000I-60000J0D01*
G01*
X16995000Y-4975000D02*
G75*
G02*
X17115000Y-4975000I60000J0D01*
G01*
X17105000Y-5525000D02*
G75*
G02*
X17005000Y-5525000I-50000J0D01*
G01*
X17005000Y-5525000D02*
G75*
G02*
X17105000Y-5525000I50000J0D01*
G01*
X18275000Y-4975000D02*
G75*
G02*
X18155000Y-4975000I-60000J0D01*
G01*
X18155000Y-4975000D02*
G75*
G02*
X18275000Y-4975000I60000J0D01*
G01*
X18265000Y-5525000D02*
G75*
G02*
X18165000Y-5525000I-50000J0D01*
G01*
X18165000Y-5525000D02*
G75*
G02*
X18265000Y-5525000I50000J0D01*
G01*
X10315000Y-9000000D02*
G75*
G02*
X10195000Y-9000000I-60000J0D01*
G01*
X10195000Y-9000000D02*
G75*
G02*
X10315000Y-9000000I60000J0D01*
G01*
X10305000Y-9550000D02*
G75*
G02*
X10205000Y-9550000I-50000J0D01*
G01*
X10205000Y-9550000D02*
G75*
G02*
X10305000Y-9550000I50000J0D01*
G01*
X11475000Y-9000000D02*
G75*
G02*
X11355000Y-9000000I-60000J0D01*
G01*
X11355000Y-9000000D02*
G75*
G02*
X11475000Y-9000000I60000J0D01*
G01*
X11465000Y-9550000D02*
G75*
G02*
X11365000Y-9550000I-50000J0D01*
G01*
X11365000Y-9550000D02*
G75*
G02*
X11465000Y-9550000I50000J0D01*
G01*
X15415000Y-6550000D02*
G75*
G02*
X15295000Y-6550000I-60000J0D01*
G01*
X15295000Y-6550000D02*
G75*
G02*
X15415000Y-6550000I60000J0D01*
G01*
X15405000Y-7100000D02*
G75*
G02*
X15305000Y-7100000I-50000J0D01*
G01*
X15305000Y-7100000D02*
G75*
G02*
X15405000Y-7100000I50000J0D01*
G01*
X16575000Y-6550000D02*
G75*
G02*
X16455000Y-6550000I-60000J0D01*
G01*
X16455000Y-6550000D02*
G75*
G02*
X16575000Y-6550000I60000J0D01*
G01*
X16565000Y-7100000D02*
G75*
G02*
X16465000Y-7100000I-50000J0D01*
G01*
X16465000Y-7100000D02*
G75*
G02*
X16565000Y-7100000I50000J0D01*
G01*
X12015000Y-8825000D02*
G75*
G02*
X11895000Y-8825000I-60000J0D01*
G01*
X11895000Y-8825000D02*
G75*
G02*
X12015000Y-8825000I60000J0D01*
G01*
X12005000Y-9375000D02*
G75*
G02*
X11905000Y-9375000I-50000J0D01*
G01*
X11905000Y-9375000D02*
G75*
G02*
X12005000Y-9375000I50000J0D01*
G01*
X13175000Y-8825000D02*
G75*
G02*
X13055000Y-8825000I-60000J0D01*
G01*
X13055000Y-8825000D02*
G75*
G02*
X13175000Y-8825000I60000J0D01*
G01*
X13165000Y-9375000D02*
G75*
G02*
X13065000Y-9375000I-50000J0D01*
G01*
X13065000Y-9375000D02*
G75*
G02*
X13165000Y-9375000I50000J0D01*
G01*
X13715000Y-5000000D02*
G75*
G02*
X13595000Y-5000000I-60000J0D01*
G01*
X13595000Y-5000000D02*
G75*
G02*
X13715000Y-5000000I60000J0D01*
G01*
X13705000Y-5550000D02*
G75*
G02*
X13605000Y-5550000I-50000J0D01*
G01*
X13605000Y-5550000D02*
G75*
G02*
X13705000Y-5550000I50000J0D01*
G01*
X14875000Y-5000000D02*
G75*
G02*
X14755000Y-5000000I-60000J0D01*
G01*
X14755000Y-5000000D02*
G75*
G02*
X14875000Y-5000000I60000J0D01*
G01*
X14865000Y-5550000D02*
G75*
G02*
X14765000Y-5550000I-50000J0D01*
G01*
X14765000Y-5550000D02*
G75*
G02*
X14865000Y-5550000I50000J0D01*
G01*
X10315000Y-7300000D02*
G75*
G02*
X10195000Y-7300000I-60000J0D01*
G01*
X10195000Y-7300000D02*
G75*
G02*
X10315000Y-7300000I60000J0D01*
G01*
X10305000Y-7850000D02*
G75*
G02*
X10205000Y-7850000I-50000J0D01*
G01*
X10205000Y-7850000D02*
G75*
G02*
X10305000Y-7850000I50000J0D01*
G01*
X11475000Y-7300000D02*
G75*
G02*
X11355000Y-7300000I-60000J0D01*
G01*
X11355000Y-7300000D02*
G75*
G02*
X11475000Y-7300000I60000J0D01*
G01*
X11465000Y-7850000D02*
G75*
G02*
X11365000Y-7850000I-50000J0D01*
G01*
X11365000Y-7850000D02*
G75*
G02*
X11465000Y-7850000I50000J0D01*
G01*
X18815000Y-5190000D02*
G75*
G02*
X18695000Y-5190000I-60000J0D01*
G01*
X18695000Y-5190000D02*
G75*
G02*
X18815000Y-5190000I60000J0D01*
G01*
X18805000Y-5740000D02*
G75*
G02*
X18705000Y-5740000I-50000J0D01*
G01*
X18705000Y-5740000D02*
G75*
G02*
X18805000Y-5740000I50000J0D01*
G01*
X19975000Y-5190000D02*
G75*
G02*
X19855000Y-5190000I-60000J0D01*
G01*
X19855000Y-5190000D02*
G75*
G02*
X19975000Y-5190000I60000J0D01*
G01*
X19965000Y-5740000D02*
G75*
G02*
X19865000Y-5740000I-50000J0D01*
G01*
X19865000Y-5740000D02*
G75*
G02*
X19965000Y-5740000I50000J0D01*
G01*
X18815000Y-8590000D02*
G75*
G02*
X18695000Y-8590000I-60000J0D01*
G01*
X18695000Y-8590000D02*
G75*
G02*
X18815000Y-8590000I60000J0D01*
G01*
X18805000Y-9140000D02*
G75*
G02*
X18705000Y-9140000I-50000J0D01*
G01*
X18705000Y-9140000D02*
G75*
G02*
X18805000Y-9140000I50000J0D01*
G01*
X19975000Y-8590000D02*
G75*
G02*
X19855000Y-8590000I-60000J0D01*
G01*
X19855000Y-8590000D02*
G75*
G02*
X19975000Y-8590000I60000J0D01*
G01*
X19965000Y-9140000D02*
G75*
G02*
X19865000Y-9140000I-50000J0D01*
G01*
X19865000Y-9140000D02*
G75*
G02*
X19965000Y-9140000I50000J0D01*
G01*
X13715000Y-6700000D02*
G75*
G02*
X13595000Y-6700000I-60000J0D01*
G01*
X13595000Y-6700000D02*
G75*
G02*
X13715000Y-6700000I60000J0D01*
G01*
X13705000Y-7250000D02*
G75*
G02*
X13605000Y-7250000I-50000J0D01*
G01*
X13605000Y-7250000D02*
G75*
G02*
X13705000Y-7250000I50000J0D01*
G01*
X14875000Y-6700000D02*
G75*
G02*
X14755000Y-6700000I-60000J0D01*
G01*
X14755000Y-6700000D02*
G75*
G02*
X14875000Y-6700000I60000J0D01*
G01*
X14865000Y-7250000D02*
G75*
G02*
X14765000Y-7250000I-50000J0D01*
G01*
X14765000Y-7250000D02*
G75*
G02*
X14865000Y-7250000I50000J0D01*
G01*
X17115000Y-6675000D02*
G75*
G02*
X16995000Y-6675000I-60000J0D01*
G01*
X16995000Y-6675000D02*
G75*
G02*
X17115000Y-6675000I60000J0D01*
G01*
X17105000Y-7225000D02*
G75*
G02*
X17005000Y-7225000I-50000J0D01*
G01*
X17005000Y-7225000D02*
G75*
G02*
X17105000Y-7225000I50000J0D01*
G01*
X18275000Y-6675000D02*
G75*
G02*
X18155000Y-6675000I-60000J0D01*
G01*
X18155000Y-6675000D02*
G75*
G02*
X18275000Y-6675000I60000J0D01*
G01*
X18265000Y-7225000D02*
G75*
G02*
X18165000Y-7225000I-50000J0D01*
G01*
X18165000Y-7225000D02*
G75*
G02*
X18265000Y-7225000I50000J0D01*
G01*
X17115000Y-8375000D02*
G75*
G02*
X16995000Y-8375000I-60000J0D01*
G01*
X16995000Y-8375000D02*
G75*
G02*
X17115000Y-8375000I60000J0D01*
G01*
X17105000Y-8925000D02*
G75*
G02*
X17005000Y-8925000I-50000J0D01*
G01*
X17005000Y-8925000D02*
G75*
G02*
X17105000Y-8925000I50000J0D01*
G01*
X18275000Y-8375000D02*
G75*
G02*
X18155000Y-8375000I-60000J0D01*
G01*
X18155000Y-8375000D02*
G75*
G02*
X18275000Y-8375000I60000J0D01*
G01*
X18265000Y-8925000D02*
G75*
G02*
X18165000Y-8925000I-50000J0D01*
G01*
X18165000Y-8925000D02*
G75*
G02*
X18265000Y-8925000I50000J0D01*
G01*
X15415000Y-4850000D02*
G75*
G02*
X15295000Y-4850000I-60000J0D01*
G01*
X15295000Y-4850000D02*
G75*
G02*
X15415000Y-4850000I60000J0D01*
G01*
X15405000Y-5400000D02*
G75*
G02*
X15305000Y-5400000I-50000J0D01*
G01*
X15305000Y-5400000D02*
G75*
G02*
X15405000Y-5400000I50000J0D01*
G01*
X16575000Y-4850000D02*
G75*
G02*
X16455000Y-4850000I-60000J0D01*
G01*
X16455000Y-4850000D02*
G75*
G02*
X16575000Y-4850000I60000J0D01*
G01*
X16565000Y-5400000D02*
G75*
G02*
X16465000Y-5400000I-50000J0D01*
G01*
X16465000Y-5400000D02*
G75*
G02*
X16565000Y-5400000I50000J0D01*
G01*
X12015000Y-5425000D02*
G75*
G02*
X11895000Y-5425000I-60000J0D01*
G01*
X11895000Y-5425000D02*
G75*
G02*
X12015000Y-5425000I60000J0D01*
G01*
X12005000Y-5975000D02*
G75*
G02*
X11905000Y-5975000I-50000J0D01*
G01*
X11905000Y-5975000D02*
G75*
G02*
X12005000Y-5975000I50000J0D01*
G01*
X13175000Y-5425000D02*
G75*
G02*
X13055000Y-5425000I-60000J0D01*
G01*
X13055000Y-5425000D02*
G75*
G02*
X13175000Y-5425000I60000J0D01*
G01*
X13165000Y-5975000D02*
G75*
G02*
X13065000Y-5975000I-50000J0D01*
G01*
X13065000Y-5975000D02*
G75*
G02*
X13165000Y-5975000I50000J0D01*
G01*
X17115000Y-10075000D02*
G75*
G02*
X16995000Y-10075000I-60000J0D01*
G01*
X16995000Y-10075000D02*
G75*
G02*
X17115000Y-10075000I60000J0D01*
G01*
X17105000Y-10625000D02*
G75*
G02*
X17005000Y-10625000I-50000J0D01*
G01*
X17005000Y-10625000D02*
G75*
G02*
X17105000Y-10625000I50000J0D01*
G01*
X18275000Y-10075000D02*
G75*
G02*
X18155000Y-10075000I-60000J0D01*
G01*
X18155000Y-10075000D02*
G75*
G02*
X18275000Y-10075000I60000J0D01*
G01*
X18265000Y-10625000D02*
G75*
G02*
X18165000Y-10625000I-50000J0D01*
G01*
X18165000Y-10625000D02*
G75*
G02*
X18265000Y-10625000I50000J0D01*
G01*
X18815000Y-6890000D02*
G75*
G02*
X18695000Y-6890000I-60000J0D01*
G01*
X18695000Y-6890000D02*
G75*
G02*
X18815000Y-6890000I60000J0D01*
G01*
X18805000Y-7440000D02*
G75*
G02*
X18705000Y-7440000I-50000J0D01*
G01*
X18705000Y-7440000D02*
G75*
G02*
X18805000Y-7440000I50000J0D01*
G01*
X19975000Y-6890000D02*
G75*
G02*
X19855000Y-6890000I-60000J0D01*
G01*
X19855000Y-6890000D02*
G75*
G02*
X19975000Y-6890000I60000J0D01*
G01*
X19965000Y-7440000D02*
G75*
G02*
X19865000Y-7440000I-50000J0D01*
G01*
X19865000Y-7440000D02*
G75*
G02*
X19965000Y-7440000I50000J0D01*
G01*
X15415000Y-9950000D02*
G75*
G02*
X15295000Y-9950000I-60000J0D01*
G01*
X15295000Y-9950000D02*
G75*
G02*
X15415000Y-9950000I60000J0D01*
G01*
X15405000Y-10500000D02*
G75*
G02*
X15305000Y-10500000I-50000J0D01*
G01*
X15305000Y-10500000D02*
G75*
G02*
X15405000Y-10500000I50000J0D01*
G01*
X16575000Y-9950000D02*
G75*
G02*
X16455000Y-9950000I-60000J0D01*
G01*
X16455000Y-9950000D02*
G75*
G02*
X16575000Y-9950000I60000J0D01*
G01*
X16565000Y-10500000D02*
G75*
G02*
X16465000Y-10500000I-50000J0D01*
G01*
X16465000Y-10500000D02*
G75*
G02*
X16565000Y-10500000I50000J0D01*
G01*
D10*
X10036130Y-11936088D02*
X10036130Y-11736088D01*
X10036130Y-11736088D02*
X10083749Y-11736088D01*
X10083749Y-11736088D02*
X10112320Y-11745612D01*
X10112320Y-11745612D02*
X10131368Y-11764660D01*
X10131368Y-11764660D02*
X10140891Y-11783707D01*
X10140891Y-11783707D02*
X10150415Y-11821802D01*
X10150415Y-11821802D02*
X10150415Y-11850374D01*
X10150415Y-11850374D02*
X10140891Y-11888469D01*
X10140891Y-11888469D02*
X10131368Y-11907517D01*
X10131368Y-11907517D02*
X10112320Y-11926564D01*
X10112320Y-11926564D02*
X10083749Y-11936088D01*
X10083749Y-11936088D02*
X10036130Y-11936088D01*
X10236130Y-11936088D02*
X10236130Y-11802755D01*
X10236130Y-11840850D02*
X10245653Y-11821802D01*
X10245653Y-11821802D02*
X10255177Y-11812279D01*
X10255177Y-11812279D02*
X10274225Y-11802755D01*
X10274225Y-11802755D02*
X10293272Y-11802755D01*
X10359939Y-11936088D02*
X10359939Y-11802755D01*
X10359939Y-11736088D02*
X10350415Y-11745612D01*
X10350415Y-11745612D02*
X10359939Y-11755136D01*
X10359939Y-11755136D02*
X10369463Y-11745612D01*
X10369463Y-11745612D02*
X10359939Y-11736088D01*
X10359939Y-11736088D02*
X10359939Y-11755136D01*
X10483749Y-11936088D02*
X10464701Y-11926564D01*
X10464701Y-11926564D02*
X10455177Y-11907517D01*
X10455177Y-11907517D02*
X10455177Y-11736088D01*
X10588510Y-11936088D02*
X10569463Y-11926564D01*
X10569463Y-11926564D02*
X10559939Y-11907517D01*
X10559939Y-11907517D02*
X10559939Y-11736088D01*
X10817082Y-11936088D02*
X10817082Y-11736088D01*
X10817082Y-11736088D02*
X10883749Y-11878945D01*
X10883749Y-11878945D02*
X10950415Y-11736088D01*
X10950415Y-11736088D02*
X10950415Y-11936088D01*
X11131368Y-11936088D02*
X11131368Y-11831326D01*
X11131368Y-11831326D02*
X11121844Y-11812279D01*
X11121844Y-11812279D02*
X11102796Y-11802755D01*
X11102796Y-11802755D02*
X11064701Y-11802755D01*
X11064701Y-11802755D02*
X11045653Y-11812279D01*
X11131368Y-11926564D02*
X11112320Y-11936088D01*
X11112320Y-11936088D02*
X11064701Y-11936088D01*
X11064701Y-11936088D02*
X11045653Y-11926564D01*
X11045653Y-11926564D02*
X11036130Y-11907517D01*
X11036130Y-11907517D02*
X11036130Y-11888469D01*
X11036130Y-11888469D02*
X11045653Y-11869421D01*
X11045653Y-11869421D02*
X11064701Y-11859898D01*
X11064701Y-11859898D02*
X11112320Y-11859898D01*
X11112320Y-11859898D02*
X11131368Y-11850374D01*
X11226606Y-11802755D02*
X11226606Y-12002755D01*
X11226606Y-11812279D02*
X11245653Y-11802755D01*
X11245653Y-11802755D02*
X11283749Y-11802755D01*
X11283749Y-11802755D02*
X11302796Y-11812279D01*
X11302796Y-11812279D02*
X11312320Y-11821802D01*
X11312320Y-11821802D02*
X11321844Y-11840850D01*
X11321844Y-11840850D02*
X11321844Y-11897993D01*
X11321844Y-11897993D02*
X11312320Y-11917040D01*
X11312320Y-11917040D02*
X11302796Y-11926564D01*
X11302796Y-11926564D02*
X11283749Y-11936088D01*
X11283749Y-11936088D02*
X11245653Y-11936088D01*
X11245653Y-11936088D02*
X11226606Y-11926564D01*
X11407558Y-11917040D02*
X11417082Y-11926564D01*
X11417082Y-11926564D02*
X11407558Y-11936088D01*
X11407558Y-11936088D02*
X11398034Y-11926564D01*
X11398034Y-11926564D02*
X11407558Y-11917040D01*
X11407558Y-11917040D02*
X11407558Y-11936088D01*
X11407558Y-11812279D02*
X11417082Y-11821802D01*
X11417082Y-11821802D02*
X11407558Y-11831326D01*
X11407558Y-11831326D02*
X11398034Y-11821802D01*
X11398034Y-11821802D02*
X11407558Y-11812279D01*
X11407558Y-11812279D02*
X11407558Y-11831326D01*
M02*
