%TF.GenerationSoftware,KiCad,Pcbnew,8.0.4*%
%TF.CreationDate,2024-09-04T10:49:16-04:00*%
%TF.ProjectId,3leaf_left,336c6561-665f-46c6-9566-742e6b696361,rev?*%
%TF.SameCoordinates,Original*%
%TF.FileFunction,Soldermask,Top*%
%TF.FilePolarity,Negative*%
%FSLAX46Y46*%
G04 Gerber Fmt 4.6, Leading zero omitted, Abs format (unit mm)*
G04 Created by KiCad (PCBNEW 8.0.4) date 2024-09-04 10:49:16*
%MOMM*%
%LPD*%
G01*
G04 APERTURE LIST*
G04 Aperture macros list*
%AMRoundRect*
0 Rectangle with rounded corners*
0 $1 Rounding radius*
0 $2 $3 $4 $5 $6 $7 $8 $9 X,Y pos of 4 corners*
0 Add a 4 corners polygon primitive as box body*
4,1,4,$2,$3,$4,$5,$6,$7,$8,$9,$2,$3,0*
0 Add four circle primitives for the rounded corners*
1,1,$1+$1,$2,$3*
1,1,$1+$1,$4,$5*
1,1,$1+$1,$6,$7*
1,1,$1+$1,$8,$9*
0 Add four rect primitives between the rounded corners*
20,1,$1+$1,$2,$3,$4,$5,0*
20,1,$1+$1,$4,$5,$6,$7,0*
20,1,$1+$1,$6,$7,$8,$9,0*
20,1,$1+$1,$8,$9,$2,$3,0*%
%AMRotRect*
0 Rectangle, with rotation*
0 The origin of the aperture is its center*
0 $1 length*
0 $2 width*
0 $3 Rotation angle, in degrees counterclockwise*
0 Add horizontal line*
21,1,$1,$2,0,0,$3*%
G04 Aperture macros list end*
%ADD10R,1.550000X2.000000*%
%ADD11R,2.000000X2.000000*%
%ADD12RoundRect,0.225000X-0.225000X-0.375000X0.225000X-0.375000X0.225000X0.375000X-0.225000X0.375000X0*%
%ADD13C,1.752600*%
%ADD14RotRect,1.244600X0.660400X45.000000*%
%ADD15RotRect,0.300000X0.700000X105.000000*%
%ADD16RotRect,0.300000X1.000000X105.000000*%
G04 APERTURE END LIST*
D10*
%TO.C,S15*%
X156850000Y-87900000D03*
X161850000Y-87900000D03*
D11*
X153000000Y-79250000D03*
X153000000Y-91250000D03*
X165700000Y-79250000D03*
X165700000Y-91250000D03*
%TD*%
D12*
%TO.C,D15*%
X157700000Y-82800000D03*
X161000000Y-82800000D03*
%TD*%
%TO.C,D4*%
X140700000Y-50300000D03*
X144000000Y-50300000D03*
%TD*%
%TO.C,D12*%
X106700000Y-73300000D03*
X110000000Y-73300000D03*
%TD*%
D10*
%TO.C,S11*%
X122850000Y-76650000D03*
X127850000Y-76650000D03*
D11*
X119000000Y-68000000D03*
X119000000Y-80000000D03*
X131700000Y-68000000D03*
X131700000Y-80000000D03*
%TD*%
D10*
%TO.C,S16*%
X139850000Y-89400000D03*
X144850000Y-89400000D03*
D11*
X136000000Y-80750000D03*
X136000000Y-92750000D03*
X148700000Y-80750000D03*
X148700000Y-92750000D03*
%TD*%
D10*
%TO.C,S19*%
X207850000Y-108300000D03*
X212850000Y-108300000D03*
D11*
X204000000Y-99650000D03*
X204000000Y-111650000D03*
X216700000Y-99650000D03*
X216700000Y-111650000D03*
%TD*%
D10*
%TO.C,S6*%
X105850000Y-61400000D03*
X110850000Y-61400000D03*
D11*
X102000000Y-52750000D03*
X102000000Y-64750000D03*
X114700000Y-52750000D03*
X114700000Y-64750000D03*
%TD*%
D10*
%TO.C,S20*%
X190850000Y-108300000D03*
X195850000Y-108300000D03*
D11*
X187000000Y-99650000D03*
X187000000Y-111650000D03*
X199700000Y-99650000D03*
X199700000Y-111650000D03*
%TD*%
D10*
%TO.C,S2*%
X173850000Y-55150000D03*
X178850000Y-55150000D03*
D11*
X170000000Y-46500000D03*
X170000000Y-58500000D03*
X182700000Y-46500000D03*
X182700000Y-58500000D03*
%TD*%
D12*
%TO.C,D3*%
X157700000Y-48800000D03*
X161000000Y-48800000D03*
%TD*%
D10*
%TO.C,S18*%
X105850000Y-95400000D03*
X110850000Y-95400000D03*
D11*
X102000000Y-86750000D03*
X102000000Y-98750000D03*
X114700000Y-86750000D03*
X114700000Y-98750000D03*
%TD*%
D12*
%TO.C,D8*%
X174700000Y-67000000D03*
X178000000Y-67000000D03*
%TD*%
%TO.C,D6*%
X106700000Y-56300000D03*
X110000000Y-56300000D03*
%TD*%
D10*
%TO.C,S9*%
X156850000Y-70900000D03*
X161850000Y-70900000D03*
D11*
X153000000Y-62250000D03*
X153000000Y-74250000D03*
X165700000Y-62250000D03*
X165700000Y-74250000D03*
%TD*%
D10*
%TO.C,S17*%
X122850000Y-93650000D03*
X127850000Y-93650000D03*
D11*
X119000000Y-85000000D03*
X119000000Y-97000000D03*
X131700000Y-85000000D03*
X131700000Y-97000000D03*
%TD*%
D10*
%TO.C,S4*%
X139850000Y-55400000D03*
X144850000Y-55400000D03*
D11*
X136000000Y-46750000D03*
X136000000Y-58750000D03*
X148700000Y-46750000D03*
X148700000Y-58750000D03*
%TD*%
D12*
%TO.C,D13*%
X191700000Y-86200000D03*
X195000000Y-86200000D03*
%TD*%
%TO.C,D18*%
X106700000Y-90300000D03*
X110000000Y-90300000D03*
%TD*%
%TO.C,D22*%
X157700000Y-99800000D03*
X161000000Y-99800000D03*
%TD*%
%TO.C,D20*%
X191700000Y-103200000D03*
X195000000Y-103200000D03*
%TD*%
%TO.C,D1*%
X191700000Y-52200000D03*
X195000000Y-52200000D03*
%TD*%
%TO.C,D10*%
X140700000Y-67300000D03*
X144000000Y-67300000D03*
%TD*%
D10*
%TO.C,S12*%
X105850000Y-78400000D03*
X110850000Y-78400000D03*
D11*
X102000000Y-69750000D03*
X102000000Y-81750000D03*
X114700000Y-69750000D03*
X114700000Y-81750000D03*
%TD*%
D12*
%TO.C,D16*%
X140700000Y-84300000D03*
X144000000Y-84300000D03*
%TD*%
D10*
%TO.C,S1*%
X190850000Y-57300000D03*
X195850000Y-57300000D03*
D11*
X187000000Y-48650000D03*
X187000000Y-60650000D03*
X199700000Y-48650000D03*
X199700000Y-60650000D03*
%TD*%
D10*
%TO.C,S13*%
X190850000Y-91300000D03*
X195850000Y-91300000D03*
D11*
X187000000Y-82650000D03*
X187000000Y-94650000D03*
X199700000Y-82650000D03*
X199700000Y-94650000D03*
%TD*%
D12*
%TO.C,D17*%
X123700000Y-88500000D03*
X127000000Y-88500000D03*
%TD*%
D10*
%TO.C,S10*%
X139850000Y-72400000D03*
X144850000Y-72400000D03*
D11*
X136000000Y-63750000D03*
X136000000Y-75750000D03*
X148700000Y-63750000D03*
X148700000Y-75750000D03*
%TD*%
D10*
%TO.C,S8*%
X173850000Y-72150000D03*
X178850000Y-72150000D03*
D11*
X170000000Y-63500000D03*
X170000000Y-75500000D03*
X182700000Y-63500000D03*
X182700000Y-75500000D03*
%TD*%
D12*
%TO.C,D21*%
X174700000Y-101000000D03*
X178000000Y-101000000D03*
%TD*%
%TO.C,D19*%
X208700000Y-103200000D03*
X212000000Y-103200000D03*
%TD*%
D10*
%TO.C,S14*%
X173850000Y-89150000D03*
X178850000Y-89150000D03*
D11*
X170000000Y-80500000D03*
X170000000Y-92500000D03*
X182700000Y-80500000D03*
X182700000Y-92500000D03*
%TD*%
D10*
%TO.C,S3*%
X156850000Y-53900000D03*
X161850000Y-53900000D03*
D11*
X153000000Y-45250000D03*
X153000000Y-57250000D03*
X165700000Y-45250000D03*
X165700000Y-57250000D03*
%TD*%
D12*
%TO.C,D11*%
X123700000Y-71500000D03*
X127000000Y-71500000D03*
%TD*%
D10*
%TO.C,S5*%
X122850000Y-59650000D03*
X127850000Y-59650000D03*
D11*
X119000000Y-51000000D03*
X119000000Y-63000000D03*
X131700000Y-51000000D03*
X131700000Y-63000000D03*
%TD*%
D13*
%TO.C,U1*%
X210930000Y-48690000D03*
X210930000Y-51230000D03*
X210930000Y-53770000D03*
X210930000Y-56310000D03*
X210930000Y-58850000D03*
X210930000Y-61390000D03*
X210930000Y-63930000D03*
X210930000Y-66470000D03*
X210930000Y-69010000D03*
X210930000Y-71550000D03*
X210930000Y-74090000D03*
X210930000Y-76630000D03*
X226170000Y-76630000D03*
X226170000Y-74090000D03*
X226170000Y-71550000D03*
X226170000Y-69010000D03*
X226170000Y-66470000D03*
X226170000Y-63930000D03*
X226170000Y-61390000D03*
X226170000Y-58850000D03*
X226170000Y-56310000D03*
X226170000Y-53770000D03*
X226170000Y-51230000D03*
X226170000Y-48690000D03*
X213470000Y-71550000D03*
X216010000Y-71550000D03*
X218550000Y-71550000D03*
%TD*%
D12*
%TO.C,D2*%
X174700000Y-50000000D03*
X178000000Y-50000000D03*
%TD*%
D14*
%TO.C,SW1*%
X236589899Y-100163581D03*
X239463581Y-97289899D03*
X237636419Y-101210101D03*
X240510101Y-98336419D03*
%TD*%
D10*
%TO.C,S21*%
X173850000Y-106150000D03*
X178850000Y-106150000D03*
D11*
X170000000Y-97500000D03*
X170000000Y-109500000D03*
X182700000Y-97500000D03*
X182700000Y-109500000D03*
%TD*%
D12*
%TO.C,D9*%
X157700000Y-65800000D03*
X161000000Y-65800000D03*
%TD*%
%TO.C,D5*%
X123700000Y-54500000D03*
X127000000Y-54500000D03*
%TD*%
D10*
%TO.C,S7*%
X190850000Y-74300000D03*
X195850000Y-74300000D03*
D11*
X187000000Y-65650000D03*
X187000000Y-77650000D03*
X199700000Y-65650000D03*
X199700000Y-77650000D03*
%TD*%
D12*
%TO.C,D14*%
X174700000Y-84000000D03*
X178000000Y-84000000D03*
%TD*%
D10*
%TO.C,S22*%
X156850000Y-104900000D03*
X161850000Y-104900000D03*
D11*
X153000000Y-96250000D03*
X153000000Y-108250000D03*
X165700000Y-96250000D03*
X165700000Y-108250000D03*
%TD*%
D12*
%TO.C,D7*%
X191700000Y-69200000D03*
X195000000Y-69200000D03*
%TD*%
D15*
%TO.C,J1*%
X234709950Y-74619561D03*
X234580541Y-74136599D03*
X234451131Y-73653634D03*
X234321722Y-73170672D03*
X234192312Y-72687708D03*
X234062902Y-72204746D03*
X233933493Y-71721784D03*
X233804083Y-71238819D03*
X233674674Y-70755857D03*
X233545264Y-70272894D03*
X233415855Y-69789932D03*
X233286446Y-69306970D03*
X233157036Y-68824005D03*
X233027626Y-68341043D03*
X232898217Y-67858081D03*
X232768807Y-67375117D03*
D16*
X237474121Y-74696772D03*
X235124049Y-65926185D03*
%TD*%
M02*
